<svg version="1.1" id="Layer_1" xmlns="http://www.w3.org/2000/svg" xmlns:xlink="http://www.w3.org/1999/xlink" x="0px" y="0px"
	 width="100%" viewBox="0 0 1000 1000" enable-background="new 0 0 1000 1000" xml:space="preserve">
<path fill="#FFFFFF" opacity="1.000000" stroke="none" 
	d="
M1.000000,235.000000 
	C1.000000,157.008118 1.000000,79.016235 1.000000,1.024352 
	C1.158532,1.016235 1.317064,1.001002 1.475596,1.001001 
	C334.607605,0.999997 667.739563,1.000000 1000.935791,1.000000 
	C1000.935791,334.255829 1000.935791,667.511658 1000.935791,1000.883789 
	C667.778870,1000.883789 334.557739,1000.883789 1.000000,1000.883789 
	C1.000000,746.305420 1.000000,491.610657 1.358430,236.563507 
	C3.646368,241.817993 5.688784,247.388962 7.485890,253.037964 
	C15.358841,277.785706 23.191650,302.546356 30.977879,327.321564 
	C36.443943,344.714172 41.736439,362.161530 47.239056,379.542450 
	C57.658855,412.455109 67.982155,445.400452 78.737961,478.203583 
	C83.456490,492.594208 86.467506,506.899689 86.226318,522.289490 
	C85.568321,564.275818 86.000000,606.279236 86.000000,648.275879 
	C86.000000,650.058533 86.000000,651.841248 86.000000,653.741699 
	C123.535156,653.741699 160.598099,653.741699 198.000000,653.741699 
	C198.000000,651.687988 198.000000,649.888489 198.000000,648.088989 
	C198.000000,601.259399 197.983566,554.429810 198.044357,507.600311 
	C198.047699,505.026733 198.317154,502.332611 199.102112,499.901001 
	C203.563599,486.080109 208.269043,472.338257 212.799683,458.539337 
	C223.873306,424.812500 234.881149,391.064117 245.945023,357.334106 
	C255.551743,328.046417 265.243896,298.786713 274.805786,269.484467 
	C278.519806,258.103027 281.980133,246.638794 285.622467,235.000000 
	C276.323303,235.000000 267.492767,235.000000 258.662231,235.000000 
	C232.164352,235.000000 205.666245,234.955582 179.169174,235.102493 
	C177.448914,235.112030 174.491531,236.286774 174.209671,237.435028 
	C170.585159,252.200287 167.232224,267.035583 164.033264,281.901031 
	C160.354065,298.998169 156.761154,316.116364 153.383667,333.275146 
	C150.407364,348.395721 147.777466,363.584503 144.998627,378.743896 
	C144.126678,383.500671 143.267853,388.259888 142.403030,393.017975 
	C140.854752,388.075134 140.688400,383.199524 139.927277,378.418579 
	C137.398407,362.534027 134.773682,346.662598 131.958786,330.826447 
	C129.575363,317.417694 126.946297,304.051270 124.300728,290.690887 
	C120.933601,273.686523 117.277306,256.737274 114.128258,239.693558 
	C113.433861,235.935287 112.141174,234.916595 108.491150,234.928650 
	C72.661079,235.046906 36.830463,235.000000 1.000000,235.000000 
M570.000000,534.500000 
	C570.000000,574.206360 570.000000,613.912659 570.000000,653.752686 
	C606.172852,653.752686 640.905823,653.752686 675.745361,653.752686 
	C675.745361,514.119080 675.745361,374.732941 675.745361,235.243332 
	C623.409058,235.243332 571.327637,235.243332 519.129028,235.243332 
	C510.252655,298.183899 501.407623,360.902222 492.562561,423.620514 
	C492.221375,423.682434 491.880157,423.744324 491.538940,423.806244 
	C481.624817,361.017487 471.710663,298.228729 461.786652,235.377441 
	C409.484436,235.377441 357.292206,235.377441 305.208008,235.377441 
	C305.208008,375.023285 305.208008,514.291626 305.208008,653.770996 
	C340.477966,653.770996 375.539886,653.770996 411.847961,653.770996 
	C411.847961,568.073608 411.847961,482.600769 411.847961,397.127899 
	C412.470581,397.096344 413.093231,397.064819 413.715851,397.033264 
	C427.227936,482.645264 440.740021,568.257202 454.219269,653.661133 
	C479.751587,653.661133 504.822327,653.661133 529.725708,653.661133 
	C542.709045,564.988403 555.640320,476.671326 568.571594,388.354248 
	C569.047729,388.415955 569.523865,388.477661 570.000000,388.539337 
	C570.000000,436.859558 570.000000,485.179779 570.000000,534.500000 
M902.500000,235.000000 
	C854.059692,235.000000 805.619446,235.000000 757.212219,235.000000 
	C736.791260,374.847900 716.446777,514.172424 696.068665,653.726807 
	C737.703369,653.726807 779.265686,653.726807 820.987427,653.726807 
	C823.365723,629.072388 825.719421,604.673096 828.084167,580.159729 
	C842.138123,580.159729 855.756958,580.159729 870.172668,580.159729 
	C872.271423,604.714417 874.370483,629.272766 876.457703,653.692871 
	C917.742737,653.692871 958.812744,653.692871 999.980286,653.692871 
	C997.607178,638.610596 995.398743,623.824036 992.933594,609.080383 
	C989.050720,585.856567 984.934509,562.671753 981.030396,539.451477 
	C977.285583,517.178467 973.681824,494.881622 970.021973,472.594299 
	C967.020264,454.314880 964.025574,436.034363 961.030457,417.753876 
	C957.693542,397.387573 954.295959,377.030945 951.042664,356.651276 
	C947.940674,337.219269 945.083313,317.747986 941.947510,298.321594 
	C938.737671,278.436890 935.311279,258.587189 932.005249,238.717911 
	C931.570374,236.104309 930.445312,234.855759 927.491943,234.930679 
	C919.499146,235.133408 911.497925,235.000046 902.500000,235.000000 
z"/>
<path fill="#E70E0F" opacity="1.000000" stroke="none" 
	d="
M1.000000,235.250000 
	C36.830463,235.000000 72.661079,235.046906 108.491150,234.928650 
	C112.141174,234.916595 113.433861,235.935287 114.128258,239.693558 
	C117.277306,256.737274 120.933601,273.686523 124.300728,290.690887 
	C126.946297,304.051270 129.575363,317.417694 131.958786,330.826447 
	C134.773682,346.662598 137.398407,362.534027 139.927277,378.418579 
	C140.688400,383.199524 140.854752,388.075134 142.403030,393.017975 
	C143.267853,388.259888 144.126678,383.500671 144.998627,378.743896 
	C147.777466,363.584503 150.407364,348.395721 153.383667,333.275146 
	C156.761154,316.116364 160.354065,298.998169 164.033264,281.901031 
	C167.232224,267.035583 170.585159,252.200287 174.209671,237.435028 
	C174.491531,236.286774 177.448914,235.112030 179.169174,235.102493 
	C205.666245,234.955582 232.164352,235.000000 258.662231,235.000000 
	C267.492767,235.000000 276.323303,235.000000 285.622467,235.000000 
	C281.980133,246.638794 278.519806,258.103027 274.805786,269.484467 
	C265.243896,298.786713 255.551743,328.046417 245.945023,357.334106 
	C234.881149,391.064117 223.873306,424.812500 212.799683,458.539337 
	C208.269043,472.338257 203.563599,486.080109 199.102112,499.901001 
	C198.317154,502.332611 198.047699,505.026733 198.044357,507.600311 
	C197.983566,554.429810 198.000000,601.259399 198.000000,648.088989 
	C198.000000,649.888489 198.000000,651.687988 198.000000,653.741699 
	C160.598099,653.741699 123.535156,653.741699 86.000000,653.741699 
	C86.000000,651.841248 86.000000,650.058533 86.000000,648.275879 
	C86.000000,606.279236 85.568321,564.275818 86.226318,522.289490 
	C86.467506,506.899689 83.456490,492.594208 78.737961,478.203583 
	C67.982155,445.400452 57.658855,412.455109 47.239056,379.542450 
	C41.736439,362.161530 36.443943,344.714172 30.977879,327.321564 
	C23.191650,302.546356 15.358841,277.785706 7.485890,253.037964 
	C5.688784,247.388962 3.646368,241.817993 1.358430,236.105560 
	C1.000000,236.000000 1.000000,235.500000 1.000000,235.250000 
z"/>
<path fill="#E70E0F" opacity="1.000000" stroke="none" 
	d="
M570.000000,534.000000 
	C570.000000,485.179779 570.000000,436.859558 570.000000,388.539337 
	C569.523865,388.477661 569.047729,388.415955 568.571594,388.354248 
	C555.640320,476.671326 542.709045,564.988403 529.725708,653.661133 
	C504.822327,653.661133 479.751587,653.661133 454.219269,653.661133 
	C440.740021,568.257202 427.227936,482.645264 413.715851,397.033264 
	C413.093231,397.064819 412.470581,397.096344 411.847961,397.127899 
	C411.847961,482.600769 411.847961,568.073608 411.847961,653.770996 
	C375.539886,653.770996 340.477966,653.770996 305.208008,653.770996 
	C305.208008,514.291626 305.208008,375.023285 305.208008,235.377441 
	C357.292206,235.377441 409.484436,235.377441 461.786652,235.377441 
	C471.710663,298.228729 481.624817,361.017487 491.538940,423.806244 
	C491.880157,423.744324 492.221375,423.682434 492.562561,423.620514 
	C501.407623,360.902222 510.252655,298.183899 519.129028,235.243332 
	C571.327637,235.243332 623.409058,235.243332 675.745361,235.243332 
	C675.745361,374.732941 675.745361,514.119080 675.745361,653.752686 
	C640.905823,653.752686 606.172852,653.752686 570.000000,653.752686 
	C570.000000,613.912659 570.000000,574.206360 570.000000,534.000000 
z"/>
<path fill="#E70E0F" opacity="1.000000" stroke="none" 
	d="
M903.000000,235.000000 
	C911.497925,235.000046 919.499146,235.133408 927.491943,234.930679 
	C930.445312,234.855759 931.570374,236.104309 932.005249,238.717911 
	C935.311279,258.587189 938.737671,278.436890 941.947510,298.321594 
	C945.083313,317.747986 947.940674,337.219269 951.042664,356.651276 
	C954.295959,377.030945 957.693542,397.387573 961.030457,417.753876 
	C964.025574,436.034363 967.020264,454.314880 970.021973,472.594299 
	C973.681824,494.881622 977.285583,517.178467 981.030396,539.451477 
	C984.934509,562.671753 989.050720,585.856567 992.933594,609.080383 
	C995.398743,623.824036 997.607178,638.610596 999.980286,653.692871 
	C958.812744,653.692871 917.742737,653.692871 876.457703,653.692871 
	C874.370483,629.272766 872.271423,604.714417 870.172668,580.159729 
	C855.756958,580.159729 842.138123,580.159729 828.084167,580.159729 
	C825.719421,604.673096 823.365723,629.072388 820.987427,653.726807 
	C779.265686,653.726807 737.703369,653.726807 696.068665,653.726807 
	C716.446777,514.172424 736.791260,374.847900 757.212219,235.000000 
	C805.619446,235.000000 854.059692,235.000000 903.000000,235.000000 
M857.000000,416.385284 
	C855.678528,403.856689 854.241028,391.338959 853.068298,378.796478 
	C851.906616,366.372620 851.025208,353.922668 849.984924,341.487183 
	C849.837952,339.729797 849.487427,337.989380 849.231079,336.241119 
	C844.307495,364.252594 839.819031,392.067871 836.146729,419.990417 
	C832.446594,448.124176 829.557312,476.364594 826.261841,505.000000 
	C834.012573,505.000000 840.483459,505.000000 846.954407,505.000000 
	C853.572510,505.000000 860.190613,505.000000 867.070068,505.000000 
	C866.325623,497.610840 865.750427,490.776794 864.927307,483.972717 
	C863.359802,471.014221 861.584351,458.080841 860.022827,445.121674 
	C858.907532,435.865265 858.000427,426.583771 857.000000,416.385284 
z"/>
<path fill="#FFFFFF" opacity="1.000000" stroke="none" 
	d="
M857.000244,416.849365 
	C858.000427,426.583771 858.907532,435.865265 860.022827,445.121674 
	C861.584351,458.080841 863.359802,471.014221 864.927307,483.972717 
	C865.750427,490.776794 866.325623,497.610840 867.070068,505.000000 
	C860.190613,505.000000 853.572510,505.000000 846.954407,505.000000 
	C840.483459,505.000000 834.012573,505.000000 826.261841,505.000000 
	C829.557312,476.364594 832.446594,448.124176 836.146729,419.990417 
	C839.819031,392.067871 844.307495,364.252594 849.231079,336.241119 
	C849.487427,337.989380 849.837952,339.729797 849.984924,341.487183 
	C851.025208,353.922668 851.906616,366.372620 853.068298,378.796478 
	C854.241028,391.338959 855.678528,403.856689 857.000244,416.849365 
z"/>
</svg>