<svg version="1.1" id="Layer_1" xmlns="http://www.w3.org/2000/svg" xmlns:xlink="http://www.w3.org/1999/xlink" x="0px" y="0px"
	 width="100%" viewBox="0 0 1000 1000" enable-background="new 0 0 1000 1000" xml:space="preserve">
<path fill="#FFFFFF" opacity="1.000000" stroke="none" 
	d="
M455.000000,1001.000000 
	C303.333344,1001.000000 152.166672,1001.000000 1.000000,1001.000000 
	C1.000000,667.666687 1.000000,334.333344 1.000000,1.000000 
	C334.333344,1.000000 667.666687,1.000000 1001.000000,1.000000 
	C1001.000000,334.333344 1001.000000,667.666687 1001.000000,1001.000000 
	C819.166687,1001.000000 637.333313,1001.000000 455.000000,1001.000000 
M375.815002,512.500000 
	C375.815002,523.251953 375.815002,534.003906 375.815002,544.714844 
	C397.561951,544.714844 418.640228,544.714844 440.101318,544.714844 
	C440.101318,489.059662 440.101318,433.689026 440.101318,378.318420 
	C440.471130,378.279327 440.840912,378.240234 441.210724,378.201141 
	C449.872314,433.769745 458.533936,489.338348 467.170837,544.748657 
	C482.688843,544.748657 497.638489,544.748657 512.739624,544.748657 
	C520.877808,488.569458 528.983643,432.614227 537.089417,376.658997 
	C537.544678,376.694458 538.000000,376.729919 538.455261,376.765381 
	C538.455261,432.702148 538.455261,488.638885 538.455261,544.593994 
	C560.306030,544.593994 581.505432,544.593994 602.584473,544.593994 
	C602.584473,458.586365 602.584473,372.985779 602.584473,287.298767 
	C570.577209,287.298767 538.842529,287.298767 507.151550,287.298767 
	C501.606171,326.275238 496.103455,364.951813 490.600739,403.628418 
	C490.160553,403.567627 489.720367,403.506836 489.280182,403.446045 
	C483.151978,364.716187 477.023743,325.986328 470.900421,287.287292 
	C438.927002,287.287292 407.510834,287.287292 375.815002,287.287292 
	C375.815002,362.216705 375.815002,436.858337 375.815002,512.500000 
M744.494995,286.999420 
	C714.360535,286.999420 684.226074,286.999420 653.648682,286.999420 
	C641.085510,373.037750 628.556519,458.841980 616.015320,544.729614 
	C641.556213,544.729614 666.640381,544.729614 691.809875,544.729614 
	C693.280884,529.452393 694.726929,514.434570 696.183411,499.307922 
	C705.284912,499.307922 714.024597,499.307922 722.923218,499.307922 
	C724.268066,514.613892 725.589355,529.651367 726.917603,544.768799 
	C752.060486,544.768799 776.820068,544.768799 801.782593,544.768799 
	C787.645813,458.733185 773.551453,372.955933 759.427612,286.999420 
	C754.463379,286.999420 749.977905,286.999420 744.494995,286.999420 
M154.500000,647.997559 
	C125.743446,647.997559 96.986893,647.997559 68.328407,647.997559 
	C68.328407,670.683289 68.328407,692.747253 68.328407,714.692261 
	C357.361603,714.692261 646.063721,714.692261 934.671387,714.692261 
	C934.671387,692.316528 934.671387,670.252563 934.671387,647.997559 
	C674.726990,647.997559 415.113495,647.997559 154.500000,647.997559 
M271.128723,360.305176 
	C266.581818,335.859558 262.034943,311.413971 257.517609,287.127289 
	C234.501053,287.127289 212.517715,287.127289 190.193558,287.127289 
	C190.722687,288.891571 191.172424,290.452942 191.658463,292.002930 
	C207.920303,343.860565 224.205292,395.711029 240.396301,447.590759 
	C241.270081,450.390656 241.744171,453.433807 241.754822,456.366089 
	C241.855316,484.031372 241.814606,511.697144 241.814590,539.362793 
	C241.814590,541.130859 241.814575,542.898987 241.814575,544.635620 
	C264.759369,544.635620 287.140228,544.635620 309.780792,544.635620 
	C309.780792,542.458740 309.780792,540.645325 309.780792,538.831909 
	C309.780792,511.166290 309.739746,483.500488 309.841034,455.835236 
	C309.851776,452.899200 310.308594,449.840485 311.212769,447.050751 
	C323.971252,407.685333 336.851196,368.359344 349.683075,329.017700 
	C354.203644,315.157898 358.673737,301.281647 363.252655,287.148193 
	C340.605164,287.148193 318.468567,287.148193 295.687653,287.148193 
	C288.874298,320.521271 282.064240,353.878357 275.304260,386.989899 
	C273.981018,378.575958 272.612091,369.871674 271.128723,360.305176 
M360.990295,572.596680 
	C360.990295,590.341370 360.990295,608.085999 360.990295,625.865112 
	C365.721008,625.865112 369.848328,625.865112 374.673279,625.865112 
	C374.673279,614.675110 374.673279,603.618958 374.673279,592.562744 
	C375.091980,592.537170 375.510651,592.511597 375.929352,592.486084 
	C377.421509,603.575500 378.913666,614.664978 380.401825,625.724792 
	C383.704193,625.724792 386.625702,625.724792 389.706238,625.724792 
	C391.013672,614.939331 392.289948,604.410767 393.566223,593.882202 
	C394.040894,593.893311 394.515533,593.904419 394.990204,593.915527 
	C394.990204,604.529846 394.990204,615.144104 394.990204,625.787842 
	C400.011169,625.787842 404.111847,625.787842 408.411072,625.787842 
	C408.411072,606.170654 408.411072,586.775635 408.411072,567.286011 
	C401.790833,567.286011 395.419922,567.286011 389.020447,567.286011 
	C387.836365,575.241516 386.694763,582.911682 385.553162,590.581848 
	C385.166931,590.554138 384.780701,590.526367 384.394470,590.498596 
	C383.155853,582.749146 381.917206,574.999695 380.663635,567.156616 
	C374.019409,567.156616 367.748779,567.156616 360.990295,567.156616 
	C360.990295,568.734863 360.990295,570.176819 360.990295,572.596680 
M792.303772,603.998291 
	C792.726990,600.609619 793.150208,597.220947 793.573425,593.832214 
	C794.119507,593.865479 794.665527,593.898743 795.211548,593.931946 
	C795.211548,604.574524 795.211548,615.217102 795.211548,625.689331 
	C800.202881,625.689331 804.285034,625.689331 808.329590,625.689331 
	C808.329590,605.976746 808.329590,586.586243 808.329590,567.171387 
	C801.712769,567.171387 795.423950,567.171387 789.028076,567.171387 
	C787.867432,575.068787 786.730469,582.805481 785.593506,590.542114 
	C785.198425,590.541626 784.803345,590.541199 784.408264,590.540710 
	C783.177612,582.827148 781.947021,575.113525 780.690796,567.239807 
	C774.091003,567.239807 767.689087,567.239807 761.221191,567.239807 
	C761.221191,586.887085 761.221191,606.283997 761.221191,625.731567 
	C765.678162,625.731567 769.898804,625.731567 774.858643,625.731567 
	C774.858643,614.557373 774.858643,603.652832 774.858643,592.748291 
	C775.234680,592.737244 775.610657,592.726196 775.986694,592.715210 
	C777.444824,603.682861 778.902893,614.650574 780.360046,625.611267 
	C783.674927,625.611267 786.710327,625.611267 789.726624,625.611267 
	C790.588928,618.448120 791.403809,611.678650 792.303772,603.998291 
M266.163879,605.499756 
	C266.163879,612.264709 266.163879,619.029663 266.163879,625.708008 
	C270.710663,625.708008 274.628082,625.708008 278.861450,625.708008 
	C278.861450,617.501038 278.861450,609.586792 278.861450,601.672546 
	C279.124878,601.623108 279.388336,601.573669 279.651764,601.524292 
	C282.128235,609.671631 284.604675,617.819031 287.053711,625.876099 
	C291.572083,625.876099 295.719757,625.876099 299.920502,625.876099 
	C299.920502,606.217407 299.920502,586.692383 299.920502,567.354614 
	C295.669830,567.354614 291.769653,567.354614 287.491394,567.354614 
	C287.491394,575.502075 287.491394,583.287415 287.491394,591.072693 
	C287.265472,591.100037 287.039551,591.127380 286.813629,591.154663 
	C284.176422,583.140381 281.539185,575.126160 278.963959,567.300232 
	C274.616608,567.300232 270.526825,567.300232 266.163879,567.300232 
	C266.163879,579.904236 266.163879,592.202026 266.163879,605.499756 
M471.263397,614.467163 
	C471.263397,598.710999 471.263397,582.954834 471.263397,567.303345 
	C466.772705,567.303345 462.850891,567.303345 458.581055,567.303345 
	C458.581055,575.430176 458.581055,583.249756 458.581055,591.069336 
	C458.335876,591.110168 458.090668,591.151001 457.845490,591.191833 
	C455.167603,583.105408 452.489716,575.018982 449.918213,567.253784 
	C445.399750,567.253784 441.459930,567.253784 437.437347,567.253784 
	C437.437347,586.906799 437.437347,606.297119 437.437347,625.753052 
	C441.629791,625.753052 445.544281,625.753052 450.001892,625.753052 
	C450.001892,617.602173 450.001892,609.688721 450.001892,601.775330 
	C450.250732,601.765442 450.499573,601.755615 450.748413,601.745728 
	C453.178894,609.802429 455.609375,617.859131 458.067596,626.007812 
	C460.468719,626.007812 462.628845,626.007812 464.789001,626.007812 
	C466.872192,626.007812 468.955383,626.007812 471.263367,626.007812 
	C471.263367,622.093689 471.263367,618.773132 471.263397,614.467163 
M484.559357,626.004272 
	C489.379181,626.004272 494.199860,626.061829 499.018677,625.992188 
	C508.859833,625.850037 512.105408,623.170349 512.372925,613.525452 
	C512.699768,601.746155 512.472717,589.943054 512.167969,578.158386 
	C512.022034,572.512939 508.554443,568.587036 503.043610,568.060303 
	C494.534607,567.246948 485.965729,567.059998 477.314880,566.601746 
	C477.314880,586.879150 477.314880,606.363953 477.314880,626.004272 
	C479.613983,626.004272 481.594757,626.004272 484.559357,626.004272 
M711.188232,626.003784 
	C721.921692,624.081543 723.295654,622.928589 723.526184,612.359741 
	C723.776123,600.903809 723.505676,589.428650 723.158264,577.971008 
	C722.995361,572.598083 719.605103,568.636658 714.345215,568.113037 
	C705.694946,567.251892 696.976746,567.073059 688.214783,566.602722 
	C688.214783,586.906189 688.214783,606.277527 688.214783,626.004272 
	C695.703979,626.004272 702.979431,626.004272 711.188232,626.003784 
M240.111771,576.527588 
	C240.111771,573.429260 240.111771,570.330933 240.111771,567.226257 
	C234.790497,567.226257 230.039078,567.226257 224.987366,567.226257 
	C224.987366,581.734741 224.886627,596.018921 225.019958,610.300964 
	C225.122284,621.259827 231.318497,626.933472 242.835495,627.001343 
	C253.877716,627.066406 259.928650,621.294067 260.019623,610.302246 
	C260.129852,596.979980 260.056183,583.656067 260.032654,570.332886 
	C260.030731,569.245544 259.802765,568.158508 259.701813,567.265747 
	C254.574554,567.265747 249.807022,567.265747 244.805161,567.265747 
	C244.805161,580.830078 244.809616,594.128723 244.800919,607.427307 
	C244.799393,609.757507 244.977295,612.126587 244.600067,614.399353 
	C244.441406,615.355286 243.055847,616.107544 242.228043,616.952393 
	C241.572922,616.130493 240.573914,615.394287 240.342590,614.466736 
	C239.988037,613.045044 240.120285,611.491577 240.118561,609.993958 
	C240.106049,599.168823 240.111816,588.343750 240.111771,576.527588 
M194.063034,625.845703 
	C195.350021,626.144470 196.631226,626.471436 197.924927,626.737610 
	C208.626587,628.939270 218.449722,622.570557 218.886902,612.502747 
	C219.348892,601.863342 219.307343,591.176331 218.897202,580.532715 
	C218.542328,571.322937 211.276749,565.786316 200.926758,565.998230 
	C190.796448,566.205688 184.238022,571.839966 184.004349,581.096924 
	C183.748062,591.250305 183.854889,601.415955 183.970795,611.574402 
	C184.046127,618.175659 187.014893,623.013184 194.063034,625.845703 
M310.111725,571.714172 
	C309.060425,574.628174 307.203369,577.514526 307.102020,580.461182 
	C306.730164,591.272766 306.771027,602.107971 306.996857,612.927185 
	C307.135101,619.549194 311.038544,624.026001 317.229950,626.205872 
	C322.946869,628.218811 327.485168,626.244202 331.472473,622.288330 
	C333.471924,628.896362 338.390137,624.812866 342.054321,626.117310 
	C342.054321,615.528259 342.054321,605.466736 342.054321,595.205444 
	C336.268494,595.205444 330.682587,595.205444 324.888519,595.205444 
	C324.888519,598.022522 323.894379,602.249023 325.060730,602.967285 
	C330.094208,606.066956 327.152863,610.254028 327.275085,613.888916 
	C327.308380,614.879395 325.350067,615.936890 324.305786,616.963623 
	C323.559357,615.849731 322.179962,614.744751 322.164276,613.620667 
	C322.004028,602.131104 322.002228,590.637512 322.170410,579.148193 
	C322.185852,578.094543 323.683319,577.062561 324.492584,576.020508 
	C325.317413,577.187439 326.713623,578.289917 326.853943,579.534058 
	C327.199249,582.594910 326.967010,585.720886 326.967010,588.792969 
	C332.354706,588.792969 337.125580,588.792969 341.871124,588.792969 
	C342.965973,577.165894 340.943878,571.808167 334.235260,568.298950 
	C326.614380,564.312561 317.422394,565.427795 310.111725,571.714172 
M574.985291,572.387634 
	C572.593140,590.112122 570.201050,607.836548 567.775818,625.806580 
	C573.097412,625.806580 578.017944,625.806580 583.003540,625.806580 
	C583.261169,622.186707 583.505188,618.757141 583.757019,615.217773 
	C586.178894,615.217773 588.265930,615.217773 590.869995,615.217773 
	C590.869995,618.822144 590.869995,622.226807 590.869995,625.734009 
	C596.287720,625.734009 601.181519,625.734009 606.312256,625.734009 
	C603.264771,605.973938 600.263977,586.516479 597.270386,567.105713 
	C589.814270,567.105713 583.006897,567.105713 576.033325,567.105713 
	C575.707703,568.617310 575.396423,570.062256 574.985291,572.387634 
M685.080933,624.550354 
	C682.153320,605.397644 679.225708,586.244934 676.323853,567.260742 
	C668.808105,567.260742 661.897461,567.260742 654.744019,567.260742 
	C652.068054,586.842041 649.423279,606.195496 646.743774,625.802979 
	C652.087646,625.802979 657.010315,625.802979 662.004944,625.802979 
	C662.260498,622.202942 662.503967,618.772034 662.756897,615.208923 
	C665.160950,615.208923 667.248962,615.208923 669.853027,615.208923 
	C669.853027,618.803833 669.853027,622.208191 669.853027,626.213196 
	C675.279846,625.957092 680.177795,625.725952 685.080933,624.550354 
M628.268433,627.003052 
	C642.218933,624.706116 646.153503,618.818237 644.677490,602.261230 
	C639.800415,602.261230 634.911316,602.261230 629.711243,602.261230 
	C629.711243,606.161743 629.987244,609.832458 629.564575,613.420898 
	C629.412659,614.710938 627.578796,615.802979 626.512634,616.985413 
	C625.702515,615.758667 624.209778,614.543274 624.189087,613.303406 
	C624.003723,602.161072 623.984558,591.012695 624.198303,579.871460 
	C624.223328,578.569153 625.952820,577.299438 626.892090,576.014587 
	C627.847107,577.272034 629.499207,578.463501 629.625671,579.799377 
	C629.995422,583.707825 629.757141,587.673828 629.757141,591.710571 
	C635.095520,591.710571 639.977051,591.710571 644.998230,591.710571 
	C644.998230,588.610474 645.122864,585.794312 644.976074,582.992310 
	C644.418335,572.348816 640.764038,568.212891 630.331238,566.234192 
	C617.926575,563.881348 609.083252,570.952026 608.872803,583.576782 
	C608.731384,592.057617 608.710144,600.546387 608.902832,609.025513 
	C609.193054,621.799500 614.468567,626.818420 628.268433,627.003052 
M528.809082,626.039062 
	C529.926819,626.290771 531.040771,626.560547 532.162842,626.791138 
	C539.808960,628.362061 549.506042,624.646667 551.794617,619.276917 
	C555.422913,610.763611 552.248779,598.762085 544.813416,593.318176 
	C541.870728,591.163635 538.293457,589.680664 535.859253,587.089478 
	C533.954834,585.062134 533.130493,581.861694 532.360657,579.036804 
	C532.165405,578.320251 534.006775,577.048523 534.912354,576.031921 
	C535.773499,577.024231 537.088501,577.895569 537.392456,579.036316 
	C537.882141,580.874756 537.705200,582.890747 537.801453,584.675781 
	C542.593262,584.675781 547.005249,584.675781 551.386597,584.675781 
	C552.106506,571.942871 549.137085,567.945129 537.853882,566.099609 
	C529.934448,564.804138 521.572876,568.153076 519.190430,573.574524 
	C515.582520,581.784424 518.015747,591.704041 524.987427,596.878784 
	C528.054016,599.155029 531.146301,601.416382 534.374756,603.449768 
	C538.215271,605.868591 538.903809,609.505066 538.203491,613.412720 
	C537.964478,614.746399 536.135803,615.795166 535.033508,616.974182 
	C534.169067,615.769043 532.745544,614.644836 532.556946,613.341858 
	C532.168640,610.658936 532.440186,607.880493 532.440186,605.381226 
	C527.295166,605.381226 522.903992,605.381226 518.548340,605.381226 
	C517.851318,618.495850 519.496399,621.965027 528.809082,626.039062 
M751.441284,613.996643 
	C749.500366,613.996643 747.559509,613.996643 745.546997,613.996643 
	C745.546997,609.394775 745.546997,605.331055 745.546997,600.948120 
	C748.774597,600.948120 751.712830,600.948120 754.687378,600.948120 
	C754.687378,597.092407 754.687378,593.572449 754.687378,589.720093 
	C751.391052,589.720093 748.458862,589.720093 745.583862,589.720093 
	C745.583862,585.974915 745.583862,582.579956 745.583862,578.861267 
	C749.021362,578.861267 752.130127,578.861267 755.373535,578.861267 
	C755.373535,574.787659 755.373535,571.049805 755.373535,567.210815 
	C746.853943,567.210815 738.607483,567.210815 730.362915,567.210815 
	C730.362915,586.933472 730.362915,606.439636 730.362915,625.638306 
	C739.298096,625.638306 747.865356,625.638306 756.430908,625.638306 
	C756.430908,621.664246 756.430908,618.058472 756.430908,614.193359 
	C754.944824,614.121338 753.657288,614.059021 751.441284,613.996643 
M152.492035,566.993469 
	C150.377502,566.993469 148.262970,566.993469 145.857391,566.993469 
	C150.551376,586.669617 159.644623,605.049438 156.133698,625.722534 
	C161.359512,625.722534 165.739777,625.722534 171.066559,625.722534 
	C166.971390,604.771790 177.053925,586.628357 181.454254,567.172607 
	C176.910904,567.172607 172.623352,567.172607 168.174866,567.172607 
	C166.727203,574.677856 165.289764,582.130127 163.852310,589.582458 
	C163.623688,589.579224 163.395065,589.575989 163.166428,589.572754 
	C161.871552,582.098633 160.576675,574.624512 159.254608,566.993469 
	C157.062469,566.993469 155.243134,566.993469 152.492035,566.993469 
M841.421143,588.067749 
	C843.469421,581.178467 845.517761,574.289185 847.623596,567.206421 
	C842.680237,567.206421 838.408569,567.206421 834.173157,567.206421 
	C832.708008,574.745972 831.283997,582.074097 829.859924,589.402283 
	C829.612854,589.380432 829.365845,589.358643 829.118835,589.336792 
	C827.824158,581.896545 826.529419,574.456299 825.257385,567.146301 
	C820.450073,567.146301 816.308960,567.146301 811.887512,567.146301 
	C816.594360,586.670959 825.634766,605.164978 822.222717,625.755127 
	C827.566650,625.755127 831.828857,625.755127 836.675354,625.755127 
	C835.367432,612.945496 836.754333,600.680298 841.421143,588.067749 
M430.263397,581.508789 
	C430.263397,576.739563 430.263397,571.970337 430.263397,567.295654 
	C424.958954,567.295654 420.204224,567.295654 415.478027,567.295654 
	C415.478027,586.992676 415.478027,606.384583 415.478027,625.727539 
	C420.536346,625.727539 425.276703,625.727539 430.263367,625.727539 
	C430.263367,611.134583 430.263367,596.820435 430.263397,581.508789 
z"/>
<path fill="#E70F10" opacity="1.000000" stroke="none" 
	d="
M375.815002,512.000000 
	C375.815002,436.858337 375.815002,362.216705 375.815002,287.287292 
	C407.510834,287.287292 438.927002,287.287292 470.900421,287.287292 
	C477.023743,325.986328 483.151978,364.716187 489.280182,403.446045 
	C489.720367,403.506836 490.160553,403.567627 490.600739,403.628418 
	C496.103455,364.951813 501.606171,326.275238 507.151550,287.298767 
	C538.842529,287.298767 570.577209,287.298767 602.584473,287.298767 
	C602.584473,372.985779 602.584473,458.586365 602.584473,544.593994 
	C581.505432,544.593994 560.306030,544.593994 538.455261,544.593994 
	C538.455261,488.638885 538.455261,432.702148 538.455261,376.765381 
	C538.000000,376.729919 537.544678,376.694458 537.089417,376.658997 
	C528.983643,432.614227 520.877808,488.569458 512.739624,544.748657 
	C497.638489,544.748657 482.688843,544.748657 467.170837,544.748657 
	C458.533936,489.338348 449.872314,433.769745 441.210724,378.201141 
	C440.840912,378.240234 440.471130,378.279327 440.101318,378.318420 
	C440.101318,433.689026 440.101318,489.059662 440.101318,544.714844 
	C418.640228,544.714844 397.561951,544.714844 375.815002,544.714844 
	C375.815002,534.003906 375.815002,523.251953 375.815002,512.000000 
z"/>
<path fill="#E70F10" opacity="1.000000" stroke="none" 
	d="
M744.993652,286.999420 
	C749.977905,286.999420 754.463379,286.999420 759.427612,286.999420 
	C773.551453,372.955933 787.645813,458.733185 801.782593,544.768799 
	C776.820068,544.768799 752.060486,544.768799 726.917603,544.768799 
	C725.589355,529.651367 724.268066,514.613892 722.923218,499.307922 
	C714.024597,499.307922 705.284912,499.307922 696.183411,499.307922 
	C694.726929,514.434570 693.280884,529.452393 691.809875,544.729614 
	C666.640381,544.729614 641.556213,544.729614 616.015320,544.729614 
	C628.556519,458.841980 641.085510,373.037750 653.648682,286.999420 
	C684.226074,286.999420 714.360535,286.999420 744.993652,286.999420 
M717.182861,419.128448 
	C714.716003,394.867157 712.249146,370.605896 709.782288,346.344635 
	C709.441589,346.333069 709.100952,346.321472 708.760254,346.309906 
	C704.030396,381.663849 699.300476,417.017761 694.519836,452.750916 
	C703.879517,452.750916 712.283508,452.750916 721.196838,452.750916 
	C719.888062,441.698914 718.604736,430.861420 717.182861,419.128448 
z"/>
<path fill="#E71011" opacity="1.000000" stroke="none" 
	d="
M155.000000,647.997559 
	C415.113495,647.997559 674.726990,647.997559 934.671387,647.997559 
	C934.671387,670.252563 934.671387,692.316528 934.671387,714.692261 
	C646.063721,714.692261 357.361603,714.692261 68.328407,714.692261 
	C68.328407,692.747253 68.328407,670.683289 68.328407,647.997559 
	C96.986893,647.997559 125.743446,647.997559 155.000000,647.997559 
M228.919769,690.064209 
	C225.493530,690.064209 222.067276,690.064209 218.223938,690.064209 
	C218.993927,695.518982 217.698822,700.814514 222.528687,704.386780 
	C227.343307,707.947815 236.607468,708.152710 241.408218,704.479248 
	C242.882050,703.351501 244.234909,701.499573 244.710190,699.728821 
	C247.024506,691.106567 244.691849,685.102661 237.350525,679.790405 
	C235.463394,678.424866 233.419632,677.253052 231.648544,675.754944 
	C228.790375,673.337280 228.899857,670.798706 232.329758,667.642456 
	C232.787964,669.969055 233.167450,671.895874 233.518921,673.680420 
	C237.209518,673.680420 240.621216,673.680420 245.394272,673.680420 
	C243.828400,669.544556 243.298782,665.490173 241.071854,662.888794 
	C237.765747,659.026794 228.001038,658.902588 223.156570,661.636719 
	C219.176819,663.882874 217.019791,669.116821 218.478714,675.293518 
	C219.153152,678.148865 221.084381,680.950928 223.105408,683.178833 
	C225.300735,685.599060 228.262589,687.324036 230.332306,689.737427 
	C230.158829,689.882263 229.985367,690.027161 228.919769,690.064209 
M457.463348,696.057739 
	C458.063995,691.307617 458.664612,686.557556 459.265259,681.807434 
	C459.583984,681.821594 459.902740,681.835754 460.221466,681.849915 
	C460.221466,689.853210 460.221466,697.856445 460.221466,705.648926 
	C464.079651,705.648926 467.323822,705.648926 470.429565,705.648926 
	C470.429565,690.581482 470.429565,675.879211 470.429565,661.380615 
	C465.129364,661.380615 460.222595,661.380615 455.423248,661.380615 
	C454.520294,667.330200 453.677338,672.884644 452.834351,678.439148 
	C452.622620,678.419067 452.410858,678.398926 452.199097,678.378845 
	C451.275452,672.688416 450.351807,666.997986 449.427368,661.302673 
	C444.196472,661.302673 439.303833,661.302673 434.424866,661.302673 
	C434.424866,676.333679 434.424866,691.048889 434.424866,705.693604 
	C437.998352,705.693604 441.243011,705.693604 444.914124,705.693604 
	C444.914124,697.784180 444.914124,690.184814 444.914124,682.585510 
	C445.182068,682.568542 445.450012,682.551575 445.717957,682.534607 
	C446.755157,690.318848 447.792328,698.103149 448.824799,705.851929 
	C451.527435,705.851929 453.662018,705.851929 456.154083,705.851929 
	C456.538300,702.807190 456.908722,699.872009 457.463348,696.057739 
M300.962036,686.841125 
	C301.027618,685.455139 301.093231,684.069153 301.158813,682.683167 
	C301.362122,682.674438 301.565430,682.665710 301.768738,682.656982 
	C302.764160,690.343811 303.759613,698.030701 304.768311,705.819885 
	C307.352600,705.819885 309.639679,705.819885 312.151184,705.819885 
	C313.209900,697.716919 314.248413,689.768250 315.286957,681.819580 
	C315.586151,681.840027 315.885376,681.860474 316.184570,681.880920 
	C316.184570,689.809875 316.184570,697.738892 316.184570,705.747314 
	C319.904602,705.747314 323.146454,705.747314 326.523926,705.747314 
	C326.523926,690.770447 326.523926,676.058655 326.523926,661.287476 
	C321.319458,661.287476 316.411255,661.287476 311.442108,661.287476 
	C310.538971,667.252319 309.678131,672.937866 308.817291,678.623474 
	C308.631317,678.619446 308.445343,678.615479 308.259369,678.611511 
	C307.300079,672.779907 306.340759,666.948242 305.426147,661.388306 
	C300.024139,661.388306 295.128876,661.388306 290.335510,661.388306 
	C290.335510,676.379089 290.335510,690.969543 290.335510,705.605591 
	C293.930267,705.605591 297.278198,705.605591 300.961975,705.605591 
	C300.961975,699.390564 300.961975,693.578186 300.962036,686.841125 
M260.170715,699.453857 
	C260.170837,696.457764 260.016724,693.449768 260.248138,690.471619 
	C260.338989,689.302185 261.292725,688.199829 261.853485,687.066895 
	C262.338715,688.268250 263.203430,689.457336 263.242645,690.673096 
	C263.402313,695.624268 263.309113,700.583557 263.309113,705.767944 
	C267.517975,705.767944 271.253113,705.767944 275.148773,705.767944 
	C275.148773,690.805054 275.148773,676.045593 275.148773,661.298218 
	C271.164612,661.298218 267.419769,661.298218 263.307861,661.298218 
	C263.307861,666.062073 263.404266,670.532227 263.234161,674.992249 
	C263.195862,675.996826 262.227997,676.966003 261.688080,677.951477 
	C261.182556,676.923462 260.277252,675.909424 260.240540,674.864929 
	C260.080017,670.299072 260.171478,665.724365 260.171478,661.247314 
	C255.822418,661.247314 252.222992,661.247314 248.473541,661.247314 
	C248.473541,676.218140 248.473541,690.931641 248.473541,705.690979 
	C252.492767,705.690979 256.221863,705.690979 260.170715,705.690979 
	C260.170715,703.725708 260.170715,702.077454 260.170715,699.453857 
M707.672974,706.017334 
	C709.767883,706.017334 711.862732,706.017334 714.089722,706.017334 
	C714.089722,699.923218 714.089722,694.464417 714.089722,689.005554 
	C715.722412,691.708374 716.723938,694.593445 717.625183,697.509521 
	C720.380371,706.424438 720.365601,706.433105 729.574463,705.867004 
	C729.844055,705.850403 730.095520,705.539490 730.370972,705.355408 
	C730.370972,690.650269 730.370972,675.938660 730.370972,661.269897 
	C726.944824,661.269897 723.855713,661.269897 720.181396,661.269897 
	C720.181396,666.478394 720.181396,671.422241 720.181396,676.366028 
	C719.894958,676.380310 719.608521,676.394592 719.322083,676.408875 
	C717.594543,671.292053 715.866943,666.175293 714.215881,661.285034 
	C710.703186,661.285034 707.615051,661.285034 704.180237,661.285034 
	C704.180237,675.526062 704.134155,689.468262 704.289612,703.408203 
	C704.299377,704.286255 705.881958,705.146667 707.672974,706.017334 
M827.704651,664.779541 
	C826.981812,656.403442 820.781555,663.627075 817.371277,661.328430 
	C817.371277,666.357605 817.371277,671.386780 817.371277,676.416016 
	C814.911499,672.233582 813.624817,667.833862 811.919739,663.602783 
	C811.461548,662.465942 809.820374,661.312561 808.563171,661.097839 
	C806.224548,660.698425 803.769104,660.983215 801.404907,660.983215 
	C801.404907,676.358459 801.404907,690.938721 801.404907,705.765747 
	C804.689575,705.765747 807.745544,705.765747 811.163086,705.765747 
	C811.163086,700.039673 811.163086,694.549744 811.163086,689.059814 
	C811.410400,689.021729 811.657715,688.983643 811.905029,688.945618 
	C813.673889,694.566895 815.442688,700.188171 817.199829,705.772217 
	C820.714050,705.772217 823.979492,705.772217 827.704712,705.772217 
	C827.704712,692.263000 827.704712,678.993713 827.704651,664.779541 
M143.174210,661.010437 
	C140.393219,661.010437 137.612244,661.010437 134.259338,661.010437 
	C134.259338,666.427429 134.259338,671.404358 134.259338,676.381226 
	C132.457932,673.852417 131.614227,671.221436 130.757965,668.594604 
	C128.021973,660.201111 127.987679,660.180237 118.961143,661.194763 
	C118.833328,661.209106 118.725357,661.400146 118.456635,661.649109 
	C118.456635,676.220886 118.456635,690.931885 118.456635,705.710693 
	C121.807259,705.710693 124.868797,705.710693 128.304535,705.710693 
	C128.304535,699.972778 128.304535,694.531616 128.304535,689.090393 
	C129.824463,691.849243 130.747559,694.656311 131.617126,697.479858 
	C134.367783,706.411255 134.360275,706.417542 143.546860,705.875427 
	C143.822357,705.859131 144.081604,705.567871 144.704880,705.186951 
	C144.704880,695.270569 144.769669,685.149780 144.675720,675.030457 
	C144.633011,670.430298 144.276093,665.833069 143.174210,661.010437 
M379.686249,663.795044 
	C372.011688,658.937744 363.642700,661.761292 355.525696,661.002930 
	C355.525696,676.331421 355.525696,691.048157 355.525696,705.974609 
	C362.011200,705.974609 368.212555,706.443787 374.283264,705.757507 
	C376.934143,705.457825 381.402618,702.893372 381.485779,701.184204 
	C382.048096,689.627991 381.680176,678.025024 381.517517,666.438538 
	C381.507629,665.734619 380.678772,665.042236 379.686249,663.795044 
M536.691284,674.743774 
	C536.527100,669.351685 536.765747,663.187317 529.928589,661.992432 
	C523.218384,660.819885 516.257202,661.083801 509.421387,660.718201 
	C509.421387,676.368774 509.421387,690.945129 509.421387,706.009705 
	C515.252686,706.009705 520.862122,706.067932 526.469910,705.995361 
	C533.909912,705.898987 536.293030,703.689270 536.562378,696.140686 
	C536.805359,689.330444 536.663818,682.506531 536.691284,674.743774 
M859.179382,688.498474 
	C859.179382,694.264954 859.179382,700.031494 859.179382,705.638611 
	C863.601501,705.638611 867.330383,705.638611 871.542480,705.638611 
	C871.542480,698.905762 871.542480,692.550171 871.542480,685.454041 
	C875.896301,688.484497 874.031433,692.259827 874.313904,695.386353 
	C874.623291,698.810364 874.384338,702.283997 874.384338,705.752808 
	C878.407227,705.752808 881.836060,705.752808 885.911194,705.752808 
	C884.367981,697.943176 888.785278,689.602356 881.895020,682.963257 
	C887.177917,678.407349 886.244995,672.575806 884.695251,666.983276 
	C883.223206,661.671326 878.487976,661.061462 873.813354,661.000061 
	C869.047058,660.937439 864.279175,660.986267 859.179443,660.986267 
	C859.179443,670.238464 859.179443,678.868835 859.179382,688.498474 
M165.886719,660.182495 
	C153.027466,659.392578 149.037003,663.123047 148.997253,676.018982 
	C148.978271,682.179504 149.065323,688.340698 148.999146,694.500488 
	C148.946579,699.392456 150.605392,703.375732 155.025940,705.726135 
	C159.458878,708.083130 163.688477,707.504822 166.347626,704.928467 
	C170.154831,705.476440 172.985809,705.883911 176.144379,706.338501 
	C176.144379,697.934082 176.144379,690.173767 176.144379,682.276733 
	C171.575836,682.276733 167.182159,682.276733 162.752258,682.276733 
	C160.717667,687.933289 168.335861,693.519104 162.608475,699.087036 
	C159.895844,694.688965 160.260239,670.772705 163.637619,667.501099 
	C164.016464,671.240784 164.334900,674.384216 164.679825,677.789001 
	C166.028793,677.863953 167.318588,677.980347 168.609741,677.997742 
	C171.060715,678.030884 173.512451,678.007385 175.907196,678.007385 
	C177.085526,667.321106 175.120148,663.668457 165.886719,660.182495 
M403.141693,661.808105 
	C403.143005,673.129333 402.988037,684.453491 403.201935,695.770752 
	C403.339020,703.024658 408.417755,706.984070 416.844025,707.002991 
	C424.977356,707.021240 429.632568,703.120972 429.913849,695.866272 
	C430.075012,691.709045 429.994659,687.541992 430.000275,683.379333 
	C430.010315,675.961548 430.003113,668.543701 430.003113,661.222839 
	C425.695496,661.222839 422.085693,661.222839 418.155029,661.222839 
	C417.762848,673.890747 418.429138,686.412842 417.792206,698.859924 
	C416.963593,698.854919 416.135010,698.849915 415.306396,698.844910 
	C415.306396,686.254578 415.306396,673.664307 415.306396,661.126343 
	C410.783478,661.126343 407.292480,661.126343 403.141693,661.808105 
M541.154236,695.974670 
	C542.321716,703.678772 546.542847,707.028564 555.051270,707.002991 
	C562.180298,706.981567 567.531921,703.512817 567.726807,697.647522 
	C568.128540,685.558228 567.847717,673.446289 567.847717,661.303345 
	C563.771545,661.303345 560.047852,661.303345 555.456177,661.303345 
	C555.456177,674.038025 555.456177,686.478394 555.456177,698.918701 
	C554.672546,698.927917 553.888977,698.937073 553.105347,698.946289 
	C553.071289,692.830566 553.023254,686.714966 553.006958,680.599182 
	C552.989807,674.163086 553.003052,667.726868 553.003052,661.327942 
	C548.722046,661.327942 544.998291,661.327942 541.115356,661.327942 
	C541.115356,672.796509 541.115356,683.935364 541.154236,695.974670 
M672.991272,675.642090 
	C673.018982,682.285950 672.892761,688.934937 673.115784,695.572205 
	C673.360840,702.864990 678.388062,707.005371 686.556396,707.008850 
	C694.758179,707.012329 699.734497,702.915894 699.923096,695.565002 
	C700.127319,687.602234 700.100159,679.627686 699.935303,671.663147 
	C699.795654,664.915466 695.488892,660.602051 688.771057,660.016052 
	C679.730225,659.227478 672.136414,663.238708 672.991272,675.642090 
M757.803528,659.998840 
	C749.119141,661.522888 746.079102,664.994202 746.012695,673.739258 
	C745.958252,680.899902 745.886658,688.067932 746.143250,695.221252 
	C746.370544,701.558533 749.259766,705.090332 754.743896,706.587708 
	C761.350708,708.391663 769.404541,706.393250 771.631958,701.305359 
	C773.466064,697.115967 773.626465,692.193909 774.587952,687.294189 
	C769.657776,687.294189 765.932617,687.294189 762.454529,687.294189 
	C761.941040,691.454224 761.469299,695.275452 760.997620,699.096741 
	C760.309265,699.252686 759.620911,699.408630 758.932617,699.564575 
	C758.668152,698.938477 758.180115,698.315002 758.172852,697.685913 
	C758.066833,688.532837 757.986450,679.378723 758.043091,670.225830 
	C758.047546,669.508545 759.115723,668.797913 759.689514,668.084167 
	C760.397034,668.828491 761.653809,669.530518 761.715027,670.324585 
	C761.953125,673.417297 761.812073,676.539124 761.812073,679.680054 
	C766.198059,679.680054 769.918030,679.680054 773.602173,679.680054 
	C774.764099,664.792908 771.127258,660.086121 757.803528,659.998840 
M590.719238,679.998718 
	C593.997314,679.998718 597.275391,679.998718 601.200989,679.998718 
	C600.781616,675.655701 600.788208,671.822205 599.973633,668.171997 
	C598.641785,662.203491 593.120056,659.419678 584.818970,659.998657 
	C578.384827,660.447510 573.428833,664.428040 573.207336,670.225464 
	C572.877197,678.867371 572.900818,687.542603 573.253784,696.184021 
	C573.499756,702.208252 576.967407,705.643677 582.690613,706.755920 
	C589.868164,708.150879 597.275818,705.741882 599.150818,700.510742 
	C600.605591,696.451904 600.668701,691.894409 601.394836,687.275757 
	C596.696411,687.275757 592.972900,687.275757 589.447754,687.275757 
	C588.942444,691.415833 588.474792,695.247192 588.007202,699.078491 
	C587.466736,699.073120 586.926331,699.067688 586.385864,699.062317 
	C585.912781,698.296509 585.037659,697.535767 585.027954,696.764099 
	C584.919067,688.108521 584.877991,679.450134 585.027649,670.796143 
	C585.043457,669.879883 586.388672,668.986633 587.117126,668.082703 
	C587.702515,668.968262 588.653381,669.795471 588.805786,670.750183 
	C589.289795,673.781738 589.476074,676.860840 590.719238,679.998718 
M627.638794,681.789001 
	C626.537354,674.932190 625.435852,668.075378 624.322693,661.145752 
	C618.659058,661.145752 613.365906,661.145752 607.694214,661.145752 
	C605.669006,676.002197 603.657715,690.756836 601.636047,705.587830 
	C605.966003,705.587830 609.831299,705.587830 613.667542,705.587830 
	C613.806946,702.886414 613.924500,700.607178 614.040344,698.362427 
	C615.973022,698.362427 617.516235,698.362427 619.035583,698.362427 
	C619.176453,700.998718 619.298584,703.284485 619.427246,705.692688 
	C623.499451,705.692688 627.216187,705.692688 631.183228,705.692688 
	C630.010254,697.784668 628.888550,690.221924 627.638794,681.789001 
M111.261642,660.990906 
	C105.668381,660.990906 100.075119,660.990906 94.570625,660.990906 
	C94.570625,676.387146 94.570625,691.104614 94.570625,705.606323 
	C101.534012,705.606323 108.107346,705.606323 114.546478,705.606323 
	C114.546478,702.592224 114.546478,699.985535 114.546478,697.171997 
	C111.708191,697.038025 109.122749,696.916077 106.486259,696.791626 
	C106.486259,693.370789 106.486259,690.305542 106.486259,687.187317 
	C108.916283,687.046753 111.036255,686.924072 113.331444,686.791321 
	C113.331444,683.809570 113.331444,681.059448 113.331444,678.214233 
	C110.823250,678.032959 108.581566,677.870972 106.413025,677.714294 
	C106.413025,674.979675 106.413025,672.709412 106.413025,670.225220 
	C109.023529,670.060669 111.416939,669.909790 114.856071,669.693054 
	C113.846512,666.375427 113.028923,663.688660 111.261642,660.990906 
M789.172119,692.461548 
	C789.172119,690.709106 789.172119,688.956665 789.172119,687.202332 
	C791.973328,687.036255 794.082458,686.911255 796.322388,686.778503 
	C796.322388,683.766357 796.322388,681.023560 796.322388,678.208435 
	C793.806885,678.028076 791.569275,677.867615 789.410034,677.712769 
	C789.410034,674.975769 789.410034,672.710632 789.410034,670.237061 
	C792.015503,670.066345 794.401733,669.909973 796.598633,669.765991 
	C796.598633,666.596069 796.598633,663.876160 796.598633,661.304565 
	C789.996521,661.304565 783.762146,661.304565 777.498047,661.304565 
	C777.498047,676.314331 777.498047,691.007507 777.498047,705.697754 
	C784.372375,705.697754 790.931030,705.697754 797.474365,705.697754 
	C797.474365,702.650269 797.474365,699.930847 797.474365,697.881226 
	C794.884460,695.101990 788.976074,700.550110 789.172119,692.461548 
M486.186676,700.346680 
	C486.186676,702.120972 486.186676,703.895264 486.186676,705.693665 
	C493.354706,705.693665 499.925842,705.693665 506.462158,705.693665 
	C506.462158,702.638794 506.462158,699.911682 506.462158,697.167114 
	C503.525116,697.011230 500.938110,696.873901 498.409485,696.739624 
	C498.409485,693.309082 498.409485,690.369263 498.409485,687.243958 
	C500.858185,687.061951 503.087646,686.896240 505.222717,686.737549 
	C505.222717,683.623108 505.222717,680.908752 505.222717,678.148010 
	C502.735413,678.012817 500.627106,677.898193 498.498413,677.782532 
	C498.498413,675.037292 498.498413,672.644104 498.498413,669.874390 
	C501.090973,669.874390 503.363434,669.874390 505.669708,669.874390 
	C505.669708,666.752625 505.669708,664.024231 505.669708,661.251953 
	C499.125244,661.251953 492.874481,661.251953 486.186676,661.251953 
	C486.186676,674.133301 486.186676,686.757629 486.186676,700.346680 
M889.292908,705.086670 
	C896.057373,705.504883 902.821777,705.923035 909.575806,706.340576 
	C909.575806,702.642151 909.575806,700.042908 909.575806,697.183350 
	C906.777527,697.051147 904.198303,696.929260 901.440735,696.798950 
	C901.440735,693.472473 901.440735,690.415100 901.440735,687.268494 
	C903.920349,687.064941 906.147339,686.882080 908.384888,686.698364 
	C908.384888,683.679199 908.384888,681.075012 908.384888,678.227966 
	C905.956848,678.065491 903.719177,677.915833 901.501221,677.767395 
	C901.501221,675.018982 901.501221,672.631653 901.501221,669.876465 
	C904.089478,669.876465 906.348450,669.876465 908.684448,669.876465 
	C908.684448,666.768616 908.684448,664.045959 908.684448,661.402832 
	C902.049194,661.402832 895.699402,661.402832 889.200317,661.402832 
	C889.200317,675.926086 889.200317,690.036987 889.292908,705.086670 
M350.589630,679.870056 
	C348.282471,678.934998 345.975311,677.999939 343.501129,676.997192 
	C343.501129,675.020508 343.501129,672.632446 343.501129,669.875366 
	C346.090088,669.875366 348.349731,669.875366 350.682007,669.875366 
	C350.682007,666.766602 350.682007,664.043213 350.682007,661.219849 
	C344.161316,661.219849 337.921051,661.219849 331.434601,661.219849 
	C331.434601,676.144348 331.434601,690.839050 331.434601,705.594727 
	C338.348175,705.594727 345.020752,705.594727 351.543213,705.594727 
	C351.543213,702.568665 351.543213,699.966553 351.543213,697.171143 
	C348.706451,697.037720 346.126343,696.916321 343.473999,696.791626 
	C343.473999,693.388733 343.473999,690.329834 343.473999,687.193542 
	C345.887207,687.056274 348.004364,686.935913 350.603333,686.788086 
	C350.603333,684.658630 350.603333,682.703247 350.589630,679.870056 
M647.004272,675.620483 
	C647.004272,673.842590 647.004272,672.064636 647.004272,670.227478 
	C649.586487,670.034241 651.656433,669.879333 653.614624,669.732788 
	C653.614624,666.644775 653.614624,663.923950 653.614624,661.288452 
	C645.032410,661.288452 636.793518,661.288452 628.520020,661.288452 
	C628.520020,664.315552 628.520020,667.037476 628.520020,670.078247 
	C630.784180,670.078247 632.722900,670.078247 635.113220,670.078247 
	C635.113220,682.113953 635.113220,693.833252 635.113220,705.723145 
	C639.287292,705.723145 642.998840,705.723145 647.004272,705.723145 
	C647.004272,695.827087 647.004272,686.209778 647.004272,675.620483 
M853.396912,670.002991 
	C859.163513,668.191101 854.432251,664.108582 855.910889,661.282288 
	C847.049133,661.282288 838.808350,661.282288 830.515381,661.282288 
	C830.515381,664.301392 830.515381,667.024841 830.515381,670.068237 
	C832.775085,670.068237 834.714050,670.068237 837.108887,670.068237 
	C837.108887,682.108459 837.108887,693.830078 837.108887,705.722046 
	C841.287842,705.722046 845.000061,705.722046 849.004517,705.722046 
	C849.004517,694.823608 849.089539,684.203430 848.945984,673.586426 
	C848.909058,670.857544 849.557922,669.498718 853.396912,670.002991 
M185.585663,660.992615 
	C183.850220,660.992615 182.114777,660.992615 180.430206,660.992615 
	C180.430206,676.375854 180.430206,690.954468 180.430206,705.747803 
	C186.726700,705.747803 192.782791,705.747803 198.885086,705.747803 
	C198.885086,702.751282 198.885086,700.020447 198.885086,697.216003 
	C196.546738,697.022949 194.481735,696.852478 191.962097,696.644470 
	C191.962097,684.608521 191.962097,672.901306 191.962097,660.992615 
	C189.824112,660.992615 188.177551,660.992615 185.585663,660.992615 
M669.008667,680.500366 
	C669.008667,674.081238 669.008667,667.662048 669.008667,661.226440 
	C664.835449,661.226440 661.249817,661.226440 657.433716,661.226440 
	C657.433716,676.157471 657.433716,690.853271 657.433716,705.690857 
	C661.383728,705.690857 665.084167,705.690857 669.008667,705.690857 
	C669.008667,697.416321 669.008667,689.458252 669.008667,680.500366 
M387.188660,695.468262 
	C387.188660,698.896301 387.188660,702.324341 387.188660,705.781738 
	C391.429993,705.781738 395.021027,705.781738 398.628174,705.781738 
	C398.628174,690.729797 398.628174,675.907776 398.628174,661.321228 
	C394.656342,661.321228 391.071503,661.321228 387.188690,661.321228 
	C387.188690,672.591003 387.188690,683.533508 387.188660,695.468262 
M202.188675,687.499268 
	C202.188675,693.587524 202.188675,699.675781 202.188675,705.779419 
	C206.434799,705.779419 210.025925,705.779419 213.626465,705.779419 
	C213.626465,690.726440 213.626465,675.905884 213.626465,661.322266 
	C209.656342,661.322266 206.071960,661.322266 202.188705,661.322266 
	C202.188705,669.932739 202.188705,678.216125 202.188675,687.499268 
z"/>
<path fill="#E70F10" opacity="1.000000" stroke="none" 
	d="
M271.185944,360.736267 
	C272.612091,369.871674 273.981018,378.575958 275.304260,386.989899 
	C282.064240,353.878357 288.874298,320.521271 295.687653,287.148193 
	C318.468567,287.148193 340.605164,287.148193 363.252655,287.148193 
	C358.673737,301.281647 354.203644,315.157898 349.683075,329.017700 
	C336.851196,368.359344 323.971252,407.685333 311.212769,447.050751 
	C310.308594,449.840485 309.851776,452.899200 309.841034,455.835236 
	C309.739746,483.500488 309.780792,511.166290 309.780792,538.831909 
	C309.780792,540.645325 309.780792,542.458740 309.780792,544.635620 
	C287.140228,544.635620 264.759369,544.635620 241.814575,544.635620 
	C241.814575,542.898987 241.814590,541.130859 241.814590,539.362793 
	C241.814606,511.697144 241.855316,484.031372 241.754822,456.366089 
	C241.744171,453.433807 241.270081,450.390656 240.396301,447.590759 
	C224.205292,395.711029 207.920303,343.860565 191.658463,292.002930 
	C191.172424,290.452942 190.722687,288.891571 190.193558,287.127289 
	C212.517715,287.127289 234.501053,287.127289 257.517609,287.127289 
	C262.034943,311.413971 266.581818,335.859558 271.185944,360.736267 
z"/>
<path fill="#050505" opacity="1.000000" stroke="none" 
	d="
M360.990295,572.107727 
	C360.990295,570.176819 360.990295,568.734863 360.990295,567.156616 
	C367.748779,567.156616 374.019409,567.156616 380.663635,567.156616 
	C381.917206,574.999695 383.155853,582.749146 384.394470,590.498596 
	C384.780701,590.526367 385.166931,590.554138 385.553162,590.581848 
	C386.694763,582.911682 387.836365,575.241516 389.020447,567.286011 
	C395.419922,567.286011 401.790833,567.286011 408.411072,567.286011 
	C408.411072,586.775635 408.411072,606.170654 408.411072,625.787842 
	C404.111847,625.787842 400.011169,625.787842 394.990204,625.787842 
	C394.990204,615.144104 394.990204,604.529846 394.990204,593.915527 
	C394.515533,593.904419 394.040894,593.893311 393.566223,593.882202 
	C392.289948,604.410767 391.013672,614.939331 389.706238,625.724792 
	C386.625702,625.724792 383.704193,625.724792 380.401825,625.724792 
	C378.913666,614.664978 377.421509,603.575500 375.929352,592.486084 
	C375.510651,592.511597 375.091980,592.537170 374.673279,592.562744 
	C374.673279,603.618958 374.673279,614.675110 374.673279,625.865112 
	C369.848328,625.865112 365.721008,625.865112 360.990295,625.865112 
	C360.990295,608.085999 360.990295,590.341370 360.990295,572.107727 
z"/>
<path fill="#050505" opacity="1.000000" stroke="none" 
	d="
M792.261230,604.453735 
	C791.403809,611.678650 790.588928,618.448120 789.726624,625.611267 
	C786.710327,625.611267 783.674927,625.611267 780.360046,625.611267 
	C778.902893,614.650574 777.444824,603.682861 775.986694,592.715210 
	C775.610657,592.726196 775.234680,592.737244 774.858643,592.748291 
	C774.858643,603.652832 774.858643,614.557373 774.858643,625.731567 
	C769.898804,625.731567 765.678162,625.731567 761.221191,625.731567 
	C761.221191,606.283997 761.221191,586.887085 761.221191,567.239807 
	C767.689087,567.239807 774.091003,567.239807 780.690796,567.239807 
	C781.947021,575.113525 783.177612,582.827148 784.408264,590.540710 
	C784.803345,590.541199 785.198425,590.541626 785.593506,590.542114 
	C786.730469,582.805481 787.867432,575.068787 789.028076,567.171387 
	C795.423950,567.171387 801.712769,567.171387 808.329590,567.171387 
	C808.329590,586.586243 808.329590,605.976746 808.329590,625.689331 
	C804.285034,625.689331 800.202881,625.689331 795.211548,625.689331 
	C795.211548,615.217102 795.211548,604.574524 795.211548,593.931946 
	C794.665527,593.898743 794.119507,593.865479 793.573425,593.832214 
	C793.150208,597.220947 792.726990,600.609619 792.261230,604.453735 
z"/>
<path fill="#040404" opacity="1.000000" stroke="none" 
	d="
M266.163879,604.999756 
	C266.163879,592.202026 266.163879,579.904236 266.163879,567.300232 
	C270.526825,567.300232 274.616608,567.300232 278.963959,567.300232 
	C281.539185,575.126160 284.176422,583.140381 286.813629,591.154663 
	C287.039551,591.127380 287.265472,591.100037 287.491394,591.072693 
	C287.491394,583.287415 287.491394,575.502075 287.491394,567.354614 
	C291.769653,567.354614 295.669830,567.354614 299.920502,567.354614 
	C299.920502,586.692383 299.920502,606.217407 299.920502,625.876099 
	C295.719757,625.876099 291.572083,625.876099 287.053711,625.876099 
	C284.604675,617.819031 282.128235,609.671631 279.651764,601.524292 
	C279.388336,601.573669 279.124878,601.623108 278.861450,601.672546 
	C278.861450,609.586792 278.861450,617.501038 278.861450,625.708008 
	C274.628082,625.708008 270.710663,625.708008 266.163879,625.708008 
	C266.163879,619.029663 266.163879,612.264709 266.163879,604.999756 
z"/>
<path fill="#040404" opacity="1.000000" stroke="none" 
	d="
M471.263367,614.959900 
	C471.263367,618.773132 471.263367,622.093689 471.263367,626.007812 
	C468.955383,626.007812 466.872192,626.007812 464.789001,626.007812 
	C462.628845,626.007812 460.468719,626.007812 458.067596,626.007812 
	C455.609375,617.859131 453.178894,609.802429 450.748413,601.745728 
	C450.499573,601.755615 450.250732,601.765442 450.001892,601.775330 
	C450.001892,609.688721 450.001892,617.602173 450.001892,625.753052 
	C445.544281,625.753052 441.629791,625.753052 437.437347,625.753052 
	C437.437347,606.297119 437.437347,586.906799 437.437347,567.253784 
	C441.459930,567.253784 445.399750,567.253784 449.918213,567.253784 
	C452.489716,575.018982 455.167603,583.105408 457.845490,591.191833 
	C458.090668,591.151001 458.335876,591.110168 458.581055,591.069336 
	C458.581055,583.249756 458.581055,575.430176 458.581055,567.303345 
	C462.850891,567.303345 466.772705,567.303345 471.263397,567.303345 
	C471.263397,582.954834 471.263397,598.710999 471.263367,614.959900 
z"/>
<path fill="#020202" opacity="1.000000" stroke="none" 
	d="
M484.067444,626.004272 
	C481.594757,626.004272 479.613983,626.004272 477.314880,626.004272 
	C477.314880,606.363953 477.314880,586.879150 477.314880,566.601746 
	C485.965729,567.059998 494.534607,567.246948 503.043610,568.060303 
	C508.554443,568.587036 512.022034,572.512939 512.167969,578.158386 
	C512.472717,589.943054 512.699768,601.746155 512.372925,613.525452 
	C512.105408,623.170349 508.859833,625.850037 499.018677,625.992188 
	C494.199860,626.061829 489.379181,626.004272 484.067444,626.004272 
M495.087646,577.052856 
	C494.114319,577.732178 492.302063,578.399658 492.292328,579.092529 
	C492.120148,591.324402 492.167664,603.559326 492.167664,615.837402 
	C497.769287,616.531189 497.496704,612.584106 497.573029,609.726562 
	C497.817078,600.588318 497.771149,591.438293 497.611145,582.296814 
	C497.582123,580.639893 496.485413,579.001648 495.087646,577.052856 
z"/>
<path fill="#020202" opacity="1.000000" stroke="none" 
	d="
M710.721558,626.004028 
	C702.979431,626.004272 695.703979,626.004272 688.214783,626.004272 
	C688.214783,606.277527 688.214783,586.906189 688.214783,566.602722 
	C696.976746,567.073059 705.694946,567.251892 714.345215,568.113037 
	C719.605103,568.636658 722.995361,572.598083 723.158264,577.971008 
	C723.505676,589.428650 723.776123,600.903809 723.526184,612.359741 
	C723.295654,622.928589 721.921692,624.081543 710.721558,626.004028 
M703.164307,602.487671 
	C703.164307,606.915283 703.164307,611.342834 703.164307,615.666016 
	C707.145020,616.705078 708.290588,614.555664 708.339417,611.787598 
	C708.520569,601.508301 708.592529,591.225037 708.521484,580.944458 
	C708.498779,577.660828 706.700256,576.263916 703.164307,577.439453 
	C703.164307,585.582886 703.164307,593.537720 703.164307,602.487671 
z"/>
<path fill="#010101" opacity="1.000000" stroke="none" 
	d="
M240.111771,577.023071 
	C240.111816,588.343750 240.106049,599.168823 240.118561,609.993958 
	C240.120285,611.491577 239.988037,613.045044 240.342590,614.466736 
	C240.573914,615.394287 241.572922,616.130493 242.228043,616.952393 
	C243.055847,616.107544 244.441406,615.355286 244.600067,614.399353 
	C244.977295,612.126587 244.799393,609.757507 244.800919,607.427307 
	C244.809616,594.128723 244.805161,580.830078 244.805161,567.265747 
	C249.807022,567.265747 254.574554,567.265747 259.701813,567.265747 
	C259.802765,568.158508 260.030731,569.245544 260.032654,570.332886 
	C260.056183,583.656067 260.129852,596.979980 260.019623,610.302246 
	C259.928650,621.294067 253.877716,627.066406 242.835495,627.001343 
	C231.318497,626.933472 225.122284,621.259827 225.019958,610.300964 
	C224.886627,596.018921 224.987366,581.734741 224.987366,567.226257 
	C230.039078,567.226257 234.790497,567.226257 240.111771,567.226257 
	C240.111771,570.330933 240.111771,573.429260 240.111771,577.023071 
z"/>
<path fill="#010101" opacity="1.000000" stroke="none" 
	d="
M193.714294,625.656128 
	C187.014893,623.013184 184.046127,618.175659 183.970795,611.574402 
	C183.854889,601.415955 183.748062,591.250305 184.004349,581.096924 
	C184.238022,571.839966 190.796448,566.205688 200.926758,565.998230 
	C211.276749,565.786316 218.542328,571.322937 218.897202,580.532715 
	C219.307343,591.176331 219.348892,601.863342 218.886902,612.502747 
	C218.449722,622.570557 208.626587,628.939270 197.924927,626.737610 
	C196.631226,626.471436 195.350021,626.144470 193.714294,625.656128 
M203.974731,604.465515 
	C203.961166,596.134521 204.027481,587.801758 203.842316,579.474548 
	C203.816498,578.313232 202.553680,577.179443 201.863495,576.032898 
	C200.936005,576.955505 199.215683,577.866028 199.201385,578.802551 
	C199.020798,590.628845 199.035995,602.459534 199.186966,614.286743 
	C199.198624,615.199463 200.607056,616.094299 201.366272,616.997437 
	C202.185104,616.146118 203.601746,615.365356 203.712189,614.430359 
	C204.062134,611.468079 203.924088,608.448242 203.974731,604.465515 
z"/>
<path fill="#020202" opacity="1.000000" stroke="none" 
	d="
M310.364532,571.439331 
	C317.422394,565.427795 326.614380,564.312561 334.235260,568.298950 
	C340.943878,571.808167 342.965973,577.165894 341.871124,588.792969 
	C337.125580,588.792969 332.354706,588.792969 326.967010,588.792969 
	C326.967010,585.720886 327.199249,582.594910 326.853943,579.534058 
	C326.713623,578.289917 325.317413,577.187439 324.492615,576.020508 
	C323.683319,577.062561 322.185852,578.094543 322.170410,579.148193 
	C322.002228,590.637512 322.004028,602.131104 322.164276,613.620667 
	C322.179962,614.744751 323.559357,615.849731 324.305786,616.963623 
	C325.350067,615.936890 327.308380,614.879395 327.275085,613.888916 
	C327.152863,610.254028 330.094208,606.066956 325.060730,602.967285 
	C323.894379,602.249023 324.888519,598.022522 324.888519,595.205444 
	C330.682587,595.205444 336.268494,595.205444 342.054321,595.205444 
	C342.054321,605.466736 342.054321,615.528259 342.054321,626.117310 
	C338.390137,624.812866 333.471924,628.896362 331.472473,622.288330 
	C327.485168,626.244202 322.946869,628.218811 317.229950,626.205872 
	C311.038544,624.026001 307.135101,619.549194 306.996857,612.927185 
	C306.771027,602.107971 306.730164,591.272766 307.102020,580.461182 
	C307.203369,577.514526 309.060425,574.628174 310.364532,571.439331 
z"/>
<path fill="#030303" opacity="1.000000" stroke="none" 
	d="
M575.035278,571.947388 
	C575.396423,570.062256 575.707703,568.617310 576.033325,567.105713 
	C583.006897,567.105713 589.814270,567.105713 597.270386,567.105713 
	C600.263977,586.516479 603.264771,605.973938 606.312256,625.734009 
	C601.181519,625.734009 596.287720,625.734009 590.869995,625.734009 
	C590.869995,622.226807 590.869995,618.822144 590.869995,615.217773 
	C588.265930,615.217773 586.178894,615.217773 583.757019,615.217773 
	C583.505188,618.757141 583.261169,622.186707 583.003540,625.806580 
	C578.017944,625.806580 573.097412,625.806580 567.775818,625.806580 
	C570.201050,607.836548 572.593140,590.112122 575.035278,571.947388 
M584.249390,598.802490 
	C584.123291,600.848999 583.997253,602.895508 583.860168,605.120361 
	C586.330505,605.003235 588.088501,604.919861 590.119385,604.823608 
	C589.297302,598.248169 588.528442,592.098999 587.759583,585.949768 
	C587.231079,585.957397 586.702515,585.964966 586.173950,585.972595 
	C585.575256,589.946655 584.976562,593.920654 584.249390,598.802490 
z"/>
<path fill="#030303" opacity="1.000000" stroke="none" 
	d="
M685.078308,625.022583 
	C680.177795,625.725952 675.279846,625.957092 669.853027,626.213196 
	C669.853027,622.208191 669.853027,618.803833 669.853027,615.208923 
	C667.248962,615.208923 665.160950,615.208923 662.756897,615.208923 
	C662.503967,618.772034 662.260498,622.202942 662.004944,625.802979 
	C657.010315,625.802979 652.087646,625.802979 646.743774,625.802979 
	C649.423279,606.195496 652.068054,586.842041 654.744019,567.260742 
	C661.897461,567.260742 668.808105,567.260742 676.323853,567.260742 
	C679.225708,586.244934 682.153320,605.397644 685.078308,625.022583 
M668.506226,599.874878 
	C667.910339,595.219604 667.314453,590.564331 666.718567,585.909058 
	C666.152954,585.942810 665.587341,585.976562 665.021729,586.010315 
	C664.249390,592.242615 663.476990,598.474976 662.691467,604.812805 
	C665.141907,604.812805 666.892639,604.812805 668.972656,604.812805 
	C668.867798,603.314209 668.778442,602.037415 668.506226,599.874878 
z"/>
<path fill="#020202" opacity="1.000000" stroke="none" 
	d="
M627.833740,627.003174 
	C614.468567,626.818420 609.193054,621.799500 608.902832,609.025513 
	C608.710144,600.546387 608.731384,592.057617 608.872803,583.576782 
	C609.083252,570.952026 617.926575,563.881348 630.331238,566.234192 
	C640.764038,568.212891 644.418335,572.348816 644.976074,582.992310 
	C645.122864,585.794312 644.998230,588.610474 644.998230,591.710571 
	C639.977051,591.710571 635.095520,591.710571 629.757141,591.710571 
	C629.757141,587.673828 629.995422,583.707825 629.625671,579.799377 
	C629.499207,578.463501 627.847107,577.272034 626.892090,576.014587 
	C625.952820,577.299438 624.223328,578.569153 624.198303,579.871460 
	C623.984558,591.012695 624.003723,602.161072 624.189087,613.303406 
	C624.209778,614.543274 625.702515,615.758667 626.512634,616.985413 
	C627.578796,615.802979 629.412659,614.710938 629.564575,613.420898 
	C629.987244,609.832458 629.711243,606.161743 629.711243,602.261230 
	C634.911316,602.261230 639.800415,602.261230 644.677490,602.261230 
	C646.153503,618.818237 642.218933,624.706116 627.833740,627.003174 
z"/>
<path fill="#040404" opacity="1.000000" stroke="none" 
	d="
M528.419922,625.924438 
	C519.496399,621.965027 517.851318,618.495850 518.548340,605.381226 
	C522.903992,605.381226 527.295166,605.381226 532.440186,605.381226 
	C532.440186,607.880493 532.168640,610.658936 532.556946,613.341858 
	C532.745544,614.644836 534.169067,615.769043 535.033508,616.974182 
	C536.135803,615.795166 537.964478,614.746399 538.203491,613.412720 
	C538.903809,609.505066 538.215271,605.868591 534.374756,603.449768 
	C531.146301,601.416382 528.054016,599.155029 524.987427,596.878784 
	C518.015747,591.704041 515.582520,581.784424 519.190430,573.574524 
	C521.572876,568.153076 529.934448,564.804138 537.853882,566.099609 
	C549.137085,567.945129 552.106506,571.942871 551.386597,584.675781 
	C547.005249,584.675781 542.593262,584.675781 537.801453,584.675781 
	C537.705200,582.890747 537.882141,580.874756 537.392456,579.036316 
	C537.088501,577.895569 535.773499,577.024231 534.912354,576.031921 
	C534.006775,577.048523 532.165405,578.320251 532.360657,579.036804 
	C533.130493,581.861694 533.954834,585.062134 535.859253,587.089478 
	C538.293457,589.680664 541.870728,591.163635 544.813416,593.318176 
	C552.248779,598.762085 555.422913,610.763611 551.794617,619.276917 
	C549.506042,624.646667 539.808960,628.362061 532.162842,626.791138 
	C531.040771,626.560547 529.926819,626.290771 528.419922,625.924438 
z"/>
<path fill="#020202" opacity="1.000000" stroke="none" 
	d="
M751.905518,613.996643 
	C753.657288,614.059021 754.944824,614.121338 756.430908,614.193359 
	C756.430908,618.058472 756.430908,621.664246 756.430908,625.638306 
	C747.865356,625.638306 739.298096,625.638306 730.362915,625.638306 
	C730.362915,606.439636 730.362915,586.933472 730.362915,567.210815 
	C738.607483,567.210815 746.853943,567.210815 755.373535,567.210815 
	C755.373535,571.049805 755.373535,574.787659 755.373535,578.861267 
	C752.130127,578.861267 749.021362,578.861267 745.583862,578.861267 
	C745.583862,582.579956 745.583862,585.974915 745.583862,589.720093 
	C748.458862,589.720093 751.391052,589.720093 754.687378,589.720093 
	C754.687378,593.572449 754.687378,597.092407 754.687378,600.948120 
	C751.712830,600.948120 748.774597,600.948120 745.546997,600.948120 
	C745.546997,605.331055 745.546997,609.394775 745.546997,613.996643 
	C747.559509,613.996643 749.500366,613.996643 751.905518,613.996643 
z"/>
<path fill="#040404" opacity="1.000000" stroke="none" 
	d="
M152.957916,566.993469 
	C155.243134,566.993469 157.062469,566.993469 159.254608,566.993469 
	C160.576675,574.624512 161.871552,582.098633 163.166428,589.572754 
	C163.395065,589.575989 163.623688,589.579224 163.852310,589.582458 
	C165.289764,582.130127 166.727203,574.677856 168.174866,567.172607 
	C172.623352,567.172607 176.910904,567.172607 181.454254,567.172607 
	C177.053925,586.628357 166.971390,604.771790 171.066559,625.722534 
	C165.739777,625.722534 161.359512,625.722534 156.133698,625.722534 
	C159.644623,605.049438 150.551376,586.669617 145.857391,566.993469 
	C148.262970,566.993469 150.377502,566.993469 152.957916,566.993469 
z"/>
<path fill="#040404" opacity="1.000000" stroke="none" 
	d="
M841.309326,588.454712 
	C836.754333,600.680298 835.367432,612.945496 836.675354,625.755127 
	C831.828857,625.755127 827.566650,625.755127 822.222717,625.755127 
	C825.634766,605.164978 816.594360,586.670959 811.887512,567.146301 
	C816.308960,567.146301 820.450073,567.146301 825.257385,567.146301 
	C826.529419,574.456299 827.824158,581.896545 829.118835,589.336792 
	C829.365845,589.358643 829.612854,589.380432 829.859924,589.402283 
	C831.283997,582.074097 832.708008,574.745972 834.173157,567.206421 
	C838.408569,567.206421 842.680237,567.206421 847.623596,567.206421 
	C845.517761,574.289185 843.469421,581.178467 841.309326,588.454712 
z"/>
<path fill="#040404" opacity="1.000000" stroke="none" 
	d="
M430.263367,582.007507 
	C430.263367,596.820435 430.263367,611.134583 430.263367,625.727539 
	C425.276703,625.727539 420.536346,625.727539 415.478027,625.727539 
	C415.478027,606.384583 415.478027,586.992676 415.478027,567.295654 
	C420.204224,567.295654 424.958954,567.295654 430.263397,567.295654 
	C430.263397,571.970337 430.263397,576.739563 430.263367,582.007507 
z"/>
<path fill="#FEFAFA" opacity="1.000000" stroke="none" 
	d="
M717.252075,419.576202 
	C718.604736,430.861420 719.888062,441.698914 721.196838,452.750916 
	C712.283508,452.750916 703.879517,452.750916 694.519836,452.750916 
	C699.300476,417.017761 704.030396,381.663849 708.760254,346.309906 
	C709.100952,346.321472 709.441589,346.333069 709.782288,346.344635 
	C712.249146,370.605896 714.716003,394.867157 717.252075,419.576202 
z"/>
<path fill="#FEF8F8" opacity="1.000000" stroke="none" 
	d="
M457.371246,696.497253 
	C456.908722,699.872009 456.538300,702.807190 456.154083,705.851929 
	C453.662018,705.851929 451.527435,705.851929 448.824799,705.851929 
	C447.792328,698.103149 446.755157,690.318848 445.717957,682.534607 
	C445.450012,682.551575 445.182068,682.568542 444.914124,682.585510 
	C444.914124,690.184814 444.914124,697.784180 444.914124,705.693604 
	C441.243011,705.693604 437.998352,705.693604 434.424866,705.693604 
	C434.424866,691.048889 434.424866,676.333679 434.424866,661.302673 
	C439.303833,661.302673 444.196472,661.302673 449.427368,661.302673 
	C450.351807,666.997986 451.275452,672.688416 452.199097,678.378845 
	C452.410858,678.398926 452.622620,678.419067 452.834351,678.439148 
	C453.677338,672.884644 454.520294,667.330200 455.423248,661.380615 
	C460.222595,661.380615 465.129364,661.380615 470.429565,661.380615 
	C470.429565,675.879211 470.429565,690.581482 470.429565,705.648926 
	C467.323822,705.648926 464.079651,705.648926 460.221466,705.648926 
	C460.221466,697.856445 460.221466,689.853210 460.221466,681.849915 
	C459.902740,681.835754 459.583984,681.821594 459.265259,681.807434 
	C458.664612,686.557556 458.063995,691.307617 457.371246,696.497253 
z"/>
<path fill="#FEF8F8" opacity="1.000000" stroke="none" 
	d="
M300.962006,687.303467 
	C300.961975,693.578186 300.961975,699.390564 300.961975,705.605591 
	C297.278198,705.605591 293.930267,705.605591 290.335510,705.605591 
	C290.335510,690.969543 290.335510,676.379089 290.335510,661.388306 
	C295.128876,661.388306 300.024139,661.388306 305.426147,661.388306 
	C306.340759,666.948242 307.300079,672.779907 308.259369,678.611511 
	C308.445343,678.615479 308.631317,678.619446 308.817291,678.623474 
	C309.678131,672.937866 310.538971,667.252319 311.442108,661.287476 
	C316.411255,661.287476 321.319458,661.287476 326.523926,661.287476 
	C326.523926,676.058655 326.523926,690.770447 326.523926,705.747314 
	C323.146454,705.747314 319.904602,705.747314 316.184570,705.747314 
	C316.184570,697.738892 316.184570,689.809875 316.184570,681.880920 
	C315.885376,681.860474 315.586151,681.840027 315.286957,681.819580 
	C314.248413,689.768250 313.209900,697.716919 312.151184,705.819885 
	C309.639679,705.819885 307.352600,705.819885 304.768311,705.819885 
	C303.759613,698.030701 302.764160,690.343811 301.768738,682.656982 
	C301.565430,682.665710 301.362122,682.674438 301.158813,682.683167 
	C301.093231,684.069153 301.027618,685.455139 300.962006,687.303467 
z"/>
<path fill="#FEF9F9" opacity="1.000000" stroke="none" 
	d="
M260.170715,699.941528 
	C260.170715,702.077454 260.170715,703.725708 260.170715,705.690979 
	C256.221863,705.690979 252.492767,705.690979 248.473541,705.690979 
	C248.473541,690.931641 248.473541,676.218140 248.473541,661.247314 
	C252.222992,661.247314 255.822418,661.247314 260.171478,661.247314 
	C260.171478,665.724365 260.080017,670.299072 260.240540,674.864929 
	C260.277252,675.909424 261.182556,676.923462 261.688080,677.951477 
	C262.227997,676.966003 263.195862,675.996826 263.234161,674.992249 
	C263.404266,670.532227 263.307861,666.062073 263.307861,661.298218 
	C267.419769,661.298218 271.164612,661.298218 275.148773,661.298218 
	C275.148773,676.045593 275.148773,690.805054 275.148773,705.767944 
	C271.253113,705.767944 267.517975,705.767944 263.309113,705.767944 
	C263.309113,700.583557 263.402313,695.624268 263.242645,690.673096 
	C263.203430,689.457336 262.338715,688.268250 261.853485,687.066895 
	C261.292725,688.199829 260.338989,689.302185 260.248138,690.471619 
	C260.016724,693.449768 260.170837,696.457764 260.170715,699.941528 
z"/>
<path fill="#FEF5F5" opacity="1.000000" stroke="none" 
	d="
M707.202881,706.016357 
	C705.881958,705.146667 704.299377,704.286255 704.289612,703.408203 
	C704.134155,689.468262 704.180237,675.526062 704.180237,661.285034 
	C707.615051,661.285034 710.703186,661.285034 714.215881,661.285034 
	C715.866943,666.175293 717.594543,671.292053 719.322083,676.408875 
	C719.608521,676.394592 719.894958,676.380310 720.181396,676.366028 
	C720.181396,671.422241 720.181396,666.478394 720.181396,661.269897 
	C723.855713,661.269897 726.944824,661.269897 730.370972,661.269897 
	C730.370972,675.938660 730.370972,690.650269 730.370972,705.355408 
	C730.095520,705.539490 729.844055,705.850403 729.574463,705.867004 
	C720.365601,706.433105 720.380371,706.424438 717.625183,697.509521 
	C716.723938,694.593445 715.722412,691.708374 714.089722,689.005554 
	C714.089722,694.464417 714.089722,699.923218 714.089722,706.017334 
	C711.862732,706.017334 709.767883,706.017334 707.202881,706.016357 
z"/>
<path fill="#FEF5F5" opacity="1.000000" stroke="none" 
	d="
M827.704712,665.251953 
	C827.704712,678.993713 827.704712,692.263000 827.704712,705.772217 
	C823.979492,705.772217 820.714050,705.772217 817.199829,705.772217 
	C815.442688,700.188171 813.673889,694.566895 811.905029,688.945618 
	C811.657715,688.983643 811.410400,689.021729 811.163086,689.059814 
	C811.163086,694.549744 811.163086,700.039673 811.163086,705.765747 
	C807.745544,705.765747 804.689575,705.765747 801.404907,705.765747 
	C801.404907,690.938721 801.404907,676.358459 801.404907,660.983215 
	C803.769104,660.983215 806.224548,660.698425 808.563171,661.097839 
	C809.820374,661.312561 811.461548,662.465942 811.919739,663.602783 
	C813.624817,667.833862 814.911499,672.233582 817.371277,676.416016 
	C817.371277,671.386780 817.371277,666.357605 817.371277,661.328430 
	C820.781555,663.627075 826.981812,656.403442 827.704712,665.251953 
z"/>
<path fill="#FEF5F5" opacity="1.000000" stroke="none" 
	d="
M143.617950,661.122437 
	C144.276093,665.833069 144.633011,670.430298 144.675720,675.030457 
	C144.769669,685.149780 144.704880,695.270569 144.704880,705.186951 
	C144.081604,705.567871 143.822357,705.859131 143.546860,705.875427 
	C134.360275,706.417542 134.367783,706.411255 131.617126,697.479858 
	C130.747559,694.656311 129.824463,691.849243 128.304535,689.090393 
	C128.304535,694.531616 128.304535,699.972778 128.304535,705.710693 
	C124.868797,705.710693 121.807259,705.710693 118.456635,705.710693 
	C118.456635,690.931885 118.456635,676.220886 118.456635,661.649109 
	C118.725357,661.400146 118.833328,661.209106 118.961143,661.194763 
	C127.987679,660.180237 128.021973,660.201111 130.757965,668.594604 
	C131.614227,671.221436 132.457932,673.852417 134.259338,676.381226 
	C134.259338,671.404358 134.259338,666.427429 134.259338,661.010437 
	C137.612244,661.010437 140.393219,661.010437 143.617950,661.122437 
z"/>
<path fill="#FEF9F9" opacity="1.000000" stroke="none" 
	d="
M379.958618,664.069763 
	C380.678772,665.042236 381.507629,665.734619 381.517517,666.438538 
	C381.680176,678.025024 382.048096,689.627991 381.485779,701.184204 
	C381.402618,702.893372 376.934143,705.457825 374.283264,705.757507 
	C368.212555,706.443787 362.011200,705.974609 355.525696,705.974609 
	C355.525696,691.048157 355.525696,676.331421 355.525696,661.002930 
	C363.642700,661.761292 372.011688,658.937744 379.958618,664.069763 
M367.076263,671.033447 
	C367.076263,679.996094 367.076263,688.958801 367.076263,699.228882 
	C368.914581,697.525208 370.138397,696.924988 370.152954,696.296814 
	C370.348175,687.870422 370.409088,679.439636 370.302551,671.012512 
	C370.298737,670.711365 368.226013,670.436462 367.076263,671.033447 
z"/>
<path fill="#FEF9F9" opacity="1.000000" stroke="none" 
	d="
M536.691589,675.216187 
	C536.663818,682.506531 536.805359,689.330444 536.562378,696.140686 
	C536.293030,703.689270 533.909912,705.898987 526.469910,705.995361 
	C520.862122,706.067932 515.252686,706.009705 509.421387,706.009705 
	C509.421387,690.945129 509.421387,676.368774 509.421387,660.718201 
	C516.257202,661.083801 523.218384,660.819885 529.928589,661.992432 
	C536.765747,663.187317 536.527100,669.351685 536.691589,675.216187 
M521.070435,673.773804 
	C521.070435,681.790894 521.070435,689.807983 521.070435,698.211670 
	C525.219360,695.824585 525.327271,695.330933 524.713379,674.741394 
	C524.653076,672.720886 523.632263,670.729065 523.057251,668.723877 
	C522.505188,668.865295 521.953125,669.006714 521.401001,669.148132 
	C521.290833,670.382019 521.180725,671.615967 521.070435,673.773804 
z"/>
<path fill="#FEF6F6" opacity="1.000000" stroke="none" 
	d="
M859.179443,687.998840 
	C859.179443,678.868835 859.179443,670.238464 859.179443,660.986267 
	C864.279175,660.986267 869.047058,660.937439 873.813354,661.000061 
	C878.487976,661.061462 883.223206,661.671326 884.695251,666.983276 
	C886.244995,672.575806 887.177917,678.407349 881.895020,682.963257 
	C888.785278,689.602356 884.367981,697.943176 885.911194,705.752808 
	C881.836060,705.752808 878.407227,705.752808 874.384338,705.752808 
	C874.384338,702.283997 874.623291,698.810364 874.313904,695.386353 
	C874.031433,692.259827 875.896301,688.484497 871.542480,685.454041 
	C871.542480,692.550171 871.542480,698.905762 871.542480,705.638611 
	C867.330383,705.638611 863.601501,705.638611 859.179382,705.638611 
	C859.179382,700.031494 859.179382,694.264954 859.179443,687.998840 
M871.134644,674.450439 
	C871.242920,675.936218 871.351196,677.421997 871.493042,679.368469 
	C875.652527,675.831421 875.409668,671.145874 871.134705,669.028198 
	C871.134705,670.698181 871.134705,672.129578 871.134644,674.450439 
z"/>
<path fill="#FEFAFA" opacity="1.000000" stroke="none" 
	d="
M166.293823,660.270447 
	C175.120148,663.668457 177.085526,667.321106 175.907196,678.007385 
	C173.512451,678.007385 171.060715,678.030884 168.609741,677.997742 
	C167.318588,677.980347 166.028793,677.863953 164.679825,677.789001 
	C164.334900,674.384216 164.016464,671.240784 163.637619,667.501099 
	C160.260239,670.772705 159.895844,694.688965 162.608475,699.087036 
	C168.335861,693.519104 160.717667,687.933289 162.752258,682.276733 
	C167.182159,682.276733 171.575836,682.276733 176.144379,682.276733 
	C176.144379,690.173767 176.144379,697.934082 176.144379,706.338501 
	C172.985809,705.883911 170.154831,705.476440 166.347626,704.928467 
	C163.688477,707.504822 159.458878,708.083130 155.025940,705.726135 
	C150.605392,703.375732 148.946579,699.392456 148.999146,694.500488 
	C149.065323,688.340698 148.978271,682.179504 148.997253,676.018982 
	C149.037003,663.123047 153.027466,659.392578 166.293823,660.270447 
z"/>
<path fill="#FFFCFC" opacity="1.000000" stroke="none" 
	d="
M403.471588,661.467224 
	C407.292480,661.126343 410.783478,661.126343 415.306396,661.126343 
	C415.306396,673.664307 415.306396,686.254578 415.306396,698.844910 
	C416.135010,698.849915 416.963593,698.854919 417.792206,698.859924 
	C418.429138,686.412842 417.762848,673.890747 418.155029,661.222839 
	C422.085693,661.222839 425.695496,661.222839 430.003113,661.222839 
	C430.003113,668.543701 430.010315,675.961548 430.000275,683.379333 
	C429.994659,687.541992 430.075012,691.709045 429.913849,695.866272 
	C429.632568,703.120972 424.977356,707.021240 416.844025,707.002991 
	C408.417755,706.984070 403.339020,703.024658 403.201935,695.770752 
	C402.988037,684.453491 403.143005,673.129333 403.471588,661.467224 
z"/>
<path fill="#FFFCFC" opacity="1.000000" stroke="none" 
	d="
M541.134766,695.524414 
	C541.115356,683.935364 541.115356,672.796509 541.115356,661.327942 
	C544.998291,661.327942 548.722046,661.327942 553.003052,661.327942 
	C553.003052,667.726868 552.989807,674.163086 553.006958,680.599182 
	C553.023254,686.714966 553.071289,692.830566 553.105347,698.946289 
	C553.888977,698.937073 554.672546,698.927917 555.456177,698.918701 
	C555.456177,686.478394 555.456177,674.038025 555.456177,661.303345 
	C560.047852,661.303345 563.771545,661.303345 567.847717,661.303345 
	C567.847717,673.446289 568.128540,685.558228 567.726807,697.647522 
	C567.531921,703.512817 562.180298,706.981567 555.051270,707.002991 
	C546.542847,707.028564 542.321716,703.678772 541.134766,695.524414 
z"/>
<path fill="#FEF9F9" opacity="1.000000" stroke="none" 
	d="
M672.992798,675.166870 
	C672.136414,663.238708 679.730225,659.227478 688.771057,660.016052 
	C695.488892,660.602051 699.795654,664.915466 699.935303,671.663147 
	C700.100159,679.627686 700.127319,687.602234 699.923096,695.565002 
	C699.734497,702.915894 694.758179,707.012329 686.556396,707.008850 
	C678.388062,707.005371 673.360840,702.864990 673.115784,695.572205 
	C672.892761,688.934937 673.018982,682.285950 672.992798,675.166870 
M688.188171,686.480530 
	C687.660339,680.381104 689.343750,674.056030 686.881958,667.222717 
	C683.985718,672.346924 684.311218,696.151428 688.188232,698.844910 
	C688.188232,695.053040 688.188232,691.261169 688.188171,686.480530 
z"/>
<path fill="#FEFAFA" opacity="1.000000" stroke="none" 
	d="
M758.236328,659.995728 
	C771.127258,660.086121 774.764099,664.792908 773.602173,679.680054 
	C769.918030,679.680054 766.198059,679.680054 761.812073,679.680054 
	C761.812073,676.539124 761.953125,673.417297 761.715027,670.324585 
	C761.653809,669.530518 760.397034,668.828491 759.689514,668.084167 
	C759.115723,668.797913 758.047546,669.508545 758.043091,670.225830 
	C757.986450,679.378723 758.066833,688.532837 758.172852,697.685913 
	C758.180115,698.315002 758.668152,698.938477 758.932617,699.564575 
	C759.620911,699.408630 760.309265,699.252686 760.997620,699.096741 
	C761.469299,695.275452 761.941040,691.454224 762.454529,687.294189 
	C765.932617,687.294189 769.657776,687.294189 774.587952,687.294189 
	C773.626465,692.193909 773.466064,697.115967 771.631958,701.305359 
	C769.404541,706.393250 761.350708,708.391663 754.743896,706.587708 
	C749.259766,705.090332 746.370544,701.558533 746.143250,695.221252 
	C745.886658,688.067932 745.958252,680.899902 746.012695,673.739258 
	C746.079102,664.994202 749.119141,661.522888 758.236328,659.995728 
z"/>
<path fill="#FEFAFA" opacity="1.000000" stroke="none" 
	d="
M590.248291,679.960144 
	C589.476074,676.860840 589.289795,673.781738 588.805786,670.750183 
	C588.653381,669.795471 587.702515,668.968262 587.117126,668.082703 
	C586.388672,668.986633 585.043457,669.879883 585.027649,670.796143 
	C584.877991,679.450134 584.919067,688.108521 585.027954,696.764099 
	C585.037659,697.535767 585.912781,698.296509 586.385864,699.062317 
	C586.926331,699.067688 587.466736,699.073120 588.007202,699.078491 
	C588.474792,695.247192 588.942444,691.415833 589.447754,687.275757 
	C592.972900,687.275757 596.696411,687.275757 601.394836,687.275757 
	C600.668701,691.894409 600.605591,696.451904 599.150818,700.510742 
	C597.275818,705.741882 589.868164,708.150879 582.690613,706.755920 
	C576.967407,705.643677 573.499756,702.208252 573.253784,696.184021 
	C572.900818,687.542603 572.877197,678.867371 573.207336,670.225464 
	C573.428833,664.428040 578.384827,660.447510 584.818970,659.998657 
	C593.120056,659.419678 598.641785,662.203491 599.973633,668.171997 
	C600.788208,671.822205 600.781616,675.655701 601.200989,679.998718 
	C597.275391,679.998718 593.997314,679.998718 590.248291,679.960144 
z"/>
<path fill="#FEF9F9" opacity="1.000000" stroke="none" 
	d="
M627.702759,682.224121 
	C628.888550,690.221924 630.010254,697.784668 631.183228,705.692688 
	C627.216187,705.692688 623.499451,705.692688 619.427246,705.692688 
	C619.298584,703.284485 619.176453,700.998718 619.035583,698.362427 
	C617.516235,698.362427 615.973022,698.362427 614.040344,698.362427 
	C613.924500,700.607178 613.806946,702.886414 613.667542,705.587830 
	C609.831299,705.587830 605.966003,705.587830 601.636047,705.587830 
	C603.657715,690.756836 605.669006,676.002197 607.694214,661.145752 
	C613.365906,661.145752 618.659058,661.145752 624.322693,661.145752 
	C625.435852,668.075378 626.537354,674.932190 627.702759,682.224121 
M617.008911,674.480652 
	C616.735474,674.179382 616.462036,673.878174 616.188599,673.576904 
	C616.137512,673.731079 616.060913,673.881775 616.039185,674.039917 
	C615.386841,678.801880 614.729126,683.563171 614.109558,688.329407 
	C614.050903,688.780762 614.235901,689.263794 614.311340,689.755066 
	C615.656555,689.755066 616.885437,689.755066 618.457092,689.755066 
	C617.966614,684.714661 617.504517,679.965454 617.008911,674.480652 
z"/>
<path fill="#FEF8F9" opacity="1.000000" stroke="none" 
	d="
M230.890198,689.352173 
	C228.262589,687.324036 225.300735,685.599060 223.105408,683.178833 
	C221.084381,680.950928 219.153152,678.148865 218.478714,675.293518 
	C217.019791,669.116821 219.176819,663.882874 223.156570,661.636719 
	C228.001038,658.902588 237.765747,659.026794 241.071854,662.888794 
	C243.298782,665.490173 243.828400,669.544556 245.394272,673.680420 
	C240.621216,673.680420 237.209518,673.680420 233.518921,673.680420 
	C233.167450,671.895874 232.787964,669.969055 232.329758,667.642456 
	C228.899857,670.798706 228.790375,673.337280 231.648544,675.754944 
	C233.419632,677.253052 235.463394,678.424866 237.350525,679.790405 
	C244.691849,685.102661 247.024506,691.106567 244.710190,699.728821 
	C244.234909,701.499573 242.882050,703.351501 241.408218,704.479248 
	C236.607468,708.152710 227.343307,707.947815 222.528687,704.386780 
	C217.698822,700.814514 218.993927,695.518982 218.223938,690.064209 
	C222.067276,690.064209 225.493530,690.064209 229.366135,690.549438 
	C229.814835,692.675720 229.596313,694.358887 229.897583,695.943176 
	C230.096512,696.989136 231.042511,697.893127 231.654053,698.860657 
	C232.411240,697.925720 233.965515,696.773987 233.780884,696.095154 
	C233.145325,693.758240 231.901978,691.586731 230.890198,689.352173 
z"/>
<path fill="#FEF8F9" opacity="1.000000" stroke="none" 
	d="
M111.736488,660.996399 
	C113.028923,663.688660 113.846512,666.375427 114.856071,669.693054 
	C111.416939,669.909790 109.023529,670.060669 106.413025,670.225220 
	C106.413025,672.709412 106.413025,674.979675 106.413025,677.714294 
	C108.581566,677.870972 110.823250,678.032959 113.331444,678.214233 
	C113.331444,681.059448 113.331444,683.809570 113.331444,686.791321 
	C111.036255,686.924072 108.916283,687.046753 106.486259,687.187317 
	C106.486259,690.305542 106.486259,693.370789 106.486259,696.791626 
	C109.122749,696.916077 111.708191,697.038025 114.546478,697.171997 
	C114.546478,699.985535 114.546478,702.592224 114.546478,705.606323 
	C108.107346,705.606323 101.534012,705.606323 94.570625,705.606323 
	C94.570625,691.104614 94.570625,676.387146 94.570625,660.990906 
	C100.075119,660.990906 105.668381,660.990906 111.736488,660.996399 
z"/>
<path fill="#FEF8F9" opacity="1.000000" stroke="none" 
	d="
M789.172241,692.915894 
	C788.976074,700.550110 794.884460,695.101990 797.474365,697.881226 
	C797.474365,699.930847 797.474365,702.650269 797.474365,705.697754 
	C790.931030,705.697754 784.372375,705.697754 777.498047,705.697754 
	C777.498047,691.007507 777.498047,676.314331 777.498047,661.304565 
	C783.762146,661.304565 789.996521,661.304565 796.598633,661.304565 
	C796.598633,663.876160 796.598633,666.596069 796.598633,669.765991 
	C794.401733,669.909973 792.015503,670.066345 789.410034,670.237061 
	C789.410034,672.710632 789.410034,674.975769 789.410034,677.712769 
	C791.569275,677.867615 793.806885,678.028076 796.322388,678.208435 
	C796.322388,681.023560 796.322388,683.766357 796.322388,686.778503 
	C794.082458,686.911255 791.973328,687.036255 789.172119,687.202332 
	C789.172119,688.956665 789.172119,690.709106 789.172241,692.915894 
z"/>
<path fill="#FEF8F9" opacity="1.000000" stroke="none" 
	d="
M486.186676,699.864319 
	C486.186676,686.757629 486.186676,674.133301 486.186676,661.251953 
	C492.874481,661.251953 499.125244,661.251953 505.669708,661.251953 
	C505.669708,664.024231 505.669708,666.752625 505.669708,669.874390 
	C503.363434,669.874390 501.090973,669.874390 498.498413,669.874390 
	C498.498413,672.644104 498.498413,675.037292 498.498413,677.782532 
	C500.627106,677.898193 502.735413,678.012817 505.222717,678.148010 
	C505.222717,680.908752 505.222717,683.623108 505.222717,686.737549 
	C503.087646,686.896240 500.858185,687.061951 498.409485,687.243958 
	C498.409485,690.369263 498.409485,693.309082 498.409485,696.739624 
	C500.938110,696.873901 503.525116,697.011230 506.462158,697.167114 
	C506.462158,699.911682 506.462158,702.638794 506.462158,705.693665 
	C499.925842,705.693665 493.354706,705.693665 486.186676,705.693665 
	C486.186676,703.895264 486.186676,702.120972 486.186676,699.864319 
z"/>
<path fill="#FEF8F9" opacity="1.000000" stroke="none" 
	d="
M889.246582,704.617310 
	C889.200317,690.036987 889.200317,675.926086 889.200317,661.402832 
	C895.699402,661.402832 902.049194,661.402832 908.684448,661.402832 
	C908.684448,664.045959 908.684448,666.768616 908.684448,669.876465 
	C906.348450,669.876465 904.089478,669.876465 901.501221,669.876465 
	C901.501221,672.631653 901.501221,675.018982 901.501221,677.767395 
	C903.719177,677.915833 905.956848,678.065491 908.384888,678.227966 
	C908.384888,681.075012 908.384888,683.679199 908.384888,686.698364 
	C906.147339,686.882080 903.920349,687.064941 901.440735,687.268494 
	C901.440735,690.415100 901.440735,693.472473 901.440735,696.798950 
	C904.198303,696.929260 906.777527,697.051147 909.575806,697.183350 
	C909.575806,700.042908 909.575806,702.642151 909.575806,706.340576 
	C902.821777,705.923035 896.057373,705.504883 889.246582,704.617310 
z"/>
<path fill="#FEF8F9" opacity="1.000000" stroke="none" 
	d="
M350.596497,680.308960 
	C350.603333,682.703247 350.603333,684.658630 350.603333,686.788086 
	C348.004364,686.935913 345.887207,687.056274 343.473999,687.193542 
	C343.473999,690.329834 343.473999,693.388733 343.473999,696.791626 
	C346.126343,696.916321 348.706451,697.037720 351.543213,697.171143 
	C351.543213,699.966553 351.543213,702.568665 351.543213,705.594727 
	C345.020752,705.594727 338.348175,705.594727 331.434601,705.594727 
	C331.434601,690.839050 331.434601,676.144348 331.434601,661.219849 
	C337.921051,661.219849 344.161316,661.219849 350.682007,661.219849 
	C350.682007,664.043213 350.682007,666.766602 350.682007,669.875366 
	C348.349731,669.875366 346.090088,669.875366 343.501129,669.875366 
	C343.501129,672.632446 343.501129,675.020508 343.501129,676.997192 
	C345.975311,677.999939 348.282471,678.934998 350.596497,680.308960 
z"/>
<path fill="#FFFBFB" opacity="1.000000" stroke="none" 
	d="
M647.004272,676.106445 
	C647.004272,686.209778 647.004272,695.827087 647.004272,705.723145 
	C642.998840,705.723145 639.287292,705.723145 635.113220,705.723145 
	C635.113220,693.833252 635.113220,682.113953 635.113220,670.078247 
	C632.722900,670.078247 630.784180,670.078247 628.520020,670.078247 
	C628.520020,667.037476 628.520020,664.315552 628.520020,661.288452 
	C636.793518,661.288452 645.032410,661.288452 653.614624,661.288452 
	C653.614624,663.923950 653.614624,666.644775 653.614624,669.732788 
	C651.656433,669.879333 649.586487,670.034241 647.004272,670.227478 
	C647.004272,672.064636 647.004272,673.842590 647.004272,676.106445 
z"/>
<path fill="#FFFBFB" opacity="1.000000" stroke="none" 
	d="
M852.933105,670.003662 
	C849.557922,669.498718 848.909058,670.857544 848.945984,673.586426 
	C849.089539,684.203430 849.004517,694.823608 849.004517,705.722046 
	C845.000061,705.722046 841.287842,705.722046 837.108887,705.722046 
	C837.108887,693.830078 837.108887,682.108459 837.108887,670.068237 
	C834.714050,670.068237 832.775085,670.068237 830.515381,670.068237 
	C830.515381,667.024841 830.515381,664.301392 830.515381,661.282288 
	C838.808350,661.282288 847.049133,661.282288 855.910889,661.282288 
	C854.432251,664.108582 859.163513,668.191101 852.933105,670.003662 
z"/>
<path fill="#FEFAFA" opacity="1.000000" stroke="none" 
	d="
M186.058319,660.992615 
	C188.177551,660.992615 189.824112,660.992615 191.962097,660.992615 
	C191.962097,672.901306 191.962097,684.608521 191.962097,696.644470 
	C194.481735,696.852478 196.546738,697.022949 198.885086,697.216003 
	C198.885086,700.020447 198.885086,702.751282 198.885086,705.747803 
	C192.782791,705.747803 186.726700,705.747803 180.430206,705.747803 
	C180.430206,690.954468 180.430206,676.375854 180.430206,660.992615 
	C182.114777,660.992615 183.850220,660.992615 186.058319,660.992615 
z"/>
<path fill="#FEF9F9" opacity="1.000000" stroke="none" 
	d="
M669.008667,681.000244 
	C669.008667,689.458252 669.008667,697.416321 669.008667,705.690857 
	C665.084167,705.690857 661.383728,705.690857 657.433716,705.690857 
	C657.433716,690.853271 657.433716,676.157471 657.433716,661.226440 
	C661.249817,661.226440 664.835449,661.226440 669.008667,661.226440 
	C669.008667,667.662048 669.008667,674.081238 669.008667,681.000244 
z"/>
<path fill="#FEF9F9" opacity="1.000000" stroke="none" 
	d="
M387.188660,694.972107 
	C387.188690,683.533508 387.188690,672.591003 387.188690,661.321228 
	C391.071503,661.321228 394.656342,661.321228 398.628174,661.321228 
	C398.628174,675.907776 398.628174,690.729797 398.628174,705.781738 
	C395.021027,705.781738 391.429993,705.781738 387.188660,705.781738 
	C387.188660,702.324341 387.188660,698.896301 387.188660,694.972107 
z"/>
<path fill="#FEF9F9" opacity="1.000000" stroke="none" 
	d="
M202.188690,686.999390 
	C202.188705,678.216125 202.188705,669.932739 202.188705,661.322266 
	C206.071960,661.322266 209.656342,661.322266 213.626465,661.322266 
	C213.626465,675.905884 213.626465,690.726440 213.626465,705.779419 
	C210.025925,705.779419 206.434799,705.779419 202.188675,705.779419 
	C202.188675,699.675781 202.188675,693.587524 202.188690,686.999390 
z"/>
<path fill="#E0E0E0" opacity="1.000000" stroke="none" 
	d="
M495.484619,577.203796 
	C496.485413,579.001648 497.582123,580.639893 497.611145,582.296814 
	C497.771149,591.438293 497.817078,600.588318 497.573029,609.726562 
	C497.496704,612.584106 497.769287,616.531189 492.167664,615.837402 
	C492.167664,603.559326 492.120148,591.324402 492.292328,579.092529 
	C492.302063,578.399658 494.114319,577.732178 495.484619,577.203796 
z"/>
<path fill="#E0E0E0" opacity="1.000000" stroke="none" 
	d="
M703.164307,601.990112 
	C703.164307,593.537720 703.164307,585.582886 703.164307,577.439453 
	C706.700256,576.263916 708.498779,577.660828 708.521484,580.944458 
	C708.592529,591.225037 708.520569,601.508301 708.339417,611.787598 
	C708.290588,614.555664 707.145020,616.705078 703.164307,615.666016 
	C703.164307,611.342834 703.164307,606.915283 703.164307,601.990112 
z"/>
<path fill="#F4F4F4" opacity="1.000000" stroke="none" 
	d="
M203.974731,604.958069 
	C203.924088,608.448242 204.062134,611.468079 203.712189,614.430359 
	C203.601746,615.365356 202.185104,616.146118 201.366272,616.997437 
	C200.607056,616.094299 199.198624,615.199463 199.186966,614.286743 
	C199.035995,602.459534 199.020798,590.628845 199.201385,578.802551 
	C199.215683,577.866028 200.936005,576.955505 201.863495,576.032898 
	C202.553680,577.179443 203.816498,578.313232 203.842316,579.474548 
	C204.027481,587.801758 203.961166,596.134521 203.974731,604.958069 
z"/>
<path fill="#EBEBEB" opacity="1.000000" stroke="none" 
	d="
M584.313599,598.348633 
	C584.976562,593.920654 585.575256,589.946655 586.173950,585.972595 
	C586.702515,585.964966 587.231079,585.957397 587.759583,585.949768 
	C588.528442,592.098999 589.297302,598.248169 590.119385,604.823608 
	C588.088501,604.919861 586.330505,605.003235 583.860168,605.120361 
	C583.997253,602.895508 584.123291,600.848999 584.313599,598.348633 
z"/>
<path fill="#EBEBEB" opacity="1.000000" stroke="none" 
	d="
M668.597656,600.317749 
	C668.778442,602.037415 668.867798,603.314209 668.972656,604.812805 
	C666.892639,604.812805 665.141907,604.812805 662.691467,604.812805 
	C663.476990,598.474976 664.249390,592.242615 665.021729,586.010315 
	C665.587341,585.976562 666.152954,585.942810 666.718567,585.909058 
	C667.314453,590.564331 667.910339,595.219604 668.597656,600.317749 
z"/>
<path fill="#E93535" opacity="1.000000" stroke="none" 
	d="
M367.096863,670.591431 
	C368.226013,670.436462 370.298737,670.711365 370.302551,671.012512 
	C370.409088,679.439636 370.348175,687.870422 370.152954,696.296814 
	C370.138397,696.924988 368.914581,697.525208 367.076263,699.228882 
	C367.076263,688.958801 367.076263,679.996094 367.096863,670.591431 
z"/>
<path fill="#E93535" opacity="1.000000" stroke="none" 
	d="
M521.070496,673.311890 
	C521.180725,671.615967 521.290833,670.382019 521.401001,669.148132 
	C521.953125,669.006714 522.505188,668.865295 523.057251,668.723877 
	C523.632263,670.729065 524.653076,672.720886 524.713379,674.741394 
	C525.327271,695.330933 525.219360,695.824585 521.070435,698.211670 
	C521.070435,689.807983 521.070435,681.790894 521.070496,673.311890 
z"/>
<path fill="#E82021" opacity="1.000000" stroke="none" 
	d="
M871.134644,674.005737 
	C871.134705,672.129578 871.134705,670.698181 871.134705,669.028198 
	C875.409668,671.145874 875.652527,675.831421 871.493042,679.368469 
	C871.351196,677.421997 871.242920,675.936218 871.134644,674.005737 
z"/>
<path fill="#E71011" opacity="1.000000" stroke="none" 
	d="
M688.188232,686.974915 
	C688.188232,691.261169 688.188232,695.053040 688.188232,698.844910 
	C684.311218,696.151428 683.985718,672.346924 686.881958,667.222717 
	C689.343750,674.056030 687.660339,680.381104 688.188232,686.974915 
z"/>
<path fill="#E82021" opacity="1.000000" stroke="none" 
	d="
M617.025635,674.848450 
	C617.504517,679.965454 617.966614,684.714661 618.457092,689.755066 
	C616.885437,689.755066 615.656555,689.755066 614.311340,689.755066 
	C614.235901,689.263794 614.050903,688.780762 614.109558,688.329407 
	C614.729126,683.563171 615.386841,678.801880 616.039185,674.039917 
	C616.060913,673.881775 616.137512,673.731079 616.188599,673.576904 
	C616.462036,673.878174 616.735474,674.179382 617.025635,674.848450 
z"/>
<path fill="#E71011" opacity="1.000000" stroke="none" 
	d="
M230.611252,689.544800 
	C231.901978,691.586731 233.145325,693.758240 233.780884,696.095154 
	C233.965515,696.773987 232.411240,697.925720 231.654053,698.860657 
	C231.042511,697.893127 230.096512,696.989136 229.897583,695.943176 
	C229.596313,694.358887 229.814835,692.675720 229.812195,690.603271 
	C229.985367,690.027161 230.158829,689.882263 230.611252,689.544800 
z"/>
</svg>