<svg version="1.1" id="Layer_1" xmlns="http://www.w3.org/2000/svg" xmlns:xlink="http://www.w3.org/1999/xlink" x="0px" y="0px"
	 width="100%" viewBox="0 0 1000 1000" enable-background="new 0 0 1000 1000" xml:space="preserve">
<path fill="#101727" opacity="1.000000" stroke="none" 
	d="
M455.000000,1001.000000 
	C303.333344,1001.000000 152.166672,1001.000000 1.000000,1001.000000 
	C1.000000,667.666687 1.000000,334.333344 1.000000,1.000000 
	C334.333344,1.000000 667.666687,1.000000 1001.000000,1.000000 
	C1001.000000,334.333344 1001.000000,667.666687 1001.000000,1001.000000 
	C819.166687,1001.000000 637.333313,1001.000000 455.000000,1001.000000 
M524.501770,286.997742 
	C518.724609,286.997742 512.947449,286.997742 506.955170,286.997742 
	C501.473236,325.628418 496.070709,363.699677 490.668182,401.770935 
	C490.202148,401.778931 489.736145,401.786926 489.270111,401.794922 
	C483.204529,363.561981 477.138947,325.329041 471.104492,287.292297 
	C438.751740,287.292297 407.327393,287.292297 375.776917,287.292297 
	C375.776917,373.291687 375.776917,458.995941 375.776917,544.746216 
	C397.278900,544.746216 418.381012,544.746216 440.414093,544.746216 
	C440.414093,490.662842 440.414093,436.828796 440.414093,382.994781 
	C440.852600,382.976288 441.291107,382.957794 441.729645,382.939301 
	C450.137390,436.900177 458.545166,490.861084 466.947876,544.789673 
	C482.582855,544.789673 497.539001,544.789673 512.953613,544.789673 
	C521.073364,488.749237 529.172791,432.849213 537.272278,376.949188 
	C537.620972,376.967255 537.969727,376.985321 538.318481,377.003387 
	C538.318481,432.906616 538.318481,488.809875 538.318481,544.605835 
	C560.221802,544.605835 581.455261,544.605835 602.662964,544.605835 
	C602.662964,458.627899 602.662964,373.046478 602.662964,286.997742 
	C576.746887,286.997742 551.123840,286.997742 524.501770,286.997742 
M628.076477,460.516144 
	C624.006348,488.462524 619.936279,516.408936 615.814331,544.711060 
	C641.409668,544.711060 666.485413,544.711060 692.016724,544.711060 
	C693.476868,529.591248 694.925476,514.590759 696.395081,499.372742 
	C705.310730,499.372742 713.871216,499.372742 722.711853,499.372742 
	C724.048523,514.659973 725.361572,529.676575 726.679321,544.747559 
	C751.958984,544.747559 776.729858,544.747559 802.001831,544.747559 
	C787.859985,458.690613 773.772034,372.961273 759.713379,287.410553 
	C723.865601,287.410553 688.645264,287.410553 653.354614,287.410553 
	C649.875366,311.341461 646.472778,334.882599 643.026245,358.417328 
	C638.085083,392.158966 633.111633,425.895844 628.076477,460.516144 
M924.474548,715.010681 
	C927.898254,715.010681 931.321960,715.010681 934.737427,715.010681 
	C934.737427,692.329956 934.737427,670.404785 934.737427,648.279114 
	C645.792358,648.279114 357.120483,648.279114 68.351852,648.279114 
	C68.351852,670.613708 68.351852,692.656677 68.351852,715.010681 
	C353.636292,715.010681 638.558289,715.010681 924.474548,715.010681 
M241.378204,493.499939 
	C241.378204,510.576752 241.378204,527.653564 241.378204,544.683350 
	C264.652893,544.683350 287.074707,544.683350 309.934814,544.683350 
	C309.934814,542.572021 309.934845,540.774780 309.934845,538.977478 
	C309.934875,511.313202 309.892883,483.648804 309.996521,455.984924 
	C310.007538,453.052612 310.491791,449.999969 311.397278,447.211243 
	C328.096863,395.780975 344.896729,344.383270 361.659851,292.973633 
	C362.247345,291.171844 362.674500,289.317719 363.309570,287.002441 
	C341.254181,287.002441 319.938629,286.952271 298.625122,287.137787 
	C297.452972,287.147980 295.529358,288.947021 295.250122,290.201569 
	C291.057770,309.035126 286.973419,327.894623 283.094971,346.795471 
	C280.425812,359.802887 278.113159,372.883423 275.792969,385.130035 
	C269.900909,352.917480 263.895416,320.084808 257.899384,287.303955 
	C234.807602,287.303955 212.585724,287.303955 190.083496,287.303955 
	C190.503525,288.928650 190.775726,290.216339 191.168335,291.466187 
	C202.287323,326.862518 213.083649,362.364807 224.648392,397.615021 
	C234.781799,428.502441 245.467804,459.161499 241.378204,493.499939 
M395.616974,566.992615 
	C393.354034,566.992615 391.091095,566.992615 388.805084,566.992615 
	C387.641052,574.898987 386.565552,582.203979 385.490051,589.508972 
	C385.131409,589.458496 384.772766,589.408020 384.414124,589.357544 
	C383.247986,582.004089 382.081879,574.650635 380.903412,567.219482 
	C374.202789,567.219482 367.779724,567.219482 361.214325,567.219482 
	C361.214325,586.842896 361.214325,606.238892 361.214325,625.656189 
	C365.815613,625.656189 370.186127,625.656189 375.047791,625.656189 
	C375.047791,614.499329 375.047791,603.689209 375.047791,592.879089 
	C375.292175,592.871460 375.536560,592.863892 375.780945,592.856323 
	C377.245361,603.819336 378.709778,614.782410 380.173370,625.739258 
	C383.632751,625.739258 386.730621,625.739258 389.849854,625.739258 
	C390.992706,616.899902 392.101868,608.321106 393.211029,599.742310 
	C393.677979,599.755737 394.144958,599.769165 394.611908,599.782654 
	C394.611908,608.415955 394.611908,617.049255 394.611908,625.615845 
	C400.024780,625.615845 404.396851,625.615845 408.663605,625.615845 
	C408.663605,605.958801 408.663605,586.694031 408.663605,566.992615 
	C404.492554,566.992615 400.535950,566.992615 395.616974,566.992615 
M776.087341,594.933899 
	C777.454834,605.246216 778.822327,615.558472 780.182495,625.815735 
	C783.677979,625.815735 786.639038,625.815735 789.828796,625.815735 
	C790.972412,616.963013 792.095764,608.267029 793.219116,599.570984 
	C793.677551,599.572205 794.135925,599.573364 794.594360,599.574585 
	C794.594360,608.336731 794.594360,617.098938 794.594360,625.713257 
	C800.067444,625.713257 804.329468,625.713257 808.577148,625.713257 
	C808.577148,606.026001 808.577148,586.634460 808.577148,567.223572 
	C801.830688,567.223572 795.400024,567.223572 788.773560,567.223572 
	C787.672180,574.765259 786.598328,582.118225 785.524536,589.471252 
	C785.167725,589.442871 784.810974,589.414490 784.454163,589.386108 
	C783.253723,581.966736 782.053284,574.547363 780.885803,567.331543 
	C773.931091,567.331543 767.525330,567.331543 761.331543,567.331543 
	C761.331543,587.074585 761.331543,606.477295 761.331543,625.717407 
	C765.935730,625.717407 770.197937,625.717407 774.959839,625.717407 
	C774.959839,614.552185 774.959839,603.669800 774.959839,592.787476 
	C775.163208,592.780518 775.366577,592.773560 775.569946,592.766663 
	C775.720398,593.218933 775.870789,593.671204 776.087341,594.933899 
M240.335754,592.500488 
	C240.335754,584.069763 240.335754,575.639038 240.335754,567.286743 
	C234.856247,567.286743 229.956360,567.286743 224.996078,567.286743 
	C224.996078,582.553406 224.885391,597.526367 225.040024,612.496582 
	C225.124802,620.703735 230.329132,625.726501 239.318787,626.884033 
	C249.291580,628.168152 257.137604,624.328003 259.471100,617.003601 
	C259.670837,616.376526 259.864716,615.710754 259.865601,615.062683 
	C259.887360,599.125122 259.882629,583.187561 259.882629,567.196960 
	C254.785187,567.196960 249.842758,567.196960 244.430603,567.196960 
	C244.430603,569.026123 244.430618,570.653870 244.430588,572.281616 
	C244.430344,585.433105 244.474915,598.584961 244.377884,611.735779 
	C244.364532,613.548035 243.649109,615.355103 243.258713,617.164612 
	C242.408875,617.072937 241.559052,616.981201 240.709229,616.889526 
	C240.584732,609.093201 240.460220,601.296814 240.335754,592.500488 
M489.496216,566.989258 
	C485.395294,566.989258 481.294373,566.989258 477.289917,566.989258 
	C477.289917,586.988647 477.289917,606.391663 477.289917,625.980347 
	C485.567474,625.980347 493.552460,626.183533 501.522003,625.919678 
	C508.622589,625.684570 512.370850,622.649170 512.559753,616.217651 
	C512.931396,603.569031 512.884216,590.894836 512.535583,578.244324 
	C512.374512,572.398132 509.146912,569.082825 503.363495,568.043091 
	C499.144409,567.284485 494.783997,567.312073 489.496216,566.989258 
M687.989258,609.498413 
	C687.989258,614.929260 687.989258,620.360107 687.989258,625.981567 
	C696.554199,625.981567 704.537170,626.182983 712.505066,625.921509 
	C719.610718,625.688232 723.366760,622.659424 723.557068,616.235413 
	C723.931641,603.587646 723.892883,590.913635 723.535522,578.264282 
	C723.365906,572.260193 720.062561,568.661926 713.897949,567.981812 
	C705.401428,567.044373 696.800903,567.049438 687.989258,566.638855 
	C687.989258,581.215637 687.989258,594.857239 687.989258,609.498413 
M300.056915,567.220215 
	C295.964844,567.220215 291.872742,567.220215 287.339111,567.220215 
	C287.339111,574.602600 287.339111,581.661194 287.339111,588.719788 
	C286.995941,588.783691 286.652740,588.847656 286.309570,588.911560 
	C283.916626,581.624512 281.523682,574.337402 279.183228,567.210205 
	C274.651215,567.210205 270.543610,567.210205 266.266113,567.210205 
	C266.266113,586.829529 266.266113,606.224365 266.266113,625.731140 
	C270.558411,625.731140 274.615601,625.731140 279.140503,625.731140 
	C279.140503,617.875427 279.140503,610.290466 279.140503,602.705444 
	C279.360504,602.694580 279.580505,602.683716 279.800507,602.672791 
	C282.128815,610.405701 284.457092,618.138611 286.731476,625.692505 
	C291.551086,625.692505 295.955963,625.692505 300.591187,625.692505 
	C300.591187,606.241943 300.591187,587.111389 300.056915,567.220215 
M437.035889,573.589478 
	C437.035889,591.003662 437.035889,608.417786 437.035889,625.629456 
	C441.757080,625.629456 445.816132,625.629456 450.132233,625.629456 
	C450.132233,617.714539 450.132233,610.182495 450.132233,602.650391 
	C450.335022,602.615784 450.537842,602.581177 450.740631,602.546570 
	C453.115570,610.380676 455.490479,618.214722 457.785431,625.785034 
	C462.653748,625.785034 466.936340,625.785034 471.414825,625.785034 
	C471.414825,606.157410 471.414825,586.759033 471.414825,567.198853 
	C467.061951,567.198853 462.972137,567.198853 458.225281,567.198853 
	C458.225281,574.487732 458.225281,581.583252 458.225281,588.678711 
	C455.201904,582.491821 453.217896,576.213318 451.020142,570.010498 
	C450.608673,568.849182 449.411469,567.215881 448.457062,567.129883 
	C444.733002,566.794312 440.960815,566.992920 437.035889,566.992920 
	C437.035889,569.316162 437.035889,570.966248 437.035889,573.589478 
M219.334259,606.275574 
	C219.220505,597.459839 219.237579,588.639832 218.949097,579.829834 
	C218.740692,573.465454 215.204193,568.867188 209.259354,567.369019 
	C204.761230,566.235291 199.669250,566.082886 195.101837,566.917725 
	C188.054199,568.205994 184.167282,573.102966 183.970032,580.295776 
	C183.669403,591.257385 183.648804,602.244263 184.040756,613.201355 
	C184.320938,621.033813 190.165359,626.184326 198.480377,626.962036 
	C208.818695,627.929016 216.552185,623.876099 218.496231,616.120789 
	C219.213150,613.260742 219.078888,610.187378 219.334259,606.275574 
M322.013306,588.580627 
	C322.103607,585.252625 322.053101,581.910889 322.376801,578.605774 
	C322.464783,577.707581 323.681610,576.919861 324.380310,576.081482 
	C325.179962,576.967102 326.585907,577.799500 326.669220,578.747986 
	C326.955658,582.008728 326.779297,585.310059 326.779297,588.642578 
	C332.402069,588.642578 337.432739,588.642578 342.824402,588.642578 
	C342.530121,585.116699 342.398346,581.970093 341.981537,578.861694 
	C341.038879,571.831787 335.448792,566.959534 327.503296,566.065491 
	C318.095367,565.006897 310.209198,568.638184 307.743622,575.210327 
	C307.398132,576.131287 307.100464,577.138184 307.093018,578.107666 
	C307.001373,590.083862 306.736267,602.066040 307.016052,614.034912 
	C307.158081,620.110962 310.902039,624.007446 316.615143,626.116028 
	C322.133087,628.152649 326.938873,627.038452 329.471954,624.576965 
	C334.756165,625.348267 338.404419,625.880798 342.417786,626.466614 
	C342.417786,615.525452 342.417786,605.452209 342.417786,595.360291 
	C336.278748,595.360291 330.404572,595.360291 324.488892,595.360291 
	C324.488892,598.207520 323.583496,602.256165 324.652710,602.871033 
	C328.382263,605.015747 327.460083,608.122864 327.176025,610.884216 
	C326.961090,612.973877 325.466309,614.931946 324.541138,616.948608 
	C323.699005,614.816772 322.227356,612.713013 322.130737,610.547913 
	C321.819122,603.564209 322.013794,596.557922 322.013306,588.580627 
M609.093140,614.281494 
	C610.374084,625.898621 622.150024,628.428101 631.924927,626.578491 
	C642.716370,624.536499 647.193665,615.418579 644.522827,602.315552 
	C639.553650,602.315552 634.637573,602.315552 629.322021,602.315552 
	C629.322021,606.113647 629.529114,609.607056 629.218506,613.053833 
	C629.096985,614.402466 627.813293,615.646423 627.058838,616.937988 
	C626.113464,615.623230 624.519287,614.386047 624.351135,612.978455 
	C623.939148,609.528442 624.170532,605.999817 624.169128,602.502869 
	C624.166321,595.174866 624.018372,587.840210 624.319458,580.524292 
	C624.382202,578.998657 626.130676,577.542419 627.102295,576.054199 
	C627.864258,577.488525 629.158936,578.878113 629.283691,580.365906 
	C629.598938,584.127136 629.388184,587.932373 629.388184,592.012146 
	C633.612427,592.012146 637.257446,592.012146 640.902527,592.012146 
	C642.197510,592.012146 643.492493,592.012146 644.873535,592.012146 
	C644.873535,587.702881 645.036865,583.726624 644.836243,579.768860 
	C644.514038,573.411499 641.164673,568.799622 635.093201,567.354309 
	C630.531738,566.268372 625.467041,565.929565 620.864380,566.693176 
	C613.324890,567.943909 609.144409,572.895691 608.919800,580.514465 
	C608.596497,591.478882 608.963074,602.463684 609.093140,614.281494 
M586.589111,615.009521 
	C589.577026,614.444702 590.816101,615.647888 590.689331,618.705505 
	C590.593689,621.012939 590.896118,623.336853 591.022278,625.670654 
	C596.247620,625.670654 601.295532,625.670654 606.515747,625.670654 
	C603.490479,605.970276 600.520203,586.628113 597.559875,567.350586 
	C589.925232,567.350586 582.702576,567.350586 575.466980,567.350586 
	C572.801270,587.036865 570.182983,606.372681 567.548523,625.827881 
	C573.172913,625.827881 578.120605,625.827881 583.818054,625.827881 
	C583.818054,623.201965 583.630005,620.726562 583.900452,618.302307 
	C584.028381,617.155884 585.034180,616.107422 586.589111,615.009521 
M681.846008,601.475525 
	C680.061035,590.034668 678.276062,578.593811 676.504883,567.241577 
	C668.913391,567.241577 661.813171,567.241577 654.500977,567.241577 
	C651.837036,586.822205 649.202698,606.184937 646.542236,625.739990 
	C652.061890,625.739990 657.123657,625.739990 662.401978,625.739990 
	C662.640625,622.082092 662.863403,618.666565 663.085327,615.263794 
	C665.376282,615.263794 667.305664,615.263794 669.320618,615.263794 
	C669.602417,618.934631 669.865295,622.359192 670.126160,625.757446 
	C675.389099,625.757446 680.327026,625.757446 685.513306,625.757446 
	C684.285889,617.766479 683.101929,610.058289 681.846008,601.475525 
M525.341980,567.516541 
	C515.970520,572.845642 514.634277,588.772217 523.125000,595.707153 
	C526.849243,598.749084 530.912048,601.383484 534.878113,604.120300 
	C538.719116,606.770874 538.464966,610.637573 537.847229,614.447754 
	C537.692749,615.400879 536.128052,616.125305 535.211487,616.954834 
	C534.418762,615.903381 533.079468,614.918457 532.941833,613.787292 
	C532.607971,611.043457 532.833313,608.231628 532.833313,605.351440 
	C527.648987,605.351440 522.953125,605.351440 518.123657,605.351440 
	C518.252869,611.805420 517.231628,618.194458 522.537354,622.910461 
	C528.844177,628.516296 542.693176,628.556824 549.101929,623.012390 
	C550.203064,622.059753 551.205933,620.828796 551.836731,619.524475 
	C555.630615,611.679260 552.646057,599.008301 545.702332,593.753113 
	C542.528259,591.350830 539.113831,589.263062 535.780396,587.075378 
	C532.309753,584.797607 531.736694,581.555359 532.929626,577.934509 
	C533.197144,577.122620 534.515320,576.411621 535.471497,576.197266 
	C535.833679,576.116150 536.898499,577.515625 537.018494,578.331970 
	C537.323792,580.409424 537.276672,582.538757 537.368896,584.609253 
	C542.423462,584.609253 547.123657,584.609253 551.793945,584.609253 
	C552.103149,570.278320 547.759766,565.804382 533.891724,566.039612 
	C531.278870,566.083984 528.677185,566.786072 525.341980,567.516541 
M745.662048,606.521240 
	C745.662048,604.769714 745.662048,603.018188 745.662048,600.824829 
	C749.193665,600.824829 752.105652,600.824829 754.813904,600.824829 
	C754.813904,596.962708 754.813904,593.561340 754.813904,589.729004 
	C751.571106,589.729004 748.670593,589.729004 745.864197,589.729004 
	C745.864197,585.992554 745.864197,582.708435 745.864197,578.866699 
	C749.268066,578.866699 752.496399,578.866699 755.687012,578.866699 
	C755.687012,574.690491 755.687012,571.083435 755.687012,567.238892 
	C747.099792,567.238892 738.713501,567.238892 730.236023,567.238892 
	C730.236023,586.878235 730.236023,606.274109 730.236023,625.685120 
	C739.201111,625.685120 747.921021,625.685120 756.546021,625.685120 
	C756.546021,621.628662 756.546021,617.900818 756.546021,613.813110 
	C752.763733,613.813110 749.323242,613.813110 745.662048,613.813110 
	C745.662048,611.463501 745.662048,609.482483 745.662048,606.521240 
M836.809631,618.411255 
	C834.935181,600.242126 844.241211,584.393799 847.559692,567.204407 
	C842.985779,567.204407 838.548767,567.204407 833.919373,567.204407 
	C832.524963,574.469055 831.162903,581.565308 829.800781,588.661499 
	C829.606384,588.645264 829.411987,588.629028 829.217529,588.612854 
	C827.995178,581.477051 826.772766,574.341309 825.565918,567.296448 
	C820.772583,567.296448 816.398376,567.296448 811.659424,567.296448 
	C816.624512,586.817017 825.269836,605.273865 821.811279,625.661865 
	C827.428650,625.661865 831.996765,625.661865 836.809631,625.661865 
	C836.809631,623.335876 836.809631,621.359009 836.809631,618.411255 
M172.910400,597.577698 
	C175.870377,587.506348 178.830338,577.434937 181.866699,567.103638 
	C176.938858,567.103638 172.626862,567.103638 167.969604,567.103638 
	C166.574036,574.265259 165.185730,581.389465 163.797424,588.513733 
	C163.587784,588.483765 163.378143,588.453857 163.168518,588.423889 
	C161.981369,581.415161 160.794220,574.406433 159.575806,567.213074 
	C154.940079,567.213074 150.499329,567.213074 145.644028,567.213074 
	C150.497696,586.604980 159.331604,605.064880 155.709763,625.742676 
	C161.281845,625.742676 165.851486,625.742676 169.879639,625.742676 
	C170.842392,616.403809 171.771667,607.389587 172.910400,597.577698 
M430.588135,625.056030 
	C430.588135,605.786438 430.588135,586.516907 430.588135,567.272705 
	C425.148315,567.272705 420.230865,567.272705 415.326813,567.272705 
	C415.326813,586.958374 415.326813,606.354370 415.326813,625.797607 
	C420.419922,625.797607 425.220947,625.797607 430.588135,625.056030 
z"/>
<path fill="#E60E0F" opacity="1.000000" stroke="none" 
	d="
M525.001343,286.997742 
	C551.123840,286.997742 576.746887,286.997742 602.662964,286.997742 
	C602.662964,373.046478 602.662964,458.627899 602.662964,544.605835 
	C581.455261,544.605835 560.221802,544.605835 538.318481,544.605835 
	C538.318481,488.809875 538.318481,432.906616 538.318481,377.003387 
	C537.969727,376.985321 537.620972,376.967255 537.272278,376.949188 
	C529.172791,432.849213 521.073364,488.749237 512.953613,544.789673 
	C497.539001,544.789673 482.582855,544.789673 466.947876,544.789673 
	C458.545166,490.861084 450.137390,436.900177 441.729645,382.939301 
	C441.291107,382.957794 440.852600,382.976288 440.414093,382.994781 
	C440.414093,436.828796 440.414093,490.662842 440.414093,544.746216 
	C418.381012,544.746216 397.278900,544.746216 375.776917,544.746216 
	C375.776917,458.995941 375.776917,373.291687 375.776917,287.292297 
	C407.327393,287.292297 438.751740,287.292297 471.104492,287.292297 
	C477.138947,325.329041 483.204529,363.561981 489.270111,401.794922 
	C489.736145,401.786926 490.202148,401.778931 490.668182,401.770935 
	C496.070709,363.699677 501.473236,325.628418 506.955170,286.997742 
	C512.947449,286.997742 518.724609,286.997742 525.001343,286.997742 
z"/>
<path fill="#E60E0F" opacity="1.000000" stroke="none" 
	d="
M628.114258,460.075439 
	C633.111633,425.895844 638.085083,392.158966 643.026245,358.417328 
	C646.472778,334.882599 649.875366,311.341461 653.354614,287.410553 
	C688.645264,287.410553 723.865601,287.410553 759.713379,287.410553 
	C773.772034,372.961273 787.859985,458.690613 802.001831,544.747559 
	C776.729858,544.747559 751.958984,544.747559 726.679321,544.747559 
	C725.361572,529.676575 724.048523,514.659973 722.711853,499.372742 
	C713.871216,499.372742 705.310730,499.372742 696.395081,499.372742 
	C694.925476,514.590759 693.476868,529.591248 692.016724,544.711060 
	C666.485413,544.711060 641.409668,544.711060 615.814331,544.711060 
	C619.936279,516.408936 624.006348,488.462524 628.114258,460.075439 
M718.064148,428.305908 
	C715.249817,401.354279 712.435547,374.402679 709.621216,347.451050 
	C709.343445,347.432678 709.065613,347.414276 708.787842,347.395874 
	C704.125671,382.400726 699.463501,417.405609 694.760437,452.718079 
	C704.208191,452.718079 712.449158,452.718079 721.058533,452.718079 
	C720.052673,444.664856 719.087402,436.936646 718.064148,428.305908 
z"/>
<path fill="#E20E10" opacity="1.000000" stroke="none" 
	d="
M923.977417,715.010681 
	C638.558289,715.010681 353.636292,715.010681 68.351852,715.010681 
	C68.351852,692.656677 68.351852,670.613708 68.351852,648.279114 
	C357.120483,648.279114 645.792358,648.279114 934.737427,648.279114 
	C934.737427,670.404785 934.737427,692.329956 934.737427,715.010681 
	C931.321960,715.010681 927.898254,715.010681 923.977417,715.010681 
M434.313202,704.039001 
	C437.425476,704.930969 440.537750,705.822937 444.776764,707.037842 
	C444.776764,697.610962 444.776764,689.841492 444.776764,682.071960 
	C445.148560,682.066956 445.520355,682.061951 445.892181,682.056946 
	C446.942108,689.900879 447.992035,697.744751 449.060791,705.729126 
	C451.483246,705.729126 453.564148,705.729126 455.856750,705.729126 
	C456.946075,697.664062 458.004059,689.831299 459.062012,681.998596 
	C459.479065,682.039001 459.896118,682.079407 460.313171,682.119812 
	C460.313171,689.899841 460.313171,697.679871 460.313171,705.641235 
	C463.881439,705.641235 466.925690,705.641235 470.054443,705.641235 
	C470.054443,690.702148 470.054443,676.124817 470.054443,660.999451 
	C466.318817,660.999451 462.850800,661.179565 459.411041,660.945007 
	C456.417358,660.740845 455.288666,661.924866 454.988373,664.812927 
	C454.458496,669.909302 453.615814,674.973145 452.904144,680.050598 
	C452.696106,680.039612 452.488068,680.028564 452.280029,680.017517 
	C451.201752,673.719727 450.123474,667.421936 449.087982,661.374023 
	C443.811096,661.374023 439.242737,661.374023 434.280212,661.374023 
	C434.280212,675.538025 434.280212,689.330444 434.313202,704.039001 
M303.334381,693.115356 
	C303.926880,697.335693 304.519379,701.555969 305.092163,705.635864 
	C307.723053,705.635864 309.790131,705.635864 311.896576,705.635864 
	C312.978821,697.464661 314.014557,689.644653 315.050293,681.824585 
	C315.490784,681.858765 315.931305,681.892944 316.371826,681.927124 
	C316.371826,689.850952 316.371826,697.774719 316.371826,705.707520 
	C319.944550,705.707520 322.878235,705.707520 325.938110,705.707520 
	C325.938110,690.728638 325.938110,676.046936 325.938110,661.184509 
	C321.073517,661.184509 316.621033,661.184509 311.767395,661.184509 
	C310.778931,667.462524 309.805664,673.644104 308.832397,679.825684 
	C308.625397,679.799133 308.418396,679.772583 308.211395,679.746094 
	C307.171387,673.573914 306.131378,667.401672 305.102448,661.295166 
	C299.982941,661.295166 295.394440,661.295166 290.667145,661.295166 
	C290.667145,676.294250 290.667145,690.993774 290.667145,705.720093 
	C294.011688,705.720093 296.952881,705.720093 300.689758,705.720093 
	C300.689758,697.638733 300.689758,689.829346 300.689758,682.019958 
	C301.094116,682.008484 301.498505,681.997070 301.902863,681.985596 
	C302.328918,685.403870 302.754974,688.822083 303.334381,693.115356 
M541.140625,689.352295 
	C541.318420,692.006287 541.342102,694.681641 541.705383,697.309998 
	C542.522583,703.222412 547.092834,706.675415 554.258057,706.993286 
	C561.185913,707.300598 566.983398,704.024841 567.281555,698.071777 
	C567.893188,685.861145 567.465210,673.598389 567.465210,661.322327 
	C563.748962,661.322327 560.175659,661.322327 556.140015,661.322327 
	C556.140015,665.926270 556.140076,670.221008 556.140076,674.515808 
	C556.140076,678.678955 556.351501,682.856079 556.078979,687.001282 
	C555.819763,690.944580 557.324036,695.235962 555.062988,698.871704 
	C554.471863,698.837036 553.880676,698.802368 553.289551,698.767639 
	C553.289551,686.319092 553.289551,673.870605 553.289551,661.278198 
	C548.832825,661.278198 545.259949,661.278198 541.140259,661.278198 
	C541.140259,670.491943 541.140259,679.439392 541.140625,689.352295 
M426.282379,703.847229 
	C427.501129,700.515564 429.536591,697.240845 429.773560,693.840759 
	C430.315704,686.062622 429.980957,678.223206 429.997772,670.408691 
	C430.004395,667.333618 429.998840,664.258606 429.998840,661.398926 
	C425.595001,661.398926 422.027924,661.398926 418.214294,661.398926 
	C417.950989,674.148621 418.396484,686.552368 417.964111,698.909241 
	C417.118042,698.905029 416.271973,698.900757 415.425903,698.896545 
	C415.425903,686.382568 415.425903,673.868591 415.425903,661.305725 
	C410.771393,661.305725 407.202881,661.305725 403.617462,661.305725 
	C403.617462,673.364075 403.538300,685.118958 403.654602,696.871887 
	C403.704498,701.914490 406.943604,704.600586 411.421448,706.053528 
	C416.432800,707.679504 421.218994,707.325989 426.282379,703.847229 
M261.468903,687.062622 
	C262.239807,688.362793 263.602356,689.630554 263.675659,690.968933 
	C263.943512,695.860779 263.781647,700.776184 263.781647,705.621216 
	C267.997131,705.621216 271.390045,705.621216 274.648468,705.621216 
	C274.648468,690.563293 274.648468,675.877319 274.648468,661.268372 
	C270.919891,661.268372 267.641418,661.268372 263.777985,661.268372 
	C263.777985,665.948547 263.910889,670.395264 263.681854,674.823242 
	C263.626556,675.891968 262.373871,676.898743 261.671844,677.934082 
	C261.127991,676.932312 260.152618,675.946594 260.114532,674.925964 
	C259.943939,670.355103 260.040283,665.774353 260.040283,661.397278 
	C255.786713,661.397278 252.378540,661.397278 248.982574,661.397278 
	C248.982574,676.351746 248.982574,690.917847 248.982574,705.732056 
	C252.701477,705.732056 256.103210,705.732056 259.685272,705.732056 
	C260.001129,699.421692 260.304749,693.356384 261.468903,687.062622 
M509.664520,697.462036 
	C509.664520,700.201111 509.664520,702.940247 509.664520,705.967163 
	C516.144897,705.967163 521.792114,706.241028 527.401306,705.895874 
	C534.006409,705.489563 536.075745,703.081360 536.145874,696.332825 
	C536.235779,687.689880 536.144470,679.044922 536.120544,670.400879 
	C536.108337,666.016418 534.001831,662.700562 529.756531,662.099670 
	C523.287109,661.184021 516.697449,661.117432 509.664032,660.658020 
	C509.664032,673.257507 509.664032,684.863403 509.664520,697.462036 
M355.664520,694.484375 
	C355.664520,698.216980 355.664520,701.949585 355.664520,705.966614 
	C362.157593,705.966614 367.806030,706.243225 373.415649,705.894653 
	C380.018005,705.484558 382.076447,703.078125 382.146210,696.318604 
	C382.235474,687.675720 382.132233,679.030945 382.125214,670.386963 
	C382.121826,666.222961 380.183411,662.851013 376.222626,662.230469 
	C369.613525,661.195007 362.854370,661.117126 355.664032,660.600586 
	C355.664032,672.269531 355.664032,682.879822 355.664520,694.484375 
M176.101440,685.686707 
	C175.242630,684.462891 174.504440,682.314331 173.503036,682.183777 
	C170.115540,681.741882 166.634766,682.015259 163.116928,682.015259 
	C162.982162,683.421936 162.710007,684.271545 162.860840,685.037842 
	C163.468002,688.122681 164.508179,691.157043 164.762741,694.261292 
	C164.882706,695.724060 163.586838,697.302917 162.932526,698.829163 
	C162.198929,697.420105 160.871597,696.027771 160.831192,694.599121 
	C160.619598,687.117371 160.694992,679.625854 160.771439,672.138855 
	C160.785263,670.784668 161.268677,669.435181 161.535294,668.083557 
	C162.175842,668.017456 162.816406,667.951355 163.456955,667.885315 
	C164.113937,671.085632 164.770920,674.285950 165.479813,677.739136 
	C168.755508,677.739136 172.165268,677.739136 175.820450,677.739136 
	C175.820450,675.046387 176.140320,672.550903 175.758911,670.167725 
	C174.722595,663.692322 169.246796,659.805908 161.890991,660.005188 
	C154.904144,660.194580 149.924728,663.879944 149.511978,670.393127 
	C148.966354,679.003418 149.088043,687.675598 149.322662,696.310303 
	C149.559494,705.027344 160.534180,710.986267 166.625702,704.477661 
	C169.941864,705.180725 172.672974,705.759766 176.102707,706.486938 
	C176.102707,699.213867 176.102707,692.931335 176.101440,685.686707 
M699.927551,695.002930 
	C699.939575,687.519043 700.155579,680.028381 699.907959,672.553101 
	C699.643188,664.560913 694.787415,660.123230 686.793396,660.004761 
	C678.756042,659.885681 673.690796,664.116699 673.262817,672.065491 
	C672.869995,679.360962 672.915100,686.701782 673.196716,694.006042 
	C673.512390,702.195068 677.665161,706.370605 685.362915,706.983887 
	C693.197876,707.608032 698.106506,703.846985 699.927551,695.002930 
M718.865540,700.621033 
	C720.686462,706.709045 722.407166,707.408325 729.863892,705.164062 
	C729.863892,690.555603 729.863892,675.980957 729.863892,661.317261 
	C726.761902,661.317261 724.022827,661.317261 720.873535,661.317261 
	C720.873535,667.315857 720.873535,673.019287 720.873535,679.044922 
	C720.200073,678.549133 719.817627,678.419250 719.735535,678.184387 
	C718.475403,674.578430 717.216064,670.971191 716.032349,667.339539 
	C713.714783,660.229309 712.675964,659.693237 705.007812,661.790527 
	C705.007812,676.382629 705.007812,690.958862 705.007812,705.707336 
	C708.093445,705.707336 710.830078,705.707336 714.099365,705.707336 
	C714.099365,699.484741 714.099365,693.522278 714.099365,687.559875 
	C714.339417,687.550964 714.579407,687.542053 714.819458,687.533142 
	C716.089233,691.634827 717.359009,695.736572 718.865540,700.621033 
M801.662109,694.484253 
	C801.662109,698.221069 801.662109,701.957825 801.662109,705.629639 
	C805.265686,705.629639 807.996277,705.629639 811.027588,705.629639 
	C811.027588,699.358765 811.027588,693.445007 811.027588,687.531250 
	C813.358765,692.557251 814.753784,697.793823 816.665039,702.834717 
	C817.179626,704.191895 819.128906,705.456604 820.659180,705.863892 
	C822.611633,706.383484 824.807068,705.989868 826.931885,705.989868 
	C826.931885,690.672668 826.931885,676.102478 826.931885,661.423584 
	C823.774231,661.423584 820.918396,661.423584 817.616394,661.423584 
	C817.616394,667.466919 817.616394,673.104126 817.616394,678.741394 
	C815.643005,675.223511 814.392639,671.640076 813.217651,668.032043 
	C810.583130,659.942810 810.519775,659.892578 801.661621,661.752197 
	C801.661621,672.261169 801.661621,682.875549 801.662109,694.484253 
M144.219101,702.324646 
	C144.219101,688.729309 144.219101,675.133911 144.219101,661.418457 
	C140.783081,661.418457 137.925171,661.418457 134.622711,661.418457 
	C134.622711,667.459717 134.622711,673.100464 134.622711,679.294312 
	C133.966995,678.459656 133.679794,678.234802 133.579712,677.945251 
	C132.440735,674.649292 131.297638,671.354187 130.218750,668.038269 
	C127.583099,659.937744 127.532021,659.896179 119.097885,661.658997 
	C119.097885,676.331482 119.097885,691.008057 119.097885,705.625916 
	C122.276779,705.625916 125.005531,705.625916 128.038040,705.625916 
	C128.038040,699.354431 128.038040,693.443909 128.038040,687.533447 
	C130.410248,692.726196 131.845612,698.129822 133.841843,703.317749 
	C134.325409,704.574463 136.702179,705.888245 138.132721,705.809021 
	C140.229630,705.692871 143.903870,708.034729 144.219101,702.324646 
M871.038696,689.856812 
	C871.176514,688.632080 871.314270,687.407349 871.498657,685.768433 
	C876.654480,687.813965 874.444824,691.863953 874.744385,694.878174 
	C875.098083,698.437378 874.827393,702.058716 874.827393,705.663269 
	C878.648804,705.663269 881.722290,705.663269 885.538391,705.663269 
	C883.567871,697.778687 888.962952,689.050415 880.795532,682.718323 
	C886.580566,679.370483 887.078552,666.885437 881.546387,663.023865 
	C880.881226,662.559509 880.080383,662.070435 879.309937,662.010498 
	C872.930725,661.513977 866.543823,661.115845 859.923096,660.672180 
	C859.923096,676.234741 859.923096,690.812073 859.923096,705.605957 
	C863.712830,705.605957 867.239014,705.605957 871.038452,705.605957 
	C871.038452,700.409363 871.038452,695.595093 871.038696,689.856812 
M761.203430,706.989075 
	C771.869873,704.505737 774.741394,699.835205 773.137390,687.278442 
	C769.601196,687.278442 766.034241,687.278442 761.883789,687.278442 
	C761.883789,690.507385 762.030579,693.477905 761.792664,696.417175 
	C761.722961,697.278259 760.560059,698.050964 759.898193,698.864136 
	C759.216187,698.100281 757.954163,697.346313 757.941040,696.571167 
	C757.793945,687.910583 757.787231,679.245911 757.917114,670.585022 
	C757.929626,669.748169 759.111511,668.928833 759.750549,668.101379 
	C760.484070,668.983032 761.761047,669.813354 761.850220,670.755920 
	C762.126526,673.677429 761.951172,676.641663 761.951172,679.666870 
	C766.164246,679.666870 769.727051,679.666870 773.763062,679.666870 
	C773.593201,676.858704 773.497559,674.403198 773.287109,671.957581 
	C772.581665,663.760620 768.343750,660.013062 759.832397,660.001831 
	C751.698303,659.991089 746.585876,664.255981 746.206909,672.042786 
	C745.859070,679.190002 745.790100,686.385193 746.190186,693.526062 
	C746.742126,703.377136 750.294556,706.495117 761.203430,706.989075 
M598.817627,700.917236 
	C599.565369,696.461853 600.313110,692.006470 601.098022,687.329712 
	C596.475464,687.329712 592.915710,687.329712 588.920715,687.329712 
	C588.920715,690.454773 589.105957,693.273438 588.822510,696.044067 
	C588.720154,697.044312 587.493164,697.929443 586.779419,698.867126 
	C586.113892,697.900452 584.888855,696.944031 584.870850,695.965393 
	C584.717834,687.654846 584.717651,679.338989 584.873962,671.028503 
	C584.892517,670.041138 586.125549,669.076599 586.795593,668.101440 
	C587.521973,669.161194 588.749451,670.165100 588.875183,671.291870 
	C589.180847,674.030945 588.974670,676.827148 588.974670,680.000000 
	C591.389893,680.000000 593.187866,680.000000 594.985779,680.000000 
	C596.752258,680.000000 598.518738,680.000000 600.816040,680.000000 
	C600.591919,676.536926 600.465576,673.757141 600.222473,670.987671 
	C599.602966,663.930786 595.313049,660.277893 587.402344,660.002625 
	C579.890442,659.741272 573.879089,663.475769 573.544922,669.951233 
	C573.058899,679.367920 573.316101,688.873291 574.094971,698.271362 
	C574.302734,700.778137 577.092834,703.865051 579.517273,705.240295 
	C585.978943,708.906067 593.213379,707.163391 598.817627,700.917236 
M613.679138,700.227905 
	C615.272888,699.252808 616.866577,698.277771 619.132690,696.891296 
	C619.557678,700.826538 619.816833,703.226501 620.087158,705.729492 
	C623.868286,705.729492 627.289490,705.729492 630.993347,705.729492 
	C628.669678,690.710693 626.393127,675.996460 624.112427,661.255249 
	C618.471558,661.255249 613.367249,661.255249 607.953613,661.255249 
	C605.914368,676.156372 603.903381,690.851013 601.864746,705.747986 
	C606.016785,705.747986 609.455872,705.747986 613.004089,705.747986 
	C613.209900,704.044617 613.387878,702.571960 613.679138,700.227905 
M241.354843,683.275024 
	C238.031784,680.783691 234.580536,678.443359 231.419937,675.760620 
	C227.930557,672.798828 228.447678,669.569641 232.587845,668.243835 
	C233.026978,670.117493 233.461121,671.969849 233.840149,673.587036 
	C237.392395,673.587036 240.617294,673.587036 243.805115,673.587036 
	C244.384583,663.159973 238.166550,658.133362 227.929047,660.302063 
	C223.657028,661.206970 219.776886,662.725464 218.984451,667.656433 
	C217.867096,674.609192 218.555664,680.978699 225.522842,684.998657 
	C227.529373,686.156372 229.700836,687.388916 231.096390,689.144043 
	C232.511749,690.924011 233.375854,693.328308 233.837845,695.590515 
	C234.026901,696.516357 232.526672,697.787048 231.794922,698.900818 
	C230.984589,697.871399 229.741913,696.944946 229.466553,695.788208 
	C229.066422,694.107117 229.363922,692.260010 229.363922,690.384521 
	C225.520325,690.384521 222.304947,690.384521 219.124756,690.384521 
	C218.099030,703.785278 226.134750,710.262695 238.210281,705.802368 
	C240.562653,704.933472 243.272644,702.613831 244.043030,700.357483 
	C245.965195,694.727722 245.858276,688.894104 241.354843,683.275024 
M789.455078,705.990479 
	C791.906921,705.990479 794.358704,705.990479 796.921021,705.990479 
	C796.921021,702.720276 796.921021,700.028442 796.921021,697.228760 
	C794.110107,697.045593 791.703430,696.888794 789.318726,696.733459 
	C789.318726,693.312256 789.318726,690.385376 789.318726,687.319153 
	C791.651367,687.075745 793.724426,686.859436 795.742432,686.648926 
	C795.742432,683.625488 795.742432,680.923523 795.742432,678.218628 
	C793.372253,678.049500 791.429443,677.910828 789.395996,677.765686 
	C789.395996,675.055847 789.395996,672.678711 789.395996,670.244751 
	C791.996521,670.039185 794.247253,669.861206 796.567749,669.677734 
	C796.567749,666.697632 796.567749,664.115784 796.567749,661.330505 
	C790.231079,661.330505 784.177734,661.330505 778.108154,661.330505 
	C778.108154,676.331177 778.108154,691.006409 778.108154,705.990417 
	C781.859070,705.990417 785.168518,705.990417 789.455078,705.990479 
M904.290894,661.009583 
	C899.520569,661.009583 894.750305,661.009583 889.973145,661.009583 
	C889.973145,676.319458 889.973145,690.895142 889.973145,705.651245 
	C896.510315,705.651245 902.734558,705.651245 909.042358,705.651245 
	C909.042358,702.719727 909.042358,700.129700 909.042358,697.261169 
	C906.357117,697.089050 903.940308,696.934143 901.382690,696.770203 
	C901.382690,693.414978 901.382690,690.367615 901.382690,687.266968 
	C903.795044,687.031372 905.871338,686.828613 907.852417,686.635132 
	C907.852417,683.609680 907.852417,681.023010 907.852417,678.321655 
	C905.479919,678.076416 903.408936,677.862244 901.292114,677.643372 
	C901.292114,675.040710 901.292114,672.780273 901.292114,670.248596 
	C903.887451,670.053162 906.265930,669.873962 909.346802,669.641968 
	C907.305725,666.493652 912.249512,661.277893 904.290894,661.009583 
M112.199501,669.940613 
	C112.934837,667.219299 113.670174,664.497986 114.523743,661.339111 
	C107.214676,661.339111 101.157669,661.339111 94.931625,661.339111 
	C94.931625,676.248047 94.931625,690.826416 94.931625,705.679565 
	C101.425446,705.679565 107.650528,705.679565 114.079361,705.679565 
	C114.079361,702.779297 114.079361,700.190552 114.079361,697.332520 
	C111.312546,697.090942 108.762527,696.868225 106.353226,696.657837 
	C106.353226,693.235718 106.353226,690.309937 106.353226,687.275024 
	C108.729164,687.045471 110.805038,686.844971 112.882523,686.644226 
	C112.882523,683.671631 112.882523,681.081177 112.882523,678.311401 
	C110.547386,678.088562 108.465065,677.889832 106.436180,677.696167 
	C106.436180,674.968628 106.436180,672.587585 106.436180,669.981812 
	C108.324593,669.981812 109.816719,669.981812 112.199501,669.940613 
M349.199493,669.940613 
	C349.934814,667.219299 350.670166,664.497986 351.523712,661.339172 
	C344.214691,661.339172 338.157684,661.339172 331.931641,661.339172 
	C331.931641,676.248047 331.931641,690.826477 331.931641,705.679565 
	C338.425446,705.679565 344.650543,705.679565 351.079346,705.679565 
	C351.079346,702.779297 351.079346,700.190552 351.079346,697.332520 
	C348.308594,697.090576 345.764252,696.868408 343.353210,696.657898 
	C343.353210,693.235718 343.353210,690.309937 343.353210,687.275085 
	C345.729126,687.045593 347.805023,686.845093 349.882538,686.644409 
	C349.882538,683.671753 349.882538,681.081299 349.882538,678.311340 
	C347.544128,678.088257 345.470734,677.890442 343.436218,677.696350 
	C343.436218,674.968689 343.436218,672.587646 343.436218,669.981812 
	C345.324615,669.981812 346.816742,669.981812 349.199493,669.940613 
M500.341980,661.009521 
	C495.906250,661.009521 491.470551,661.009521 486.951996,661.009521 
	C486.951996,676.287476 486.951996,690.862366 486.951996,705.667053 
	C493.465790,705.667053 499.689117,705.667053 506.063782,705.667053 
	C506.063782,702.751038 506.063782,700.162903 506.063782,697.294128 
	C503.282776,697.076416 500.734955,696.876953 498.364105,696.691345 
	C498.364105,693.211609 498.364105,690.282104 498.364105,687.264893 
	C500.751831,687.037964 502.830688,686.840393 504.872864,686.646301 
	C504.872864,683.651062 504.872864,681.060669 504.872864,678.332520 
	C502.523438,678.091553 500.451599,677.879089 498.447998,677.673584 
	C498.447998,674.951538 498.447998,672.579407 498.447998,670.248047 
	C501.105194,670.016418 503.352081,669.820618 505.516357,669.631958 
	C505.516357,666.588684 505.516357,664.007507 505.516357,661.238403 
	C503.895264,661.150635 502.593262,661.080139 500.341980,661.009521 
M849.000732,693.487183 
	C849.000732,685.738892 849.000732,677.990540 849.000732,670.304016 
	C851.624573,670.049561 853.548828,669.862976 855.432129,669.680359 
	C855.432129,666.620972 855.432129,663.925903 855.432129,661.271240 
	C847.073730,661.271240 839.148499,661.271240 831.036194,661.271240 
	C831.036194,664.241211 831.036194,666.930603 831.036194,669.779602 
	C833.170837,669.947327 834.937622,670.086182 837.307495,670.272461 
	C837.307495,682.203003 837.307495,693.901855 837.307495,705.675781 
	C841.500671,705.675781 845.059448,705.675781 849.000732,705.675781 
	C849.000732,701.730408 849.000732,698.105164 849.000732,693.487183 
M635.273499,679.535278 
	C635.273499,688.265686 635.273499,696.996033 635.273499,705.601746 
	C639.658875,705.601746 643.211609,705.601746 647.136353,705.601746 
	C647.136353,693.629883 647.136353,682.052063 647.136353,670.336975 
	C649.539246,670.063721 651.582703,669.831299 653.533813,669.609436 
	C653.533813,666.585266 653.533813,664.006897 653.533813,661.332764 
	C645.151367,661.332764 637.101074,661.332764 628.926575,661.332764 
	C628.926575,664.255615 628.926575,666.843323 628.926575,669.633789 
	C631.070496,669.898499 632.971130,670.133179 635.273865,670.417480 
	C635.273865,673.288086 635.273865,675.917419 635.273499,679.535278 
M191.186325,661.200684 
	C187.777908,661.200684 184.369492,661.200684 180.972427,661.200684 
	C180.972427,676.361755 180.972427,690.914368 180.972427,705.581787 
	C187.135666,705.581787 192.983948,705.581787 198.725235,705.581787 
	C198.725235,702.578918 198.725235,699.987244 198.725235,697.299561 
	C196.376038,697.055969 194.323059,696.843079 191.844299,696.585999 
	C191.844299,684.761963 191.844299,673.318787 191.186325,661.200684 
M668.989075,672.520325 
	C668.989075,668.764221 668.989075,665.008118 668.989075,661.390930 
	C664.800049,661.390930 661.387512,661.390930 658.008545,661.390930 
	C658.008545,676.357727 658.008545,690.941956 658.008545,705.691406 
	C661.756287,705.691406 665.157043,705.691406 668.989075,705.691406 
	C668.989075,694.770752 668.989075,684.141907 668.989075,672.520325 
M202.665390,691.496155 
	C202.665390,696.233276 202.665390,700.970398 202.665390,705.597534 
	C206.958450,705.597534 210.352280,705.597534 213.689377,705.597534 
	C213.689377,690.613647 213.689377,676.023193 213.689377,661.317871 
	C209.976440,661.317871 206.569489,661.317871 202.664902,661.317871 
	C202.664902,671.243713 202.664902,680.870361 202.665390,691.496155 
M391.577179,661.011963 
	C388.540161,660.564026 387.535309,661.859985 387.609680,664.900696 
	C387.788208,672.198120 387.666046,679.502869 387.665649,686.804688 
	C387.665314,693.045654 387.665558,699.286560 387.665558,705.710327 
	C391.738007,705.710327 395.128723,705.710327 398.688141,705.710327 
	C398.688141,690.764343 398.688141,676.098511 398.688141,661.011047 
	C396.442383,661.011047 394.483185,661.011047 391.577179,661.011963 
z"/>
<path fill="#E60E0F" opacity="1.000000" stroke="none" 
	d="
M241.378479,492.999939 
	C245.467804,459.161499 234.781799,428.502441 224.648392,397.615021 
	C213.083649,362.364807 202.287323,326.862518 191.168335,291.466187 
	C190.775726,290.216339 190.503525,288.928650 190.083496,287.303955 
	C212.585724,287.303955 234.807602,287.303955 257.899384,287.303955 
	C263.895416,320.084808 269.900909,352.917480 275.792969,385.130035 
	C278.113159,372.883423 280.425812,359.802887 283.094971,346.795471 
	C286.973419,327.894623 291.057770,309.035126 295.250122,290.201569 
	C295.529358,288.947021 297.452972,287.147980 298.625122,287.137787 
	C319.938629,286.952271 341.254181,287.002441 363.309570,287.002441 
	C362.674500,289.317719 362.247345,291.171844 361.659851,292.973633 
	C344.896729,344.383270 328.096863,395.780975 311.397278,447.211243 
	C310.491791,449.999969 310.007538,453.052612 309.996521,455.984924 
	C309.892883,483.648804 309.934875,511.313202 309.934845,538.977478 
	C309.934845,540.774780 309.934814,542.572021 309.934814,544.683350 
	C287.074707,544.683350 264.652893,544.683350 241.378204,544.683350 
	C241.378204,527.653564 241.378204,510.576752 241.378479,492.999939 
z"/>
<path fill="#FBFBFC" opacity="1.000000" stroke="none" 
	d="
M396.098145,566.992615 
	C400.535950,566.992615 404.492554,566.992615 408.663605,566.992615 
	C408.663605,586.694031 408.663605,605.958801 408.663605,625.615845 
	C404.396851,625.615845 400.024780,625.615845 394.611908,625.615845 
	C394.611908,617.049255 394.611908,608.415955 394.611908,599.782654 
	C394.144958,599.769165 393.677979,599.755737 393.211029,599.742310 
	C392.101868,608.321106 390.992706,616.899902 389.849854,625.739258 
	C386.730621,625.739258 383.632751,625.739258 380.173370,625.739258 
	C378.709778,614.782410 377.245361,603.819336 375.780945,592.856323 
	C375.536560,592.863892 375.292175,592.871460 375.047791,592.879089 
	C375.047791,603.689209 375.047791,614.499329 375.047791,625.656189 
	C370.186127,625.656189 365.815613,625.656189 361.214325,625.656189 
	C361.214325,606.238892 361.214325,586.842896 361.214325,567.219482 
	C367.779724,567.219482 374.202789,567.219482 380.903412,567.219482 
	C382.081879,574.650635 383.247986,582.004089 384.414124,589.357544 
	C384.772766,589.408020 385.131409,589.458496 385.490051,589.508972 
	C386.565552,582.203979 387.641052,574.898987 388.805084,566.992615 
	C391.091095,566.992615 393.354034,566.992615 396.098145,566.992615 
z"/>
<path fill="#FBFBFC" opacity="1.000000" stroke="none" 
	d="
M776.054321,594.528687 
	C775.870789,593.671204 775.720398,593.218933 775.569946,592.766663 
	C775.366577,592.773560 775.163208,592.780518 774.959839,592.787476 
	C774.959839,603.669800 774.959839,614.552185 774.959839,625.717407 
	C770.197937,625.717407 765.935730,625.717407 761.331543,625.717407 
	C761.331543,606.477295 761.331543,587.074585 761.331543,567.331543 
	C767.525330,567.331543 773.931091,567.331543 780.885803,567.331543 
	C782.053284,574.547363 783.253723,581.966736 784.454163,589.386108 
	C784.810974,589.414490 785.167725,589.442871 785.524536,589.471252 
	C786.598328,582.118225 787.672180,574.765259 788.773560,567.223572 
	C795.400024,567.223572 801.830688,567.223572 808.577148,567.223572 
	C808.577148,586.634460 808.577148,606.026001 808.577148,625.713257 
	C804.329468,625.713257 800.067444,625.713257 794.594360,625.713257 
	C794.594360,617.098938 794.594360,608.336731 794.594360,599.574585 
	C794.135925,599.573364 793.677551,599.572205 793.219116,599.570984 
	C792.095764,608.267029 790.972412,616.963013 789.828796,625.815735 
	C786.639038,625.815735 783.677979,625.815735 780.182495,625.815735 
	C778.822327,615.558472 777.454834,605.246216 776.054321,594.528687 
z"/>
<path fill="#FBFBFB" opacity="1.000000" stroke="none" 
	d="
M240.335739,593.000488 
	C240.460220,601.296814 240.584732,609.093201 240.709229,616.889526 
	C241.559052,616.981201 242.408875,617.072937 243.258713,617.164612 
	C243.649109,615.355103 244.364532,613.548035 244.377884,611.735779 
	C244.474915,598.584961 244.430344,585.433105 244.430588,572.281616 
	C244.430618,570.653870 244.430603,569.026123 244.430603,567.196960 
	C249.842758,567.196960 254.785187,567.196960 259.882629,567.196960 
	C259.882629,583.187561 259.887360,599.125122 259.865601,615.062683 
	C259.864716,615.710754 259.670837,616.376526 259.471100,617.003601 
	C257.137604,624.328003 249.291580,628.168152 239.318787,626.884033 
	C230.329132,625.726501 225.124802,620.703735 225.040024,612.496582 
	C224.885391,597.526367 224.996078,582.553406 224.996078,567.286743 
	C229.956360,567.286743 234.856247,567.286743 240.335754,567.286743 
	C240.335754,575.639038 240.335754,584.069763 240.335739,593.000488 
z"/>
<path fill="#FAFAFA" opacity="1.000000" stroke="none" 
	d="
M489.991394,566.989258 
	C494.783997,567.312073 499.144409,567.284485 503.363495,568.043091 
	C509.146912,569.082825 512.374512,572.398132 512.535583,578.244324 
	C512.884216,590.894836 512.931396,603.569031 512.559753,616.217651 
	C512.370850,622.649170 508.622589,625.684570 501.522003,625.919678 
	C493.552460,626.183533 485.567474,625.980347 477.289917,625.980347 
	C477.289917,606.391663 477.289917,586.988647 477.289917,566.989258 
	C481.294373,566.989258 485.395294,566.989258 489.991394,566.989258 
M492.670746,591.505554 
	C492.670746,599.594788 492.670746,607.684082 492.670746,615.773315 
	C493.189301,616.005188 493.707855,616.237122 494.226440,616.469055 
	C495.176880,614.916687 496.909821,613.384705 496.950867,611.808655 
	C497.218353,601.528564 497.235199,591.236389 497.011139,580.955200 
	C496.978485,579.457092 495.222626,577.996521 494.264130,576.518616 
	C493.732971,576.747253 493.201843,576.975952 492.670715,577.204590 
	C492.670715,581.639526 492.670715,586.074524 492.670746,591.505554 
z"/>
<path fill="#FAFAFA" opacity="1.000000" stroke="none" 
	d="
M687.989258,608.998596 
	C687.989258,594.857239 687.989258,581.215637 687.989258,566.638855 
	C696.800903,567.049438 705.401428,567.044373 713.897949,567.981812 
	C720.062561,568.661926 723.365906,572.260193 723.535522,578.264282 
	C723.892883,590.913635 723.931641,603.587646 723.557068,616.235413 
	C723.366760,622.659424 719.610718,625.688232 712.505066,625.921509 
	C704.537170,626.182983 696.554199,625.981567 687.989258,625.981567 
	C687.989258,620.360107 687.989258,614.929260 687.989258,608.998596 
M708.194336,597.497437 
	C708.178345,592.022095 708.376343,586.532410 708.009644,581.080688 
	C707.906006,579.539917 706.150879,578.110291 705.153198,576.629700 
	C704.808716,576.931885 704.464233,577.234131 704.119751,577.536316 
	C704.119751,590.301697 704.119751,603.067139 704.119751,615.832581 
	C704.622925,616.023071 705.126038,616.213562 705.629211,616.404053 
	C706.452759,614.747864 707.841370,613.140259 707.988831,611.425781 
	C708.357544,607.141296 708.162964,602.808289 708.194336,597.497437 
z"/>
<path fill="#F8F9F9" opacity="1.000000" stroke="none" 
	d="
M300.324036,567.600525 
	C300.591187,587.111389 300.591187,606.241943 300.591187,625.692505 
	C295.955963,625.692505 291.551086,625.692505 286.731476,625.692505 
	C284.457092,618.138611 282.128815,610.405701 279.800507,602.672791 
	C279.580505,602.683716 279.360504,602.694580 279.140503,602.705444 
	C279.140503,610.290466 279.140503,617.875427 279.140503,625.731140 
	C274.615601,625.731140 270.558411,625.731140 266.266113,625.731140 
	C266.266113,606.224365 266.266113,586.829529 266.266113,567.210205 
	C270.543610,567.210205 274.651215,567.210205 279.183228,567.210205 
	C281.523682,574.337402 283.916626,581.624512 286.309570,588.911560 
	C286.652740,588.847656 286.995941,588.783691 287.339111,588.719788 
	C287.339111,581.661194 287.339111,574.602600 287.339111,567.220215 
	C291.872742,567.220215 295.964844,567.220215 300.324036,567.600525 
z"/>
<path fill="#F8F9F9" opacity="1.000000" stroke="none" 
	d="
M437.035889,573.102905 
	C437.035889,570.966248 437.035889,569.316162 437.035889,566.992920 
	C440.960815,566.992920 444.733002,566.794312 448.457062,567.129883 
	C449.411469,567.215881 450.608673,568.849182 451.020142,570.010498 
	C453.217896,576.213318 455.201904,582.491821 458.225281,588.678711 
	C458.225281,581.583252 458.225281,574.487732 458.225281,567.198853 
	C462.972137,567.198853 467.061951,567.198853 471.414825,567.198853 
	C471.414825,586.759033 471.414825,606.157410 471.414825,625.785034 
	C466.936340,625.785034 462.653748,625.785034 457.785431,625.785034 
	C455.490479,618.214722 453.115570,610.380676 450.740631,602.546570 
	C450.537842,602.581177 450.335022,602.615784 450.132233,602.650391 
	C450.132233,610.182495 450.132233,617.714539 450.132233,625.629456 
	C445.816132,625.629456 441.757080,625.629456 437.035889,625.629456 
	C437.035889,608.417786 437.035889,591.003662 437.035889,573.102905 
z"/>
<path fill="#FBFBFC" opacity="1.000000" stroke="none" 
	d="
M219.333557,606.743408 
	C219.078888,610.187378 219.213150,613.260742 218.496231,616.120789 
	C216.552185,623.876099 208.818695,627.929016 198.480377,626.962036 
	C190.165359,626.184326 184.320938,621.033813 184.040756,613.201355 
	C183.648804,602.244263 183.669403,591.257385 183.970032,580.295776 
	C184.167282,573.102966 188.054199,568.205994 195.101837,566.917725 
	C199.669250,566.082886 204.761230,566.235291 209.259354,567.369019 
	C215.204193,568.867188 218.740692,573.465454 218.949097,579.829834 
	C219.237579,588.639832 219.220505,597.459839 219.333557,606.743408 
M203.902969,599.494019 
	C203.869476,592.835693 203.940903,586.173584 203.705048,579.522461 
	C203.662964,578.335571 202.347412,577.193909 201.619858,576.031372 
	C200.797379,577.119690 199.276535,578.197449 199.259995,579.297791 
	C199.087402,590.782043 199.091446,602.270874 199.263611,613.755127 
	C199.279907,614.841614 200.771667,615.906006 201.578430,616.980652 
	C202.292053,615.809998 203.536942,614.677246 203.623505,613.461914 
	C203.930374,609.153320 203.841736,604.816467 203.902969,599.494019 
z"/>
<path fill="#F9F9F9" opacity="1.000000" stroke="none" 
	d="
M322.013306,589.070435 
	C322.013794,596.557922 321.819122,603.564209 322.130737,610.547913 
	C322.227356,612.713013 323.699005,614.816772 324.541138,616.948608 
	C325.466309,614.931946 326.961090,612.973877 327.176025,610.884216 
	C327.460083,608.122864 328.382263,605.015747 324.652710,602.871033 
	C323.583496,602.256165 324.488892,598.207520 324.488892,595.360291 
	C330.404572,595.360291 336.278748,595.360291 342.417786,595.360291 
	C342.417786,605.452209 342.417786,615.525452 342.417786,626.466614 
	C338.404419,625.880798 334.756165,625.348267 329.471954,624.576965 
	C326.938873,627.038452 322.133087,628.152649 316.615143,626.116028 
	C310.902039,624.007446 307.158081,620.110962 307.016052,614.034912 
	C306.736267,602.066040 307.001373,590.083862 307.093018,578.107666 
	C307.100464,577.138184 307.398132,576.131287 307.743622,575.210327 
	C310.209198,568.638184 318.095367,565.006897 327.503296,566.065491 
	C335.448792,566.959534 341.038879,571.831787 341.981537,578.861694 
	C342.398346,581.970093 342.530121,585.116699 342.824402,588.642578 
	C337.432739,588.642578 332.402069,588.642578 326.779297,588.642578 
	C326.779297,585.310059 326.955658,582.008728 326.669220,578.747986 
	C326.585907,577.799500 325.179962,576.967102 324.380310,576.081482 
	C323.681610,576.919861 322.464783,577.707581 322.376801,578.605774 
	C322.053101,581.910889 322.103607,585.252625 322.013306,589.070435 
z"/>
<path fill="#F9F9F9" opacity="1.000000" stroke="none" 
	d="
M609.064209,613.860596 
	C608.963074,602.463684 608.596497,591.478882 608.919800,580.514465 
	C609.144409,572.895691 613.324890,567.943909 620.864380,566.693176 
	C625.467041,565.929565 630.531738,566.268372 635.093201,567.354309 
	C641.164673,568.799622 644.514038,573.411499 644.836243,579.768860 
	C645.036865,583.726624 644.873535,587.702881 644.873535,592.012146 
	C643.492493,592.012146 642.197510,592.012146 640.902527,592.012146 
	C637.257446,592.012146 633.612427,592.012146 629.388184,592.012146 
	C629.388184,587.932373 629.598938,584.127136 629.283691,580.365906 
	C629.158936,578.878113 627.864258,577.488525 627.102295,576.054199 
	C626.130676,577.542419 624.382202,578.998657 624.319458,580.524292 
	C624.018372,587.840210 624.166321,595.174866 624.169128,602.502869 
	C624.170532,605.999817 623.939148,609.528442 624.351135,612.978455 
	C624.519287,614.386047 626.113464,615.623230 627.058838,616.937988 
	C627.813293,615.646423 629.096985,614.402466 629.218506,613.053833 
	C629.529114,609.607056 629.322021,606.113647 629.322021,602.315552 
	C634.637573,602.315552 639.553650,602.315552 644.522827,602.315552 
	C647.193665,615.418579 642.716370,624.536499 631.924927,626.578491 
	C622.150024,628.428101 610.374084,625.898621 609.064209,613.860596 
z"/>
<path fill="#FBFBFB" opacity="1.000000" stroke="none" 
	d="
M586.115723,615.012085 
	C585.034180,616.107422 584.028381,617.155884 583.900452,618.302307 
	C583.630005,620.726562 583.818054,623.201965 583.818054,625.827881 
	C578.120605,625.827881 573.172913,625.827881 567.548523,625.827881 
	C570.182983,606.372681 572.801270,587.036865 575.466980,567.350586 
	C582.702576,567.350586 589.925232,567.350586 597.559875,567.350586 
	C600.520203,586.628113 603.490479,605.970276 606.515747,625.670654 
	C601.295532,625.670654 596.247620,625.670654 591.022278,625.670654 
	C590.896118,623.336853 590.593689,621.012939 590.689331,618.705505 
	C590.816101,615.647888 589.577026,614.444702 586.115723,615.012085 
M588.055725,588.674866 
	C587.864258,587.827820 587.672791,586.980835 587.481323,586.133789 
	C587.080139,586.137512 586.678894,586.141296 586.277710,586.145020 
	C585.482910,592.327148 584.688110,598.509277 583.891968,604.701904 
	C586.223511,604.701904 587.961792,604.701904 589.748474,604.701904 
	C589.177795,599.435547 588.641602,594.487122 588.055725,588.674866 
z"/>
<path fill="#FBFBFB" opacity="1.000000" stroke="none" 
	d="
M681.881958,601.912842 
	C683.101929,610.058289 684.285889,617.766479 685.513306,625.757446 
	C680.327026,625.757446 675.389099,625.757446 670.126160,625.757446 
	C669.865295,622.359192 669.602417,618.934631 669.320618,615.263794 
	C667.305664,615.263794 665.376282,615.263794 663.085327,615.263794 
	C662.863403,618.666565 662.640625,622.082092 662.401978,625.739990 
	C657.123657,625.739990 652.061890,625.739990 646.542236,625.739990 
	C649.202698,606.184937 651.837036,586.822205 654.500977,567.241577 
	C661.813171,567.241577 668.913391,567.241577 676.504883,567.241577 
	C678.276062,578.593811 680.061035,590.034668 681.881958,601.912842 
M666.299500,605.018188 
	C667.103699,604.675415 668.630493,604.265808 668.605896,603.999695 
	C668.055176,598.042969 667.333740,592.101990 666.644531,586.158081 
	C666.196350,586.152771 665.748230,586.147522 665.300049,586.142212 
	C664.534668,591.924438 663.715698,597.701111 663.114929,603.500366 
	C663.071228,603.922485 664.610168,604.508606 666.299500,605.018188 
z"/>
<path fill="#FAFAFA" opacity="1.000000" stroke="none" 
	d="
M525.706177,567.350586 
	C528.677185,566.786072 531.278870,566.083984 533.891724,566.039612 
	C547.759766,565.804382 552.103149,570.278320 551.793945,584.609253 
	C547.123657,584.609253 542.423462,584.609253 537.368896,584.609253 
	C537.276672,582.538757 537.323792,580.409424 537.018494,578.331970 
	C536.898499,577.515625 535.833679,576.116150 535.471497,576.197266 
	C534.515320,576.411621 533.197144,577.122620 532.929626,577.934509 
	C531.736694,581.555359 532.309753,584.797607 535.780396,587.075378 
	C539.113831,589.263062 542.528259,591.350830 545.702332,593.753113 
	C552.646057,599.008301 555.630615,611.679260 551.836731,619.524475 
	C551.205933,620.828796 550.203064,622.059753 549.101929,623.012390 
	C542.693176,628.556824 528.844177,628.516296 522.537354,622.910461 
	C517.231628,618.194458 518.252869,611.805420 518.123657,605.351440 
	C522.953125,605.351440 527.648987,605.351440 532.833313,605.351440 
	C532.833313,608.231628 532.607971,611.043457 532.941833,613.787292 
	C533.079468,614.918457 534.418762,615.903381 535.211487,616.954834 
	C536.128052,616.125305 537.692749,615.400879 537.847229,614.447754 
	C538.464966,610.637573 538.719116,606.770874 534.878113,604.120300 
	C530.912048,601.383484 526.849243,598.749084 523.125000,595.707153 
	C514.634277,588.772217 515.970520,572.845642 525.706177,567.350586 
z"/>
<path fill="#FCFCFD" opacity="1.000000" stroke="none" 
	d="
M745.662048,607.011353 
	C745.662048,609.482483 745.662048,611.463501 745.662048,613.813110 
	C749.323242,613.813110 752.763733,613.813110 756.546021,613.813110 
	C756.546021,617.900818 756.546021,621.628662 756.546021,625.685120 
	C747.921021,625.685120 739.201111,625.685120 730.236023,625.685120 
	C730.236023,606.274109 730.236023,586.878235 730.236023,567.238892 
	C738.713501,567.238892 747.099792,567.238892 755.687012,567.238892 
	C755.687012,571.083435 755.687012,574.690491 755.687012,578.866699 
	C752.496399,578.866699 749.268066,578.866699 745.864197,578.866699 
	C745.864197,582.708435 745.864197,585.992554 745.864197,589.729004 
	C748.670593,589.729004 751.571106,589.729004 754.813904,589.729004 
	C754.813904,593.561340 754.813904,596.962708 754.813904,600.824829 
	C752.105652,600.824829 749.193665,600.824829 745.662048,600.824829 
	C745.662048,603.018188 745.662048,604.769714 745.662048,607.011353 
z"/>
<path fill="#F9F9F9" opacity="1.000000" stroke="none" 
	d="
M836.809631,618.896729 
	C836.809631,621.359009 836.809631,623.335876 836.809631,625.661865 
	C831.996765,625.661865 827.428650,625.661865 821.811279,625.661865 
	C825.269836,605.273865 816.624512,586.817017 811.659424,567.296448 
	C816.398376,567.296448 820.772583,567.296448 825.565918,567.296448 
	C826.772766,574.341309 827.995178,581.477051 829.217529,588.612854 
	C829.411987,588.629028 829.606384,588.645264 829.800781,588.661499 
	C831.162903,581.565308 832.524963,574.469055 833.919373,567.204407 
	C838.548767,567.204407 842.985779,567.204407 847.559692,567.204407 
	C844.241211,584.393799 834.935181,600.242126 836.809631,618.896729 
z"/>
<path fill="#F9F9F9" opacity="1.000000" stroke="none" 
	d="
M172.805664,597.976562 
	C171.771667,607.389587 170.842392,616.403809 169.879639,625.742676 
	C165.851486,625.742676 161.281845,625.742676 155.709763,625.742676 
	C159.331604,605.064880 150.497696,586.604980 145.644028,567.213074 
	C150.499329,567.213074 154.940079,567.213074 159.575806,567.213074 
	C160.794220,574.406433 161.981369,581.415161 163.168518,588.423889 
	C163.378143,588.453857 163.587784,588.483765 163.797424,588.513733 
	C165.185730,581.389465 166.574036,574.265259 167.969604,567.103638 
	C172.626862,567.103638 176.938858,567.103638 181.866699,567.103638 
	C178.830338,577.434937 175.870377,587.506348 172.805664,597.976562 
z"/>
<path fill="#F8F8F8" opacity="1.000000" stroke="none" 
	d="
M430.305054,625.426819 
	C425.220947,625.797607 420.419922,625.797607 415.326813,625.797607 
	C415.326813,606.354370 415.326813,586.958374 415.326813,567.272705 
	C420.230865,567.272705 425.148315,567.272705 430.588135,567.272705 
	C430.588135,586.516907 430.588135,605.786438 430.305054,625.426819 
z"/>
<path fill="#131727" opacity="1.000000" stroke="none" 
	d="
M718.093140,428.757172 
	C719.087402,436.936646 720.052673,444.664856 721.058533,452.718079 
	C712.449158,452.718079 704.208191,452.718079 694.760437,452.718079 
	C699.463501,417.405609 704.125671,382.400726 708.787842,347.395874 
	C709.065613,347.414276 709.343445,347.432678 709.621216,347.451050 
	C712.435547,374.402679 715.249817,401.354279 718.093140,428.757172 
z"/>
<path fill="#161727" opacity="1.000000" stroke="none" 
	d="
M434.296692,703.580933 
	C434.280212,689.330444 434.280212,675.538025 434.280212,661.374023 
	C439.242737,661.374023 443.811096,661.374023 449.087982,661.374023 
	C450.123474,667.421936 451.201752,673.719727 452.280029,680.017517 
	C452.488068,680.028564 452.696106,680.039612 452.904144,680.050598 
	C453.615814,674.973145 454.458496,669.909302 454.988373,664.812927 
	C455.288666,661.924866 456.417358,660.740845 459.411041,660.945007 
	C462.850800,661.179565 466.318817,660.999451 470.054443,660.999451 
	C470.054443,676.124817 470.054443,690.702148 470.054443,705.641235 
	C466.925690,705.641235 463.881439,705.641235 460.313171,705.641235 
	C460.313171,697.679871 460.313171,689.899841 460.313171,682.119812 
	C459.896118,682.079407 459.479065,682.039001 459.062012,681.998596 
	C458.004059,689.831299 456.946075,697.664062 455.856750,705.729126 
	C453.564148,705.729126 451.483246,705.729126 449.060791,705.729126 
	C447.992035,697.744751 446.942108,689.900879 445.892181,682.056946 
	C445.520355,682.061951 445.148560,682.066956 444.776764,682.071960 
	C444.776764,689.841492 444.776764,697.610962 444.776764,707.037842 
	C440.537750,705.822937 437.425476,704.930969 434.296692,703.580933 
z"/>
<path fill="#161727" opacity="1.000000" stroke="none" 
	d="
M303.257690,692.677856 
	C302.754974,688.822083 302.328918,685.403870 301.902863,681.985596 
	C301.498505,681.997070 301.094116,682.008484 300.689758,682.019958 
	C300.689758,689.829346 300.689758,697.638733 300.689758,705.720093 
	C296.952881,705.720093 294.011688,705.720093 290.667145,705.720093 
	C290.667145,690.993774 290.667145,676.294250 290.667145,661.295166 
	C295.394440,661.295166 299.982941,661.295166 305.102448,661.295166 
	C306.131378,667.401672 307.171387,673.573914 308.211395,679.746094 
	C308.418396,679.772583 308.625397,679.799133 308.832397,679.825684 
	C309.805664,673.644104 310.778931,667.462524 311.767395,661.184509 
	C316.621033,661.184509 321.073517,661.184509 325.938110,661.184509 
	C325.938110,676.046936 325.938110,690.728638 325.938110,705.707520 
	C322.878235,705.707520 319.944550,705.707520 316.371826,705.707520 
	C316.371826,697.774719 316.371826,689.850952 316.371826,681.927124 
	C315.931305,681.892944 315.490784,681.858765 315.050293,681.824585 
	C314.014557,689.644653 312.978821,697.464661 311.896576,705.635864 
	C309.790131,705.635864 307.723053,705.635864 305.092163,705.635864 
	C304.519379,701.555969 303.926880,697.335693 303.257690,692.677856 
z"/>
<path fill="#141727" opacity="1.000000" stroke="none" 
	d="
M541.140442,688.869568 
	C541.140259,679.439392 541.140259,670.491943 541.140259,661.278198 
	C545.259949,661.278198 548.832825,661.278198 553.289551,661.278198 
	C553.289551,673.870605 553.289551,686.319092 553.289551,698.767639 
	C553.880676,698.802368 554.471863,698.837036 555.062988,698.871704 
	C557.324036,695.235962 555.819763,690.944580 556.078979,687.001282 
	C556.351501,682.856079 556.140076,678.678955 556.140076,674.515808 
	C556.140076,670.221008 556.140015,665.926270 556.140015,661.322327 
	C560.175659,661.322327 563.748962,661.322327 567.465210,661.322327 
	C567.465210,673.598389 567.893188,685.861145 567.281555,698.071777 
	C566.983398,704.024841 561.185913,707.300598 554.258057,706.993286 
	C547.092834,706.675415 542.522583,703.222412 541.705383,697.309998 
	C541.342102,694.681641 541.318420,692.006287 541.140442,688.869568 
z"/>
<path fill="#141727" opacity="1.000000" stroke="none" 
	d="
M425.980865,704.089600 
	C421.218994,707.325989 416.432800,707.679504 411.421448,706.053528 
	C406.943604,704.600586 403.704498,701.914490 403.654602,696.871887 
	C403.538300,685.118958 403.617462,673.364075 403.617462,661.305725 
	C407.202881,661.305725 410.771393,661.305725 415.425903,661.305725 
	C415.425903,673.868591 415.425903,686.382568 415.425903,698.896545 
	C416.271973,698.900757 417.118042,698.905029 417.964111,698.909241 
	C418.396484,686.552368 417.950989,674.148621 418.214294,661.398926 
	C422.027924,661.398926 425.595001,661.398926 429.998840,661.398926 
	C429.998840,664.258606 430.004395,667.333618 429.997772,670.408691 
	C429.980957,678.223206 430.315704,686.062622 429.773560,693.840759 
	C429.536591,697.240845 427.501129,700.515564 425.980865,704.089600 
z"/>
<path fill="#101727" opacity="1.000000" stroke="none" 
	d="
M261.038635,687.176880 
	C260.304749,693.356384 260.001129,699.421692 259.685272,705.732056 
	C256.103210,705.732056 252.701477,705.732056 248.982574,705.732056 
	C248.982574,690.917847 248.982574,676.351746 248.982574,661.397278 
	C252.378540,661.397278 255.786713,661.397278 260.040283,661.397278 
	C260.040283,665.774353 259.943939,670.355103 260.114532,674.925964 
	C260.152618,675.946594 261.127991,676.932312 261.671814,677.934082 
	C262.373871,676.898743 263.626556,675.891968 263.681854,674.823242 
	C263.910889,670.395264 263.777985,665.948547 263.777985,661.268372 
	C267.641418,661.268372 270.919891,661.268372 274.648468,661.268372 
	C274.648468,675.877319 274.648468,690.563293 274.648468,705.621216 
	C271.390045,705.621216 267.997131,705.621216 263.781647,705.621216 
	C263.781647,700.776184 263.943512,695.860779 263.675659,690.968933 
	C263.602356,689.630554 262.239807,688.362793 261.038635,687.176880 
z"/>
<path fill="#101727" opacity="1.000000" stroke="none" 
	d="
M509.664276,696.965698 
	C509.664032,684.863403 509.664032,673.257507 509.664032,660.658020 
	C516.697449,661.117432 523.287109,661.184021 529.756531,662.099670 
	C534.001831,662.700562 536.108337,666.016418 536.120544,670.400879 
	C536.144470,679.044922 536.235779,687.689880 536.145874,696.332825 
	C536.075745,703.081360 534.006409,705.489563 527.401306,705.895874 
	C521.792114,706.241028 516.144897,705.967163 509.664520,705.967163 
	C509.664520,702.940247 509.664520,700.201111 509.664276,696.965698 
M524.938599,679.564392 
	C524.938110,669.965088 524.938110,669.965088 521.286133,669.478333 
	C521.286133,678.895996 521.286133,688.296448 521.286133,697.696838 
	C521.793701,697.891357 522.301270,698.085938 522.808899,698.280518 
	C523.505615,696.690308 524.692627,695.133606 524.803955,693.503418 
	C525.097961,689.200500 524.925354,684.865662 524.938599,679.564392 
z"/>
<path fill="#101727" opacity="1.000000" stroke="none" 
	d="
M355.664276,693.987244 
	C355.664032,682.879822 355.664032,672.269531 355.664032,660.600586 
	C362.854370,661.117126 369.613525,661.195007 376.222626,662.230469 
	C380.183411,662.851013 382.121826,666.222961 382.125214,670.386963 
	C382.132233,679.030945 382.235474,687.675720 382.146210,696.318604 
	C382.076447,703.078125 380.018005,705.484558 373.415649,705.894653 
	C367.806030,706.243225 362.157593,705.966614 355.664520,705.966614 
	C355.664520,701.949585 355.664520,698.216980 355.664276,693.987244 
M370.938629,681.526001 
	C370.923553,678.534241 371.153687,675.511719 370.783997,672.564453 
	C370.613739,671.206909 369.269379,669.996643 368.457397,668.719604 
	C367.977112,668.985352 367.496826,669.251099 367.016541,669.516785 
	C367.016541,678.140503 367.007477,686.764160 367.031799,695.387817 
	C367.033997,696.170410 367.250641,696.952332 367.367706,697.734497 
	C367.828308,697.925049 368.288910,698.115662 368.749512,698.306213 
	C369.460052,696.864319 370.663513,695.462585 370.784668,693.972717 
	C371.093567,690.173462 370.919403,686.334900 370.938629,681.526001 
z"/>
<path fill="#141727" opacity="1.000000" stroke="none" 
	d="
M176.102081,686.167725 
	C176.102707,692.931335 176.102707,699.213867 176.102707,706.486938 
	C172.672974,705.759766 169.941864,705.180725 166.625702,704.477661 
	C160.534180,710.986267 149.559494,705.027344 149.322662,696.310303 
	C149.088043,687.675598 148.966354,679.003418 149.511978,670.393127 
	C149.924728,663.879944 154.904144,660.194580 161.890991,660.005188 
	C169.246796,659.805908 174.722595,663.692322 175.758911,670.167725 
	C176.140320,672.550903 175.820450,675.046387 175.820450,677.739136 
	C172.165268,677.739136 168.755508,677.739136 165.479813,677.739136 
	C164.770920,674.285950 164.113937,671.085632 163.456955,667.885315 
	C162.816406,667.951355 162.175842,668.017456 161.535294,668.083557 
	C161.268677,669.435181 160.785263,670.784668 160.771439,672.138855 
	C160.694992,679.625854 160.619598,687.117371 160.831192,694.599121 
	C160.871597,696.027771 162.198929,697.420105 162.932526,698.829163 
	C163.586838,697.302917 164.882706,695.724060 164.762741,694.261292 
	C164.508179,691.157043 163.468002,688.122681 162.860840,685.037842 
	C162.710007,684.271545 162.982162,683.421936 163.116928,682.015259 
	C166.634766,682.015259 170.115540,681.741882 173.503036,682.183777 
	C174.504440,682.314331 175.242630,684.462891 176.102081,686.167725 
z"/>
<path fill="#141727" opacity="1.000000" stroke="none" 
	d="
M699.891357,695.441467 
	C698.106506,703.846985 693.197876,707.608032 685.362915,706.983887 
	C677.665161,706.370605 673.512390,702.195068 673.196716,694.006042 
	C672.915100,686.701782 672.869995,679.360962 673.262817,672.065491 
	C673.690796,664.116699 678.756042,659.885681 686.793396,660.004761 
	C694.787415,660.123230 699.643188,664.560913 699.907959,672.553101 
	C700.155579,680.028381 699.939575,687.519043 699.891357,695.441467 
M688.728821,674.762695 
	C688.728210,674.264893 688.855347,673.723999 688.704529,673.276917 
	C688.119202,671.542480 687.445435,669.837891 686.804688,668.122192 
	C686.012085,669.853577 684.605164,671.560730 684.535706,673.320618 
	C684.267822,680.113342 684.349548,686.924316 684.479370,693.725159 
	C684.513489,695.511841 685.189514,697.286377 685.570679,699.066467 
	C686.278687,699.052917 686.986633,699.039368 687.694641,699.025818 
	C689.812683,691.434265 688.229004,683.460144 688.728821,674.762695 
z"/>
<path fill="#111727" opacity="1.000000" stroke="none" 
	d="
M718.747192,700.229614 
	C717.359009,695.736572 716.089233,691.634827 714.819458,687.533142 
	C714.579407,687.542053 714.339417,687.550964 714.099365,687.559875 
	C714.099365,693.522278 714.099365,699.484741 714.099365,705.707336 
	C710.830078,705.707336 708.093445,705.707336 705.007812,705.707336 
	C705.007812,690.958862 705.007812,676.382629 705.007812,661.790527 
	C712.675964,659.693237 713.714783,660.229309 716.032349,667.339539 
	C717.216064,670.971191 718.475403,674.578430 719.735535,678.184387 
	C719.817627,678.419250 720.200073,678.549133 720.873535,679.044922 
	C720.873535,673.019287 720.873535,667.315857 720.873535,661.317261 
	C724.022827,661.317261 726.761902,661.317261 729.863892,661.317261 
	C729.863892,675.980957 729.863892,690.555603 729.863892,705.164062 
	C722.407166,707.408325 720.686462,706.709045 718.747192,700.229614 
z"/>
<path fill="#111727" opacity="1.000000" stroke="none" 
	d="
M801.661865,693.987122 
	C801.661621,682.875549 801.661621,672.261169 801.661621,661.752197 
	C810.519775,659.892578 810.583130,659.942810 813.217651,668.032043 
	C814.392639,671.640076 815.643005,675.223511 817.616394,678.741394 
	C817.616394,673.104126 817.616394,667.466919 817.616394,661.423584 
	C820.918396,661.423584 823.774231,661.423584 826.931885,661.423584 
	C826.931885,676.102478 826.931885,690.672668 826.931885,705.989868 
	C824.807068,705.989868 822.611633,706.383484 820.659180,705.863892 
	C819.128906,705.456604 817.179626,704.191895 816.665039,702.834717 
	C814.753784,697.793823 813.358765,692.557251 811.027588,687.531250 
	C811.027588,693.445007 811.027588,699.358765 811.027588,705.629639 
	C807.996277,705.629639 805.265686,705.629639 801.662109,705.629639 
	C801.662109,701.957825 801.662109,698.221069 801.661865,693.987122 
z"/>
<path fill="#111727" opacity="1.000000" stroke="none" 
	d="
M144.214645,702.804810 
	C143.903870,708.034729 140.229630,705.692871 138.132721,705.809021 
	C136.702179,705.888245 134.325409,704.574463 133.841843,703.317749 
	C131.845612,698.129822 130.410248,692.726196 128.038040,687.533447 
	C128.038040,693.443909 128.038040,699.354431 128.038040,705.625916 
	C125.005531,705.625916 122.276779,705.625916 119.097885,705.625916 
	C119.097885,691.008057 119.097885,676.331482 119.097885,661.658997 
	C127.532021,659.896179 127.583099,659.937744 130.218750,668.038269 
	C131.297638,671.354187 132.440735,674.649292 133.579712,677.945251 
	C133.679794,678.234802 133.966995,678.459656 134.622711,679.294312 
	C134.622711,673.100464 134.622711,667.459717 134.622711,661.418457 
	C137.925171,661.418457 140.783081,661.418457 144.219101,661.418457 
	C144.219101,675.133911 144.219101,688.729309 144.214645,702.804810 
z"/>
<path fill="#111727" opacity="1.000000" stroke="none" 
	d="
M871.038574,690.318848 
	C871.038452,695.595093 871.038452,700.409363 871.038452,705.605957 
	C867.239014,705.605957 863.712830,705.605957 859.923096,705.605957 
	C859.923096,690.812073 859.923096,676.234741 859.923096,660.672180 
	C866.543823,661.115845 872.930725,661.513977 879.309937,662.010498 
	C880.080383,662.070435 880.881226,662.559509 881.546387,663.023865 
	C887.078552,666.885437 886.580566,679.370483 880.795532,682.718323 
	C888.962952,689.050415 883.567871,697.778687 885.538391,705.663269 
	C881.722290,705.663269 878.648804,705.663269 874.827393,705.663269 
	C874.827393,702.058716 875.098083,698.437378 874.744385,694.878174 
	C874.444824,691.863953 876.654480,687.813965 871.498657,685.768433 
	C871.314270,687.407349 871.176514,688.632080 871.038574,690.318848 
M873.826904,678.364380 
	C875.937866,672.679321 875.344666,670.381104 871.005493,669.170410 
	C871.005493,671.716125 870.828369,674.152039 871.102356,676.536255 
	C871.197144,677.361328 872.412292,678.057556 873.826904,678.364380 
z"/>
<path fill="#151727" opacity="1.000000" stroke="none" 
	d="
M760.783813,706.993408 
	C750.294556,706.495117 746.742126,703.377136 746.190186,693.526062 
	C745.790100,686.385193 745.859070,679.190002 746.206909,672.042786 
	C746.585876,664.255981 751.698303,659.991089 759.832397,660.001831 
	C768.343750,660.013062 772.581665,663.760620 773.287109,671.957581 
	C773.497559,674.403198 773.593201,676.858704 773.763062,679.666870 
	C769.727051,679.666870 766.164246,679.666870 761.951172,679.666870 
	C761.951172,676.641663 762.126526,673.677429 761.850220,670.755920 
	C761.761047,669.813354 760.484070,668.983032 759.750549,668.101379 
	C759.111511,668.928833 757.929626,669.748169 757.917114,670.585022 
	C757.787231,679.245911 757.793945,687.910583 757.941040,696.571167 
	C757.954163,697.346313 759.216187,698.100281 759.898193,698.864136 
	C760.560059,698.050964 761.722961,697.278259 761.792664,696.417175 
	C762.030579,693.477905 761.883789,690.507385 761.883789,687.278442 
	C766.034241,687.278442 769.601196,687.278442 773.137390,687.278442 
	C774.741394,699.835205 771.869873,704.505737 760.783813,706.993408 
z"/>
<path fill="#151727" opacity="1.000000" stroke="none" 
	d="
M598.593018,701.240051 
	C593.213379,707.163391 585.978943,708.906067 579.517273,705.240295 
	C577.092834,703.865051 574.302734,700.778137 574.094971,698.271362 
	C573.316101,688.873291 573.058899,679.367920 573.544922,669.951233 
	C573.879089,663.475769 579.890442,659.741272 587.402344,660.002625 
	C595.313049,660.277893 599.602966,663.930786 600.222473,670.987671 
	C600.465576,673.757141 600.591919,676.536926 600.816040,680.000000 
	C598.518738,680.000000 596.752258,680.000000 594.985779,680.000000 
	C593.187866,680.000000 591.389893,680.000000 588.974670,680.000000 
	C588.974670,676.827148 589.180847,674.030945 588.875183,671.291870 
	C588.749451,670.165100 587.521973,669.161194 586.795593,668.101440 
	C586.125549,669.076599 584.892517,670.041138 584.873962,671.028503 
	C584.717651,679.338989 584.717834,687.654846 584.870850,695.965393 
	C584.888855,696.944031 586.113892,697.900452 586.779419,698.867126 
	C587.493164,697.929443 588.720154,697.044312 588.822510,696.044067 
	C589.105957,693.273438 588.920715,690.454773 588.920715,687.329712 
	C592.915710,687.329712 596.475464,687.329712 601.098022,687.329712 
	C600.313110,692.006470 599.565369,696.461853 598.593018,701.240051 
z"/>
<path fill="#131727" opacity="1.000000" stroke="none" 
	d="
M613.622437,700.663635 
	C613.387878,702.571960 613.209900,704.044617 613.004089,705.747986 
	C609.455872,705.747986 606.016785,705.747986 601.864746,705.747986 
	C603.903381,690.851013 605.914368,676.156372 607.953613,661.255249 
	C613.367249,661.255249 618.471558,661.255249 624.112427,661.255249 
	C626.393127,675.996460 628.669678,690.710693 630.993347,705.729492 
	C627.289490,705.729492 623.868286,705.729492 620.087158,705.729492 
	C619.816833,703.226501 619.557678,700.826538 619.132690,696.891296 
	C616.866577,698.277771 615.272888,699.252808 613.622437,700.663635 
M617.337769,676.384521 
	C617.117981,675.016846 616.898254,673.649170 616.678528,672.281494 
	C616.443481,672.276184 616.208374,672.270813 615.973328,672.265503 
	C615.253052,678.067505 614.532715,683.869507 613.742676,690.233459 
	C616.018494,689.920898 617.369141,689.735352 618.826477,689.535156 
	C618.344727,685.076904 617.918762,681.134155 617.337769,676.384521 
z"/>
<path fill="#131727" opacity="1.000000" stroke="none" 
	d="
M241.607605,683.546387 
	C245.858276,688.894104 245.965195,694.727722 244.043030,700.357483 
	C243.272644,702.613831 240.562653,704.933472 238.210281,705.802368 
	C226.134750,710.262695 218.099030,703.785278 219.124756,690.384521 
	C222.304947,690.384521 225.520325,690.384521 229.363922,690.384521 
	C229.363922,692.260010 229.066422,694.107117 229.466553,695.788208 
	C229.741913,696.944946 230.984589,697.871399 231.794922,698.900818 
	C232.526672,697.787048 234.026901,696.516357 233.837845,695.590515 
	C233.375854,693.328308 232.511749,690.924011 231.096390,689.144043 
	C229.700836,687.388916 227.529373,686.156372 225.522842,684.998657 
	C218.555664,680.978699 217.867096,674.609192 218.984451,667.656433 
	C219.776886,662.725464 223.657028,661.206970 227.929047,660.302063 
	C238.166550,658.133362 244.384583,663.159973 243.805115,673.587036 
	C240.617294,673.587036 237.392395,673.587036 233.840149,673.587036 
	C233.461121,671.969849 233.026978,670.117493 232.587845,668.243835 
	C228.447678,669.569641 227.930557,672.798828 231.419937,675.760620 
	C234.580536,678.443359 238.031784,680.783691 241.607605,683.546387 
z"/>
<path fill="#111727" opacity="1.000000" stroke="none" 
	d="
M788.966553,705.990479 
	C785.168518,705.990417 781.859070,705.990417 778.108154,705.990417 
	C778.108154,691.006409 778.108154,676.331177 778.108154,661.330505 
	C784.177734,661.330505 790.231079,661.330505 796.567749,661.330505 
	C796.567749,664.115784 796.567749,666.697632 796.567749,669.677734 
	C794.247253,669.861206 791.996521,670.039185 789.395996,670.244751 
	C789.395996,672.678711 789.395996,675.055847 789.395996,677.765686 
	C791.429443,677.910828 793.372253,678.049500 795.742432,678.218628 
	C795.742432,680.923523 795.742432,683.625488 795.742432,686.648926 
	C793.724426,686.859436 791.651367,687.075745 789.318726,687.319153 
	C789.318726,690.385376 789.318726,693.312256 789.318726,696.733459 
	C791.703430,696.888794 794.110107,697.045593 796.921021,697.228760 
	C796.921021,700.028442 796.921021,702.720276 796.921021,705.990479 
	C794.358704,705.990479 791.906921,705.990479 788.966553,705.990479 
z"/>
<path fill="#111727" opacity="1.000000" stroke="none" 
	d="
M904.761169,661.010010 
	C912.249512,661.277893 907.305725,666.493652 909.346802,669.641968 
	C906.265930,669.873962 903.887451,670.053162 901.292114,670.248596 
	C901.292114,672.780273 901.292114,675.040710 901.292114,677.643372 
	C903.408936,677.862244 905.479919,678.076416 907.852417,678.321655 
	C907.852417,681.023010 907.852417,683.609680 907.852417,686.635132 
	C905.871338,686.828613 903.795044,687.031372 901.382690,687.266968 
	C901.382690,690.367615 901.382690,693.414978 901.382690,696.770203 
	C903.940308,696.934143 906.357117,697.089050 909.042358,697.261169 
	C909.042358,700.129700 909.042358,702.719727 909.042358,705.651245 
	C902.734558,705.651245 896.510315,705.651245 889.973145,705.651245 
	C889.973145,690.895142 889.973145,676.319458 889.973145,661.009583 
	C894.750305,661.009583 899.520569,661.009583 904.761169,661.010010 
z"/>
<path fill="#111727" opacity="1.000000" stroke="none" 
	d="
M111.754166,669.961182 
	C109.816719,669.981812 108.324593,669.981812 106.436180,669.981812 
	C106.436180,672.587585 106.436180,674.968628 106.436180,677.696167 
	C108.465065,677.889832 110.547386,678.088562 112.882523,678.311401 
	C112.882523,681.081177 112.882523,683.671631 112.882523,686.644226 
	C110.805038,686.844971 108.729164,687.045471 106.353226,687.275024 
	C106.353226,690.309937 106.353226,693.235718 106.353226,696.657837 
	C108.762527,696.868225 111.312546,697.090942 114.079361,697.332520 
	C114.079361,700.190552 114.079361,702.779297 114.079361,705.679565 
	C107.650528,705.679565 101.425446,705.679565 94.931625,705.679565 
	C94.931625,690.826416 94.931625,676.248047 94.931625,661.339111 
	C101.157669,661.339111 107.214676,661.339111 114.523743,661.339111 
	C113.670174,664.497986 112.934837,667.219299 111.754166,669.961182 
z"/>
<path fill="#111727" opacity="1.000000" stroke="none" 
	d="
M348.754150,669.961182 
	C346.816742,669.981812 345.324615,669.981812 343.436218,669.981812 
	C343.436218,672.587646 343.436218,674.968689 343.436218,677.696350 
	C345.470734,677.890442 347.544128,678.088257 349.882538,678.311340 
	C349.882538,681.081299 349.882538,683.671753 349.882538,686.644409 
	C347.805023,686.845093 345.729126,687.045593 343.353210,687.275085 
	C343.353210,690.309937 343.353210,693.235718 343.353210,696.657898 
	C345.764252,696.868408 348.308594,697.090576 351.079346,697.332520 
	C351.079346,700.190552 351.079346,702.779297 351.079346,705.679565 
	C344.650543,705.679565 338.425446,705.679565 331.931641,705.679565 
	C331.931641,690.826477 331.931641,676.248047 331.931641,661.339172 
	C338.157684,661.339172 344.214691,661.339172 351.523712,661.339172 
	C350.670166,664.497986 349.934814,667.219299 348.754150,669.961182 
z"/>
<path fill="#111727" opacity="1.000000" stroke="none" 
	d="
M500.816620,661.009583 
	C502.593262,661.080139 503.895264,661.150635 505.516357,661.238403 
	C505.516357,664.007507 505.516357,666.588684 505.516357,669.631958 
	C503.352081,669.820618 501.105194,670.016418 498.447998,670.248047 
	C498.447998,672.579407 498.447998,674.951538 498.447998,677.673584 
	C500.451599,677.879089 502.523438,678.091553 504.872864,678.332520 
	C504.872864,681.060669 504.872864,683.651062 504.872864,686.646301 
	C502.830688,686.840393 500.751831,687.037964 498.364105,687.264893 
	C498.364105,690.282104 498.364105,693.211609 498.364105,696.691345 
	C500.734955,696.876953 503.282776,697.076416 506.063782,697.294128 
	C506.063782,700.162903 506.063782,702.751038 506.063782,705.667053 
	C499.689117,705.667053 493.465790,705.667053 486.951996,705.667053 
	C486.951996,690.862366 486.951996,676.287476 486.951996,661.009521 
	C491.470551,661.009521 495.906250,661.009521 500.816620,661.009583 
z"/>
<path fill="#151727" opacity="1.000000" stroke="none" 
	d="
M849.000732,693.983521 
	C849.000732,698.105164 849.000732,701.730408 849.000732,705.675781 
	C845.059448,705.675781 841.500671,705.675781 837.307495,705.675781 
	C837.307495,693.901855 837.307495,682.203003 837.307495,670.272461 
	C834.937622,670.086182 833.170837,669.947327 831.036194,669.779602 
	C831.036194,666.930603 831.036194,664.241211 831.036194,661.271240 
	C839.148499,661.271240 847.073730,661.271240 855.432129,661.271240 
	C855.432129,663.925903 855.432129,666.620972 855.432129,669.680359 
	C853.548828,669.862976 851.624573,670.049561 849.000732,670.304016 
	C849.000732,677.990540 849.000732,685.738892 849.000732,693.983521 
z"/>
<path fill="#151727" opacity="1.000000" stroke="none" 
	d="
M635.273682,679.041016 
	C635.273865,675.917419 635.273865,673.288086 635.273865,670.417480 
	C632.971130,670.133179 631.070496,669.898499 628.926575,669.633789 
	C628.926575,666.843323 628.926575,664.255615 628.926575,661.332764 
	C637.101074,661.332764 645.151367,661.332764 653.533813,661.332764 
	C653.533813,664.006897 653.533813,666.585266 653.533813,669.609436 
	C651.582703,669.831299 649.539246,670.063721 647.136353,670.336975 
	C647.136353,682.052063 647.136353,693.629883 647.136353,705.601746 
	C643.211609,705.601746 639.658875,705.601746 635.273499,705.601746 
	C635.273499,696.996033 635.273499,688.265686 635.273682,679.041016 
z"/>
<path fill="#101727" opacity="1.000000" stroke="none" 
	d="
M191.515320,661.538147 
	C191.844299,673.318787 191.844299,684.761963 191.844299,696.585999 
	C194.323059,696.843079 196.376038,697.055969 198.725235,697.299561 
	C198.725235,699.987244 198.725235,702.578918 198.725235,705.581787 
	C192.983948,705.581787 187.135666,705.581787 180.972427,705.581787 
	C180.972427,690.914368 180.972427,676.361755 180.972427,661.200684 
	C184.369492,661.200684 187.777908,661.200684 191.515320,661.538147 
z"/>
<path fill="#101727" opacity="1.000000" stroke="none" 
	d="
M668.989075,673.016724 
	C668.989075,684.141907 668.989075,694.770752 668.989075,705.691406 
	C665.157043,705.691406 661.756287,705.691406 658.008545,705.691406 
	C658.008545,690.941956 658.008545,676.357727 658.008545,661.390930 
	C661.387512,661.390930 664.800049,661.390930 668.989075,661.390930 
	C668.989075,665.008118 668.989075,668.764221 668.989075,673.016724 
z"/>
<path fill="#101727" opacity="1.000000" stroke="none" 
	d="
M202.665146,690.996582 
	C202.664902,680.870361 202.664902,671.243713 202.664902,661.317871 
	C206.569489,661.317871 209.976440,661.317871 213.689377,661.317871 
	C213.689377,676.023193 213.689377,690.613647 213.689377,705.597534 
	C210.352280,705.597534 206.958450,705.597534 202.665390,705.597534 
	C202.665390,700.970398 202.665390,696.233276 202.665146,690.996582 
z"/>
<path fill="#101727" opacity="1.000000" stroke="none" 
	d="
M392.050598,661.011475 
	C394.483185,661.011047 396.442383,661.011047 398.688141,661.011047 
	C398.688141,676.098511 398.688141,690.764343 398.688141,705.710327 
	C395.128723,705.710327 391.738007,705.710327 387.665558,705.710327 
	C387.665558,699.286560 387.665314,693.045654 387.665649,686.804688 
	C387.666046,679.502869 387.788208,672.198120 387.609680,664.900696 
	C387.535309,661.859985 388.540161,660.564026 392.050598,661.011475 
z"/>
<path fill="#111727" opacity="1.000000" stroke="none" 
	d="
M492.670715,591.007568 
	C492.670715,586.074524 492.670715,581.639526 492.670715,577.204590 
	C493.201843,576.975952 493.732971,576.747253 494.264130,576.518616 
	C495.222626,577.996521 496.978485,579.457092 497.011139,580.955200 
	C497.235199,591.236389 497.218353,601.528564 496.950867,611.808655 
	C496.909821,613.384705 495.176880,614.916687 494.226440,616.469055 
	C493.707855,616.237122 493.189301,616.005188 492.670746,615.773315 
	C492.670746,607.684082 492.670746,599.594788 492.670715,591.007568 
z"/>
<path fill="#111727" opacity="1.000000" stroke="none" 
	d="
M708.194336,597.996094 
	C708.162964,602.808289 708.357544,607.141296 707.988831,611.425781 
	C707.841370,613.140259 706.452759,614.747864 705.629211,616.404053 
	C705.126038,616.213562 704.622925,616.023071 704.119751,615.832581 
	C704.119751,603.067139 704.119751,590.301697 704.119751,577.536316 
	C704.464233,577.234131 704.808716,576.931885 705.153198,576.629700 
	C706.150879,578.110291 707.906006,579.539917 708.009644,581.080688 
	C708.376343,586.532410 708.178345,592.022095 708.194336,597.996094 
z"/>
<path fill="#282E3A" opacity="1.000000" stroke="none" 
	d="
M203.902969,599.992188 
	C203.841736,604.816467 203.930374,609.153320 203.623505,613.461914 
	C203.536942,614.677246 202.292053,615.809998 201.578430,616.980652 
	C200.771667,615.906006 199.279907,614.841614 199.263611,613.755127 
	C199.091446,602.270874 199.087402,590.782043 199.259995,579.297791 
	C199.276535,578.197449 200.797379,577.119690 201.619858,576.031372 
	C202.347412,577.193909 203.662964,578.335571 203.705048,579.522461 
	C203.940903,586.173584 203.869476,592.835693 203.902969,599.992188 
z"/>
<path fill="#1E2433" opacity="1.000000" stroke="none" 
	d="
M588.080566,589.106812 
	C588.641602,594.487122 589.177795,599.435547 589.748474,604.701904 
	C587.961792,604.701904 586.223511,604.701904 583.891968,604.701904 
	C584.688110,598.509277 585.482910,592.327148 586.277710,586.145020 
	C586.678894,586.141296 587.080139,586.137512 587.481323,586.133789 
	C587.672791,586.980835 587.864258,587.827820 588.080566,589.106812 
z"/>
<path fill="#1E2433" opacity="1.000000" stroke="none" 
	d="
M665.856445,605.018311 
	C664.610168,604.508606 663.071228,603.922485 663.114929,603.500366 
	C663.715698,597.701111 664.534668,591.924438 665.300049,586.142212 
	C665.748230,586.147522 666.196350,586.152771 666.644531,586.158081 
	C667.333740,592.101990 668.055176,598.042969 668.605896,603.999695 
	C668.630493,604.265808 667.103699,604.675415 665.856445,605.018311 
z"/>
<path fill="#D60F12" opacity="1.000000" stroke="none" 
	d="
M524.938538,680.053955 
	C524.925354,684.865662 525.097961,689.200500 524.803955,693.503418 
	C524.692627,695.133606 523.505615,696.690308 522.808899,698.280518 
	C522.301270,698.085938 521.793701,697.891357 521.286133,697.696838 
	C521.286133,688.296448 521.286133,678.895996 521.286133,669.478333 
	C524.938110,669.965088 524.938110,669.965088 524.938538,680.053955 
z"/>
<path fill="#D60F12" opacity="1.000000" stroke="none" 
	d="
M370.938599,682.019043 
	C370.919403,686.334900 371.093567,690.173462 370.784668,693.972717 
	C370.663513,695.462585 369.460052,696.864319 368.749512,698.306213 
	C368.288910,698.115662 367.828308,697.925049 367.367706,697.734497 
	C367.250641,696.952332 367.033997,696.170410 367.031799,695.387817 
	C367.007477,686.764160 367.016541,678.140503 367.016541,669.516785 
	C367.496826,669.251099 367.977112,668.985352 368.457397,668.719604 
	C369.269379,669.996643 370.613739,671.206909 370.783997,672.564453 
	C371.153687,675.511719 370.923553,678.534241 370.938599,682.019043 
z"/>
<path fill="#D00F12" opacity="1.000000" stroke="none" 
	d="
M688.728699,675.231995 
	C688.229004,683.460144 689.812683,691.434265 687.694641,699.025818 
	C686.986633,699.039368 686.278687,699.052917 685.570679,699.066467 
	C685.189514,697.286377 684.513489,695.511841 684.479370,693.725159 
	C684.349548,686.924316 684.267822,680.113342 684.535706,673.320618 
	C684.605164,671.560730 686.012085,669.853577 686.804688,668.122192 
	C687.445435,669.837891 688.119202,671.542480 688.704529,673.276917 
	C688.855347,673.723999 688.728210,674.264893 688.728699,675.231995 
z"/>
<path fill="#D00F12" opacity="1.000000" stroke="none" 
	d="
M873.471313,678.588501 
	C872.412292,678.057556 871.197144,677.361328 871.102356,676.536255 
	C870.828369,674.152039 871.005493,671.716125 871.005493,669.170410 
	C875.344666,670.381104 875.937866,672.679321 873.471313,678.588501 
z"/>
<path fill="#D00F12" opacity="1.000000" stroke="none" 
	d="
M617.415283,676.787964 
	C617.918762,681.134155 618.344727,685.076904 618.826477,689.535156 
	C617.369141,689.735352 616.018494,689.920898 613.742676,690.233459 
	C614.532715,683.869507 615.253052,678.067505 615.973328,672.265503 
	C616.208374,672.270813 616.443481,672.276184 616.678528,672.281494 
	C616.898254,673.649170 617.117981,675.016846 617.415283,676.787964 
z"/>
</svg>